SplineFontDB: 3.0
FontName: Bhavuka
FullName: Bhavuka
FamilyName: Bhavuka
Weight: Regular
Copyright: Copyright 2014 - Matt Heximer (www.10fourdesign.com)\nbased on Latin "Bellota" by Kemie Guaida (www.pixilate.com), \nwhich is in turn based on "Snippet" by Gesine Todt.\n\nLicensed under the SIL Open Font License 1.1 This license is available with a FAQ at: http://scripts.sil.org/OFL\n(see file OFL.txt)
Version: 2.0
ItalicAngle: 0
UnderlinePosition: 0
UnderlineWidth: 38
Ascent: 680
Descent: 320
InvalidEm: 0
sfntRevision: 0x00020000
LayerCount: 5
Layer: 0 1 "Back" 1
Layer: 1 0 "Fore" 0
Layer: 2 0 "Lines" 1
Layer: 3 0 "compare" 1
Layer: 4 0 "elements" 1
XUID: [1021 641 1310512963 1469]
FSType: 0
OS2Version: 0
OS2_WeightWidthSlopeOnly: 0
OS2_UseTypoMetrics: 1
CreationTime: 1405119260
ModificationTime: 1412293418
PfmFamily: 33
TTFWeight: 400
TTFWidth: 5
LineGap: 208
VLineGap: 0
Panose: 2 11 6 0 0 0 0 0 0 0
OS2TypoAscent: 781
OS2TypoAOffset: 0
OS2TypoDescent: -285
OS2TypoDOffset: 0
OS2TypoLinegap: 0
OS2WinAscent: 876
OS2WinAOffset: 0
OS2WinDescent: 402
OS2WinDOffset: 0
HheadAscent: 876
HheadAOffset: 0
HheadDescent: -402
HheadDOffset: 0
OS2SubXSize: 728
OS2SubYSize: 677
OS2SubXOff: 0
OS2SubYOff: 208
OS2SupXSize: 728
OS2SupYSize: 677
OS2SupXOff: 0
OS2SupYOff: 520
OS2StrikeYSize: 52
OS2StrikeYPos: 260
OS2CapHeight: 0
OS2XHeight: 0
OS2Vendor: 'ACE '
OS2CodePages: 00000001.00000000
OS2UnicodeRanges: 80008023.00002042.00000000.00000000
Lookup: 1 0 0 "'aalt' Access All Alternates lookup 0" { "'aalt' Access All Alternates lookup 0 subtable"  } ['aalt' ('DFLT' <'dflt' > 'armn' <'dflt' > 'grek' <'dflt' > 'latn' <'CAT ' 'MOL ' 'ROM ' 'dflt' > ) ]
Lookup: 3 0 0 "'aalt' Access All Alternates lookup 1" { "'aalt' Access All Alternates lookup 1 subtable"  } ['aalt' ('DFLT' <'dflt' > 'armn' <'dflt' > 'grek' <'dflt' > 'latn' <'CAT ' 'MOL ' 'ROM ' 'dflt' > ) ]

StartChar: .notdef
Encoding: 195 -1 0
Width: 400
VWidth: 800
Flags: HMW
LayerCount: 5
Back
SplineSet
40 484 m 1,0,-1
 40 76 l 1,1,-1
 176 280 l 1,2,-1
 40 484 l 1,0,-1
64 40 m 1,3,-1
 336 40 l 1,4,-1
 200 244 l 1,5,-1
 64 40 l 1,3,-1
224 280 m 1,6,-1
 360 76 l 1,7,-1
 360 484 l 1,8,-1
 224 280 l 1,6,-1
200 316 m 1,9,-1
 336 520 l 1,10,-1
 64 520 l 1,11,-1
 200 316 l 1,9,-1
0 0 m 1,12,-1
 0 560 l 1,13,-1
 400 560 l 1,14,-1
 400 0 l 1,15,-1
 0 0 l 1,12,-1
EndSplineSet
Fore
SplineSet
0 0 m 1
 0 0 0 560 0 560 c 1
 0 560 400 560 400 560 c 1
 400 560 400 0 400 0 c 1
 400 0 0 0 0 0 c 1
200 316 m 1
 200 316 336 520 336 520 c 1
 336 520 64 520 64 520 c 1
 64 520 200 316 200 316 c 1
224 280 m 1
 224 280 360 76 360 76 c 1
 360 76 360 484 360 484 c 1
 360 484 224 280 224 280 c 1
64 40 m 1
 64 40 336 40 336 40 c 1
 336 40 200 244 200 244 c 1
 200 244 64 40 64 40 c 1
40 484 m 1
 40 484 40 76 40 76 c 1
 40 76 176 280 176 280 c 1
 176 280 40 484 40 484 c 1
EndSplineSet
Layer: 2
Layer: 3
Layer: 4
EndChar

StartChar: exclam
Encoding: 1 33 2
Width: 151
VWidth: 800
Flags: HMW
LayerCount: 5
Back
SplineSet
23.2001953125 36.7998046875 m 0,0,1
 23.2001953125 52.7998046875 23.2001953125 52.7998046875 34.7998046875 64.400390625 c 0,2,3
 46.400390625 76 46.400390625 76 62.400390625 76 c 0,2,3
 77.599609375 76 77.599609375 76 89.2001953125 64.400390625 c 0,4,5
 100.799804688 52.7998046875 100.799804688 52.7998046875 100.799804688 36.7998046875 c 0,4,5
 100.799804688 21.599609375 100.799804688 21.599609375 89.599609375 10.400390625 c 0,6,7
 78.400390625 -0.7998046875 78.400390625 -0.7998046875 62.400390625 -0.7998046875 c 0,6,7
 46.400390625 -0.7998046875 46.400390625 -0.7998046875 34.7998046875 10.400390625 c 0,8,9
 23.2001953125 21.599609375 23.2001953125 21.599609375 23.2001953125 36.7998046875 c 0,0,1
85.599609375 127.200195312 m 1,8,-1
 40.7998046875 127.200195312 l 1,9,-1
 32.7998046875 563.200195312 l 1,10,-1
 93.599609375 563.200195312 l 1,11,-1
 85.599609375 127.200195312 l 1,8,-1
EndSplineSet
Fore
SplineSet
86 127 m 1
 86 127 41 127 41 127 c 1
 41 127 33 563 33 563 c 1
 33 563 94 563 94 563 c 1
 94 563 86 127 86 127 c 1
23 37 m 0
 23 58 41 76 62 76 c 0
 83 76 101 58 101 37 c 0
 101 16 83 -1 62 -1 c 0
 41 -1 23 17 23 37 c 0
EndSplineSet
Layer: 2
Layer: 3
Layer: 4
EndChar

StartChar: quotedbl
Encoding: 2 34 3
Width: 251
VWidth: 800
Flags: HMW
LayerCount: 5
Back
SplineSet
178.400390625 393.599609375 m 1,0,-1
 136.799804688 393.599609375 l 1,1,-1
 128.799804688 547.200195312 l 1,2,-1
 186.400390625 547.200195312 l 1,3,-1
 178.400390625 393.599609375 l 1,0,-1
90.400390625 393.599609375 m 1,4,-1
 48.7998046875 393.599609375 l 1,5,-1
 40.7998046875 547.200195312 l 1,6,-1
 98.400390625 547.200195312 l 1,7,-1
 90.400390625 393.599609375 l 1,4,-1
EndSplineSet
Fore
SplineSet
90 394 m 1
 90 394 49 394 49 394 c 1
 49 394 41 547 41 547 c 1
 41 547 98 547 98 547 c 1
 98 547 90 394 90 394 c 1
178 394 m 1
 178 394 137 394 137 394 c 1
 137 394 129 547 129 547 c 1
 129 547 186 547 186 547 c 1
 186 547 178 394 178 394 c 1
EndSplineSet
Layer: 2
Layer: 3
Layer: 4
EndChar

StartChar: numbersign
Encoding: 3 35 4
Width: 476
VWidth: 800
Flags: HMW
LayerCount: 5
Back
SplineSet
159.200195312 345.599609375 m 1,0,-1
 159.200195312 188.799804688 l 1,1,-1
 292.799804688 188.799804688 l 1,2,-1
 292.799804688 345.599609375 l 1,3,-1
 159.200195312 345.599609375 l 1,0,-1
337.599609375 387.200195312 m 1,4,-1
 428.799804688 387.200195312 l 1,5,-1
 428.799804688 345.599609375 l 1,6,-1
 337.599609375 345.599609375 l 1,7,-1
 337.599609375 188.799804688 l 1,8,-1
 428.799804688 188.799804688 l 1,9,-1
 428.799804688 147.200195312 l 1,10,-1
 337.599609375 147.200195312 l 1,11,-1
 337.599609375 24 l 1,12,-1
 294.400390625 24 l 1,13,-1
 294.400390625 147.200195312 l 1,14,-1
 159.200195312 147.200195312 l 1,15,-1
 159.200195312 24 l 1,16,-1
 116 24 l 1,17,-1
 116 147.200195312 l 1,18,-1
 23.2001953125 147.200195312 l 1,19,-1
 23.2001953125 188.799804688 l 1,20,-1
 114.400390625 188.799804688 l 1,21,-1
 114.400390625 345.599609375 l 1,22,-1
 23.2001953125 345.599609375 l 1,23,-1
 23.2001953125 387.200195312 l 1,24,-1
 114.400390625 387.200195312 l 1,25,-1
 114.400390625 509.599609375 l 1,26,-1
 159.200195312 509.599609375 l 1,27,-1
 159.200195312 387.200195312 l 1,28,-1
 292.799804688 387.200195312 l 1,29,-1
 292.799804688 509.599609375 l 1,30,-1
 337.599609375 509.599609375 l 1,31,-1
 337.599609375 387.200195312 l 1,4,-1
EndSplineSet
Fore
SplineSet
338 387 m 1
 338 387 429 387 429 387 c 1
 429 387 429 346 429 346 c 1
 429 346 338 346 338 346 c 1
 338 346 338 189 338 189 c 1
 338 189 429 189 429 189 c 1
 429 189 429 147 429 147 c 1
 429 147 338 147 338 147 c 1
 338 147 338 24 338 24 c 1
 338 24 294 24 294 24 c 1
 294 24 294 147 294 147 c 1
 294 147 159 147 159 147 c 1
 159 147 159 24 159 24 c 1
 159 24 116 24 116 24 c 1
 116 24 116 147 116 147 c 1
 116 147 23 147 23 147 c 1
 23 147 23 189 23 189 c 1
 23 189 114 189 114 189 c 1
 114 189 114 346 114 346 c 1
 114 346 23 346 23 346 c 1
 23 346 23 387 23 387 c 1
 23 387 114 387 114 387 c 1
 114 387 114 510 114 510 c 1
 114 510 159 510 159 510 c 1
 159 510 159 387 159 387 c 1
 159 387 293 387 293 387 c 1
 293 387 293 510 293 510 c 1
 293 510 338 510 338 510 c 1
 338 510 338 387 338 387 c 1
159 346 m 1
 159 346 159 189 159 189 c 1
 159 189 293 189 293 189 c 1
 293 189 293 346 293 346 c 1
 293 346 159 346 159 346 c 1
EndSplineSet
Layer: 2
Layer: 3
Layer: 4
EndChar

StartChar: dollar
Encoding: 4 36 5
Width: 433
VWidth: 800
Flags: HMW
LayerCount: 5
Back
SplineSet
228.799804688 242.400390625 m 1,0,-1
 228.799804688 36.7998046875 l 1,1,2
 248.799804688 36.7998046875 248.799804688 36.7998046875 270.400390625 44 c 0,3,4
 290.400390625 50.400390625 290.400390625 50.400390625 304.799804688 62.400390625 c 0,5,6
 319.200195312 73.599609375 319.200195312 73.599609375 328 92 c 0,7,8
 336.799804688 112 336.799804688 112 336.799804688 135.200195312 c 0,9,10
 336.799804688 156.799804688 336.799804688 156.799804688 328 176 c 0,11,12
 320 193.599609375 320 193.599609375 304 205.599609375 c 0,13,14
 291.200195312 216 291.200195312 216 269.599609375 226.400390625 c 0,15,16
 252.799804688 234.400390625 252.799804688 234.400390625 228.799804688 242.400390625 c 1,0,-1
182.400390625 307.200195312 m 1,17,-1
 182.400390625 486.400390625 l 1,18,19
 168.799804688 486.400390625 168.799804688 486.400390625 150.400390625 480.799804688 c 0,20,21
 140.799804688 477.599609375 140.799804688 477.599609375 134.400390625 472.799804688 c 0,22,23
 130.400390625 470.400390625 130.400390625 470.400390625 120 460 c 0,24,25
 98.400390625 438.400390625 98.400390625 438.400390625 98.400390625 408 c 0,26,27
 98.400390625 388 98.400390625 388 104.799804688 370.400390625 c 0,28,29
 110.400390625 355.200195312 110.400390625 355.200195312 122.400390625 343.200195312 c 0,30,31
 140.799804688 327.200195312 140.799804688 327.200195312 149.599609375 323.200195312 c 0,32,33
 172 311.200195312 172 311.200195312 182.400390625 307.200195312 c 1,17,-1
228.799804688 600 m 1,34,-1
 228.799804688 529.599609375 l 1,35,36
 264 529.599609375 264 529.599609375 314.400390625 509.599609375 c 0,37,38
 354.400390625 493.599609375 354.400390625 493.599609375 384.799804688 472 c 1,39,-1
 358.400390625 433.599609375 l 1,40,41
 328.799804688 452 328.799804688 452 300.799804688 464 c 0,42,43
 271.200195312 479.200195312 271.200195312 479.200195312 228.799804688 484.799804688 c 1,44,-1
 228.799804688 291.200195312 l 1,45,46
 242.400390625 288 242.400390625 288 285.599609375 271.200195312 c 0,47,48
 314.400390625 260.799804688 314.400390625 260.799804688 336 243.200195312 c 0,49,50
 358.799804688 226.400390625 358.799804688 226.400390625 372 200 c 0,51,52
 386.400390625 174.799804688 386.400390625 174.799804688 386.400390625 135.200195312 c 0,53,54
 386.400390625 100 386.400390625 100 372.799804688 74.400390625 c 0,55,56
 360 48 360 48 338.400390625 32 c 0,57,58
 316.799804688 14 316.799804688 14 288 5.599609375 c 0,59,60
 253.599609375 -6.400390625 253.599609375 -6.400390625 228.799804688 -6.400390625 c 1,61,-1
 228.799804688 -56 l 1,62,-1
 182.400390625 -56 l 1,63,-1
 182.400390625 -7.2001953125 l 1,64,65
 144.799804688 -7.2001953125 144.799804688 -7.2001953125 92.7998046875 12 c 0,66,67
 52 28 52 28 20.7998046875 51.2001953125 c 1,68,-1
 47.2001953125 89.599609375 l 1,69,70
 79.2001953125 69.599609375 79.2001953125 69.599609375 106.400390625 57.599609375 c 0,71,72
 138.400390625 42.400390625 138.400390625 42.400390625 182.400390625 37.599609375 c 1,73,-1
 182.400390625 257.599609375 l 1,74,75
 157.200195312 266 157.200195312 266 132 276.799804688 c 0,76,77
 105.599609375 288.799804688 105.599609375 288.799804688 89.599609375 304.799804688 c 0,78,79
 69.599609375 324.799804688 69.599609375 324.799804688 60 347.200195312 c 0,80,81
 48.7998046875 374.400390625 48.7998046875 374.400390625 48.7998046875 408 c 0,82,83
 48.7998046875 428.799804688 48.7998046875 428.799804688 57.599609375 451.200195312 c 0,84,85
 68 473.599609375 68 473.599609375 84.7998046875 488 c 0,86,87
 102.400390625 504.799804688 102.400390625 504.799804688 127.200195312 515.200195312 c 0,88,89
 151.200195312 526 151.200195312 526 182.400390625 529.599609375 c 1,90,-1
 182.400390625 600 l 1,91,-1
 228.799804688 600 l 1,34,-1
EndSplineSet
Fore
SplineSet
229 600 m 1
 229 600 229 530 229 530 c 1
 258 530 286 521 314 510 c 0
 340 500 365 486 385 472 c 1
 385 472 358 434 358 434 c 1
 319 458 285 477 229 485 c 1
 229 485 229 291 229 291 c 1
 259 283 312 262 336 243 c 0
 366 221 386 187 386 135 c 0
 386 41 301 -6 229 -6 c 1
 229 -6 229 -56 229 -56 c 1
 229 -56 182 -56 182 -56 c 1
 182 -56 182 -7 182 -7 c 1
 151 -7 121 2 93 12 c 0
 67 22 43 35 21 51 c 1
 21 51 47 90 47 90 c 1
 86 65 126 44 182 38 c 1
 182 38 182 258 182 258 c 1
 148 269 113 282 90 305 c 0
 64 331 49 360 49 408 c 0
 49 465 87 497 127 515 c 0
 143 522 161 528 182 530 c 1
 182 530 182 600 182 600 c 1
 182 600 229 600 229 600 c 1
182 307 m 1
 182 307 182 486 182 486 c 1
 150 486 135 475 120 460 c 0
 106 446 98 428 98 408 c 0
 98 349 140 324 182 307 c 1
229 242 m 1
 229 242 229 37 229 37 c 1
 291 37 337 72 337 135 c 0
 337 203 279 225 229 242 c 1
EndSplineSet
Layer: 2
Layer: 3
Layer: 4
EndChar

StartChar: percent
Encoding: 5 37 6
Width: 589
VWidth: 800
Flags: HMW
LayerCount: 5
Back
SplineSet
504 110.400390625 m 2,0,-1
 504 116 l 2,1,2
 504 134.400390625 504 134.400390625 498.400390625 146.400390625 c 0,3,4
 492.799804688 160.799804688 492.799804688 160.799804688 483.200195312 172 c 0,5,6
 474.799804688 182.799804688 474.799804688 182.799804688 461.599609375 188.799804688 c 0,7,8
 450.400390625 194.400390625 450.400390625 194.400390625 434.400390625 194.400390625 c 0,9,10
 418.400390625 194.400390625 418.400390625 194.400390625 407.200195312 188.799804688 c 0,11,12
 394.400390625 183.200195312 394.400390625 183.200195312 384.799804688 172 c 0,13,14
 376 160.799804688 376 160.799804688 370.400390625 146.400390625 c 0,15,16
 364.799804688 134.400390625 364.799804688 134.400390625 364.799804688 116 c 2,17,-1
 364.799804688 110.400390625 l 2,18,19
 364.799804688 92 364.799804688 92 370.400390625 80 c 0,20,21
 377.599609375 64.7998046875 377.599609375 64.7998046875 384.799804688 55.2001953125 c 0,22,23
 394.400390625 44 394.400390625 44 407.200195312 38.400390625 c 0,24,25
 422.400390625 32 422.400390625 32 434.400390625 32 c 0,26,27
 446.400390625 32 446.400390625 32 461.599609375 38.400390625 c 0,28,29
 474.799804688 44.400390625 474.799804688 44.400390625 483.200195312 55.2001953125 c 0,30,31
 493.599609375 68.7998046875 493.599609375 68.7998046875 498.400390625 80 c 0,32,33
 504 92 504 92 504 110.400390625 c 2,0,-1
325.599609375 110.400390625 m 2,34,-1
 325.599609375 116 l 2,35,36
 325.599609375 142.400390625 325.599609375 142.400390625 333.599609375 161.599609375 c 0,37,38
 342.400390625 184 342.400390625 184 356.799804688 200 c 0,39,40
 374.400390625 217.599609375 374.400390625 217.599609375 391.200195312 225.599609375 c 0,41,42
 413.599609375 234.400390625 413.599609375 234.400390625 434.400390625 234.400390625 c 0,43,44
 454.400390625 234.400390625 454.400390625 234.400390625 476.799804688 225.599609375 c 0,45,46
 494.400390625 216.799804688 494.400390625 216.799804688 512 200 c 0,47,48
 527.200195312 184 527.200195312 184 535.200195312 161.599609375 c 0,49,50
 544 137.599609375 544 137.599609375 544 116 c 2,51,-1
 544 110.400390625 l 2,52,53
 544 88.7998046875 544 88.7998046875 535.200195312 64.7998046875 c 0,54,55
 526.400390625 41.599609375 526.400390625 41.599609375 512 27.2001953125 c 0,56,57
 496.799804688 9.599609375 496.799804688 9.599609375 476.799804688 0.7998046875 c 0,58,59
 454.400390625 -8 454.400390625 -8 434.400390625 -8 c 0,60,61
 413.599609375 -8 413.599609375 -8 391.200195312 0.7998046875 c 0,62,63
 372 11.2001953125 372 11.2001953125 356.799804688 27.2001953125 c 0,64,65
 342.400390625 41.599609375 342.400390625 41.599609375 333.599609375 64.7998046875 c 0,66,67
 325.599609375 84 325.599609375 84 325.599609375 110.400390625 c 2,34,-1
214.400390625 0 m 1,68,-1
 167.200195312 0 l 1,69,-1
 342.400390625 522.400390625 l 1,70,-1
 388.799804688 522.400390625 l 1,71,-1
 214.400390625 0 l 1,68,-1
204 444.799804688 m 2,72,-1
 204 450.400390625 l 2,73,74
 204 468.799804688 204 468.799804688 198.400390625 480.799804688 c 0,75,76
 192.799804688 495.200195312 192.799804688 495.200195312 183.200195312 506.400390625 c 0,77,78
 174.799804688 517.200195312 174.799804688 517.200195312 161.599609375 523.200195312 c 0,79,80
 150.400390625 528.799804688 150.400390625 528.799804688 134.400390625 528.799804688 c 0,81,82
 118.400390625 528.799804688 118.400390625 528.799804688 107.200195312 523.200195312 c 0,83,84
 94.400390625 517.599609375 94.400390625 517.599609375 84.7998046875 506.400390625 c 0,85,86
 76 495.200195312 76 495.200195312 70.400390625 480.799804688 c 0,87,88
 64.7998046875 468.799804688 64.7998046875 468.799804688 64.7998046875 450.400390625 c 2,89,-1
 64.7998046875 444.799804688 l 2,90,91
 64.7998046875 426.400390625 64.7998046875 426.400390625 70.400390625 414.400390625 c 0,92,93
 77.599609375 399.200195312 77.599609375 399.200195312 84.7998046875 389.599609375 c 0,94,95
 94.400390625 378.400390625 94.400390625 378.400390625 107.200195312 372.799804688 c 0,96,97
 122.400390625 366.400390625 122.400390625 366.400390625 134.400390625 366.400390625 c 0,98,99
 146.400390625 366.400390625 146.400390625 366.400390625 161.599609375 372.799804688 c 0,100,101
 174.799804688 378.799804688 174.799804688 378.799804688 183.200195312 389.599609375 c 0,102,103
 193.599609375 403.200195312 193.599609375 403.200195312 198.400390625 414.400390625 c 0,104,105
 204 426.400390625 204 426.400390625 204 444.799804688 c 2,72,-1
25.599609375 444.799804688 m 2,106,-1
 25.599609375 450.400390625 l 2,107,108
 25.599609375 472 25.599609375 472 34.400390625 496 c 0,109,110
 42.400390625 518.400390625 42.400390625 518.400390625 57.599609375 534.400390625 c 0,111,112
 74.400390625 551.200195312 74.400390625 551.200195312 91.2001953125 560 c 0,113,114
 113.599609375 568.799804688 113.599609375 568.799804688 134.400390625 568.799804688 c 0,115,116
 154.400390625 568.799804688 154.400390625 568.799804688 176.799804688 560 c 0,117,118
 195.200195312 552 195.200195312 552 212 534.400390625 c 0,119,120
 227.200195312 518.400390625 227.200195312 518.400390625 235.200195312 496 c 0,121,122
 244 472 244 472 244 450.400390625 c 2,123,-1
 244 444.799804688 l 2,124,125
 244 423.200195312 244 423.200195312 235.200195312 399.200195312 c 0,126,127
 227.200195312 376 227.200195312 376 212 361.599609375 c 0,128,129
 196.799804688 345.599609375 196.799804688 345.599609375 176.799804688 336 c 0,130,131
 156.799804688 326.400390625 156.799804688 326.400390625 134.400390625 326.400390625 c 0,132,133
 111.599609375 326.400390625 111.599609375 326.400390625 91.2001953125 336 c 0,134,135
 72 344.799804688 72 344.799804688 57.599609375 361.599609375 c 0,136,137
 43.2001953125 376 43.2001953125 376 34.400390625 399.200195312 c 0,138,139
 25.599609375 423.200195312 25.599609375 423.200195312 25.599609375 444.799804688 c 2,106,-1
EndSplineSet
Fore
SplineSet
26 445 m 2
 26 445 26 450 26 450 c 2
 26 515 73 569 134 569 c 0
 198 569 244 516 244 450 c 2
 244 450 244 445 244 445 c 2
 244 379 194 326 134 326 c 0
 73 326 26 380 26 445 c 2
134 529 m 0
 90 529 65 494 65 450 c 2
 65 450 65 445 65 445 c 2
 65 403 92 366 134 366 c 0
 167 366 188 390 198 414 c 0
 202 423 204 434 204 445 c 2
 204 445 204 450 204 450 c 2
 204 493 176 529 134 529 c 0
214 0 m 1
 214 0 167 0 167 0 c 1
 167 0 342 522 342 522 c 1
 342 522 389 522 389 522 c 1
 389 522 214 0 214 0 c 1
326 110 m 2
 326 110 326 116 326 116 c 2
 326 182 372 234 434 234 c 0
 498 234 544 182 544 116 c 2
 544 116 544 110 544 110 c 2
 544 44 495 -8 434 -8 c 0
 372 -8 326 44 326 110 c 2
434 194 m 0
 391 194 365 159 365 116 c 2
 365 116 365 110 365 110 c 2
 365 68 392 32 434 32 c 0
 467 32 488 56 498 80 c 0
 502 89 504 99 504 110 c 2
 504 110 504 116 504 116 c 2
 504 159 476 194 434 194 c 0
EndSplineSet
Layer: 2
Layer: 3
Layer: 4
EndChar

StartChar: ampersand
Encoding: 6 38 7
Width: 508
VWidth: 800
Flags: HMW
LayerCount: 5
Back
SplineSet
210.400390625 201.599609375 m 1,0,-1
 152 251.200195312 l 1,1,2
 114.400390625 233.599609375 114.400390625 233.599609375 96 201.599609375 c 0,3,4
 77.599609375 168.799804688 77.599609375 168.799804688 77.599609375 136 c 0,5,6
 77.599609375 114.400390625 77.599609375 114.400390625 86.400390625 92.7998046875 c 0,7,8
 95.2001953125 73.599609375 95.2001953125 73.599609375 110.400390625 60.7998046875 c 0,9,10
 128 46.400390625 128 46.400390625 145.599609375 40.7998046875 c 0,11,12
 165.599609375 33.599609375 165.599609375 33.599609375 188 33.599609375 c 0,13,14
 232.799804688 33.599609375 232.799804688 33.599609375 269.599609375 49.599609375 c 0,15,16
 303.200195312 64.7998046875 303.200195312 64.7998046875 329.599609375 91.2001953125 c 1,17,-1
 210.400390625 201.599609375 l 1,0,-1
432 -2.400390625 m 1,18,-1
 360.799804688 63.2001953125 l 1,19,20
 330.400390625 29.599609375 330.400390625 29.599609375 287.200195312 11.2001953125 c 0,21,22
 244 -8 244 -8 188 -8 c 0,23,24
 155.200195312 -8 155.200195312 -8 127.200195312 1.599609375 c 0,25,26
 98.400390625 11.2001953125 98.400390625 11.2001953125 77.599609375 29.599609375 c 0,27,28
 55.2001953125 48 55.2001953125 48 44 74.400390625 c 0,29,30
 32 99.2001953125 32 99.2001953125 32 132.799804688 c 0,31,32
 32 156.799804688 32 156.799804688 37.599609375 176 c 0,33,34
 44 198.400390625 44 198.400390625 54.400390625 217.599609375 c 0,35,36
 66.400390625 240 66.400390625 240 81.599609375 254.400390625 c 0,37,38
 100 272 100 272 120.799804688 281.599609375 c 1,39,40
 102.400390625 303.200195312 102.400390625 303.200195312 91.2001953125 327.200195312 c 0,41,42
 80 354.400390625 80 354.400390625 80 384 c 0,43,44
 80 406.400390625 80 406.400390625 88.7998046875 431.200195312 c 0,45,46
 96.7998046875 453.599609375 96.7998046875 453.599609375 115.200195312 470.400390625 c 0,47,48
 131.200195312 486.400390625 131.200195312 486.400390625 159.200195312 497.599609375 c 0,49,50
 185.599609375 507.200195312 185.599609375 507.200195312 221.599609375 507.200195312 c 0,51,52
 228.799804688 507.200195312 228.799804688 507.200195312 248.799804688 503.200195312 c 0,53,54
 264 498.400390625 264 498.400390625 279.200195312 490.400390625 c 0,55,56
 292.799804688 483.200195312 292.799804688 483.200195312 307.200195312 468.799804688 c 0,57,58
 320.799804688 455.200195312 320.799804688 455.200195312 326.400390625 438.400390625 c 1,59,-1
 295.200195312 411.200195312 l 1,60,61
 279.200195312 445.599609375 279.200195312 445.599609375 257.599609375 454.400390625 c 0,62,63
 232.799804688 463.200195312 232.799804688 463.200195312 214.400390625 463.200195312 c 0,64,65
 168 463.200195312 168 463.200195312 150.400390625 441.599609375 c 0,66,67
 132 418.400390625 132 418.400390625 132 384 c 0,68,69
 132 361.200195312 132 361.200195312 141.599609375 343.200195312 c 0,70,71
 151.200195312 324 151.200195312 324 166.400390625 306.400390625 c 0,72,73
 182 288.400390625 182 288.400390625 200 272.799804688 c 0,74,75
 223.200195312 252 223.200195312 252 235.200195312 240.799804688 c 2,76,-1
 356 127.200195312 l 1,77,78
 372 155.200195312 372 155.200195312 380 188 c 0,79,80
 388 217.599609375 388 217.599609375 388 253.599609375 c 2,81,-1
 388 285.599609375 l 1,82,-1
 430.400390625 285.599609375 l 1,83,-1
 430.400390625 252 l 2,84,85
 430.400390625 208 430.400390625 208 420 171.200195312 c 0,86,87
 410.400390625 133.599609375 410.400390625 133.599609375 388 98.400390625 c 1,88,-1
 460.799804688 30.400390625 l 1,89,-1
 432 -2.400390625 l 1,18,-1
EndSplineSet
Fore
SplineSet
430 252 m 2
 430 189 415 140 388 98 c 1
 388 98 461 30 461 30 c 1
 461 30 432 -2 432 -2 c 1
 432 -2 361 63 361 63 c 1
 323 21 266 -8 188 -8 c 0
 98 -8 32 43 32 133 c 0
 32 204 72 259 121 282 c 1
 98 309 80 338 80 384 c 0
 80 464 140 507 222 507 c 0
 257 507 288 488 307 469 c 0
 316 460 322 450 326 438 c 1
 326 438 295 411 295 411 c 1
 279 446 256 463 214 463 c 0
 157 463 132 436 132 384 c 0
 132 350 148 326 166 306 c 0
 190 278 205 271 235 241 c 2
 235 241 356 127 356 127 c 1
 375 161 388 204 388 254 c 2
 388 254 388 286 388 286 c 1
 388 286 430 286 430 286 c 1
 430 286 430 252 430 252 c 2
78 136 m 0
 78 73 126 34 188 34 c 0
 251 34 297 58 330 91 c 1
 330 91 210 202 210 202 c 1
 210 202 152 251 152 251 c 1
 110 231 78 190 78 136 c 0
EndSplineSet
Layer: 2
Layer: 3
Layer: 4
EndChar

StartChar: quotesingle
Encoding: 7 39 8
Width: 154
VWidth: 800
Flags: HMW
LayerCount: 5
Back
SplineSet
85.599609375 393.599609375 m 1,0,-1
 44 393.599609375 l 1,1,-1
 36 547.200195312 l 1,2,-1
 93.599609375 547.200195312 l 1,3,-1
 85.599609375 393.599609375 l 1,0,-1
EndSplineSet
Fore
SplineSet
86 394 m 1
 86 394 44 394 44 394 c 1
 44 394 36 547 36 547 c 1
 36 547 94 547 94 547 c 1
 94 547 86 394 86 394 c 1
EndSplineSet
Layer: 2
Layer: 3
Layer: 4
EndChar

StartChar: parenleft
Encoding: 8 40 9
Width: 296
VWidth: 800
Flags: HMW
LayerCount: 5
Back
SplineSet
226.400390625 600 m 1,0,-1
 246.400390625 565.599609375 l 1,1,2
 204.799804688 540.799804688 204.799804688 540.799804688 175.200195312 507.200195312 c 0,3,4
 140.799804688 469.599609375 140.799804688 469.599609375 119.200195312 427.200195312 c 0,5,6
 95.2001953125 380.799804688 95.2001953125 380.799804688 82.400390625 333.599609375 c 0,7,8
 68.7998046875 281.599609375 68.7998046875 281.599609375 68.7998046875 235.200195312 c 0,9,10
 68.7998046875 189.599609375 68.7998046875 189.599609375 82.400390625 137.599609375 c 0,11,12
 95.2001953125 90.400390625 95.2001953125 90.400390625 119.200195312 44 c 0,13,14
 140.799804688 1.599609375 140.799804688 1.599609375 175.200195312 -36 c 0,15,16
 204.799804688 -69.599609375 204.799804688 -69.599609375 246.400390625 -94.400390625 c 1,17,-1
 226.400390625 -128.799804688 l 1,18,19
 176 -101.599609375 176 -101.599609375 135.200195312 -60 c 0,20,21
 95.599609375 -19.2001953125 95.599609375 -19.2001953125 70.400390625 28.7998046875 c 0,22,23
 44.7998046875 77.599609375 44.7998046875 77.599609375 32.7998046875 128.799804688 c 0,24,25
 20 179.200195312 20 179.200195312 20 235.200195312 c 0,26,27
 20 292 20 292 32.7998046875 342.400390625 c 0,28,29
 44.7998046875 392.799804688 44.7998046875 392.799804688 70.400390625 443.200195312 c 0,30,31
 96 492 96 492 135.200195312 531.200195312 c 0,32,33
 176 572.799804688 176 572.799804688 226.400390625 600 c 1,0,-1
EndSplineSet
Fore
SplineSet
226 600 m 1
 226 600 246 566 246 566 c 1
 148 507 69 387 69 235 c 0
 69 84 148 -35 246 -94 c 1
 246 -94 226 -129 226 -129 c 1
 108 -66 20 58 20 235 c 0
 20 413 108 537 226 600 c 1
EndSplineSet
Layer: 2
Layer: 3
Layer: 4
EndChar

StartChar: parenright
Encoding: 9 41 10
Width: 296
VWidth: 800
Flags: HMW
LayerCount: 5
Back
SplineSet
25.599609375 565.599609375 m 1,0,-1
 45.599609375 600 l 1,1,2
 95.2001953125 573.599609375 95.2001953125 573.599609375 137.599609375 531.200195312 c 0,3,4
 176 490.400390625 176 490.400390625 201.599609375 443.200195312 c 0,5,6
 226.799804688 395.200195312 226.799804688 395.200195312 240 342.400390625 c 0,7,8
 252 288 252 288 252 235.200195312 c 0,9,10
 252 181.599609375 252 181.599609375 240 128.799804688 c 0,11,12
 227.200195312 76 227.200195312 76 201.599609375 28.7998046875 c 0,13,14
 175.200195312 -20 175.200195312 -20 137.599609375 -60 c 0,15,16
 95.2001953125 -102.400390625 95.2001953125 -102.400390625 45.599609375 -128.799804688 c 1,17,-1
 25.599609375 -94.400390625 l 1,18,19
 67.2001953125 -69.599609375 67.2001953125 -69.599609375 96.7998046875 -36 c 0,20,21
 130.400390625 0.7998046875 130.400390625 0.7998046875 153.599609375 44 c 0,22,23
 177.599609375 90.400390625 177.599609375 90.400390625 190.400390625 137.599609375 c 0,24,25
 203.200195312 184 203.200195312 184 203.200195312 235.200195312 c 0,26,27
 203.200195312 287.200195312 203.200195312 287.200195312 190.400390625 333.599609375 c 0,28,29
 177.599609375 380.799804688 177.599609375 380.799804688 153.599609375 427.200195312 c 0,30,31
 130.400390625 470.400390625 130.400390625 470.400390625 96.7998046875 507.200195312 c 0,32,33
 67.2001953125 540.799804688 67.2001953125 540.799804688 25.599609375 565.599609375 c 1,0,-1
EndSplineSet
Fore
SplineSet
26 566 m 1
 26 566 46 600 46 600 c 1
 165 536 252 413 252 235 c 0
 252 57 164 -66 46 -129 c 1
 46 -129 26 -94 26 -94 c 1
 124 -35 203 83 203 235 c 0
 203 388 124 506 26 566 c 1
EndSplineSet
Layer: 2
Layer: 3
Layer: 4
EndChar

StartChar: asterisk
Encoding: 10 42 11
Width: 302
VWidth: 800
Flags: HMW
LayerCount: 5
Back
SplineSet
158.400390625 461.599609375 m 1,0,-1
 244 495.200195312 l 1,1,-1
 257.599609375 449.599609375 l 1,2,-1
 174.400390625 426.400390625 l 1,3,-1
 228 361.599609375 l 1,4,-1
 188.799804688 334.400390625 l 1,5,-1
 140 409.599609375 l 1,6,-1
 90.400390625 332.799804688 l 1,7,-1
 52 361.599609375 l 1,8,-1
 106.400390625 427.200195312 l 1,9,-1
 21.599609375 449.599609375 l 1,10,-1
 36.7998046875 495.200195312 l 1,11,-1
 120.799804688 462.400390625 l 1,12,-1
 116 555.200195312 l 1,13,-1
 164 555.200195312 l 1,14,-1
 158.400390625 461.599609375 l 1,0,-1
EndSplineSet
Fore
SplineSet
158 462 m 1
 158 462 244 495 244 495 c 1
 244 495 258 450 258 450 c 1
 258 450 174 426 174 426 c 1
 174 426 228 362 228 362 c 1
 228 362 189 334 189 334 c 1
 189 334 140 410 140 410 c 1
 140 410 90 333 90 333 c 1
 90 333 52 362 52 362 c 1
 52 362 106 427 106 427 c 1
 106 427 22 450 22 450 c 1
 22 450 37 495 37 495 c 1
 37 495 121 462 121 462 c 1
 121 462 116 555 116 555 c 1
 116 555 164 555 164 555 c 1
 164 555 158 462 158 462 c 1
EndSplineSet
Layer: 2
Layer: 3
Layer: 4
EndChar

StartChar: plus
Encoding: 11 43 12
Width: 345
VWidth: 800
Flags: HMW
LayerCount: 5
Back
SplineSet
183.200195312 255.200195312 m 1,0,-1
 309.599609375 255.200195312 l 1,1,-1
 309.599609375 214.400390625 l 1,2,-1
 183.200195312 214.400390625 l 1,3,-1
 183.200195312 85.599609375 l 1,4,-1
 138.400390625 85.599609375 l 1,5,-1
 138.400390625 214.400390625 l 1,6,-1
 12 214.400390625 l 1,7,-1
 12 255.200195312 l 1,8,-1
 138.400390625 255.200195312 l 1,9,-1
 138.400390625 383.200195312 l 1,10,-1
 183.200195312 383.200195312 l 1,11,-1
 183.200195312 255.200195312 l 1,0,-1
EndSplineSet
Fore
SplineSet
183 255 m 1
 183 255 310 255 310 255 c 1
 310 255 310 214 310 214 c 1
 310 214 183 214 183 214 c 1
 183 214 183 86 183 86 c 1
 183 86 138 86 138 86 c 1
 138 86 138 214 138 214 c 1
 138 214 12 214 12 214 c 1
 12 214 12 255 12 255 c 1
 12 255 138 255 138 255 c 1
 138 255 138 383 138 383 c 1
 138 383 183 383 183 383 c 1
 183 383 183 255 183 255 c 1
EndSplineSet
Layer: 2
Layer: 3
Layer: 4
EndChar

StartChar: comma
Encoding: 12 44 13
Width: 153
VWidth: 800
Flags: HMW
LayerCount: 5
Back
SplineSet
44 25.599609375 m 1,0,-1
 44 41.599609375 l 2,1,2
 44 52 44 52 52 60 c 0,3,4
 59.2001953125 68 59.2001953125 68 70.400390625 68 c 0,5,6
 81.599609375 68 81.599609375 68 88.7998046875 60 c 0,7,8
 96 52.7998046875 96 52.7998046875 96 41.599609375 c 2,9,-1
 96 25.599609375 l 2,10,11
 96 -8 96 -8 86.400390625 -33.599609375 c 0,12,13
 77.599609375 -56.7998046875 77.599609375 -56.7998046875 46.400390625 -80 c 1,14,-1
 19.2001953125 -53.599609375 l 1,15,16
 35.2001953125 -37.599609375 35.2001953125 -37.599609375 40.7998046875 -21.599609375 c 0,17,18
 44.7998046875 -8 44.7998046875 -8 44.7998046875 8 c 0,19,20
 44.7998046875 19.2001953125 44.7998046875 19.2001953125 44 25.599609375 c 1,0,-1
EndSplineSet
Fore
SplineSet
19 -54 m 1
 36 -37 45 -23 45 8 c 0
 45 18 44 31 44 42 c 0
 44 57 56 68 70 68 c 0
 84 68 96 56 96 42 c 2
 96 42 96 26 96 26 c 2
 96 -29 81 -53 46 -80 c 1
 46 -80 19 -54 19 -54 c 1
EndSplineSet
Layer: 2
Layer: 3
Layer: 4
EndChar

StartChar: hyphen
Encoding: 13 45 14
Width: 348
VWidth: 800
Flags: HMW
LayerCount: 5
Back
SplineSet
280.799804688 221.599609375 m 1,0,-1
 43.2001953125 221.599609375 l 1,1,-1
 43.2001953125 267.200195312 l 1,2,-1
 280.799804688 267.200195312 l 1,3,-1
 280.799804688 221.599609375 l 1,0,-1
EndSplineSet
Fore
SplineSet
281 222 m 1
 281 222 43 222 43 222 c 1
 43 222 43 267 43 267 c 1
 43 267 281 267 281 267 c 1
 281 267 281 222 281 222 c 1
EndSplineSet
Layer: 2
Layer: 3
Layer: 4
EndChar

StartChar: period
Encoding: 14 46 15
Width: 164
VWidth: 800
Flags: HMW
LayerCount: 5
Back
SplineSet
71.2001953125 64.7998046875 m 0,0,1
 85.599609375 64.7998046875 85.599609375 64.7998046875 96 54.400390625 c 0,2,3
 105.599609375 44.7998046875 105.599609375 44.7998046875 105.599609375 30.400390625 c 0,4,5
 105.599609375 17.2001953125 105.599609375 17.2001953125 96 6.400390625 c 0,6,7
 84.7998046875 -3.2001953125 84.7998046875 -3.2001953125 71.2001953125 -3.2001953125 c 0,8,9
 57.599609375 -3.2001953125 57.599609375 -3.2001953125 48 6.400390625 c 0,10,11
 37.599609375 16.7998046875 37.599609375 16.7998046875 37.599609375 30.400390625 c 0,12,13
 37.599609375 44.7998046875 37.599609375 44.7998046875 48 54.400390625 c 0,14,15
 57.599609375 64.7998046875 57.599609375 64.7998046875 71.2001953125 64.7998046875 c 0,0,1
EndSplineSet
Fore
SplineSet
38 30 m 0
 38 48 53 65 71 65 c 0
 89 65 106 49 106 30 c 0
 106 12 90 -3 71 -3 c 0
 53 -3 38 12 38 30 c 0
EndSplineSet
Layer: 2
Layer: 3
Layer: 4
EndChar

StartChar: slash
Encoding: 15 47 16
Width: 273
VWidth: 800
Flags: HMW
LayerCount: 5
Back
SplineSet
63.2001953125 -56 m 1,0,-1
 12 -56 l 1,1,-1
 187.200195312 600 l 1,2,-1
 237.599609375 600 l 1,3,-1
 63.2001953125 -56 l 1,0,-1
EndSplineSet
Fore
SplineSet
63 -56 m 1
 63 -56 12 -56 12 -56 c 1
 12 -56 187 600 187 600 c 1
 187 600 238 600 238 600 c 1
 238 600 63 -56 63 -56 c 1
EndSplineSet
Layer: 2
Layer: 3
Layer: 4
EndChar

StartChar: zero
Encoding: 16 48 17
Width: 523
VWidth: 800
Flags: HMW
LayerCount: 5
Back
SplineSet
250.400390625 486.400390625 m 0,0,1
 212.799804688 486.400390625 212.799804688 486.400390625 182.400390625 469.599609375 c 0,2,3
 152 453.599609375 152 453.599609375 129.599609375 423.200195312 c 0,4,5
 107.200195312 393.599609375 107.200195312 393.599609375 95.2001953125 352 c 0,6,7
 83.2001953125 311.200195312 83.2001953125 311.200195312 83.2001953125 260.799804688 c 0,8,9
 83.2001953125 211.599609375 83.2001953125 211.599609375 95.2001953125 169.599609375 c 0,10,11
 108.799804688 125.599609375 108.799804688 125.599609375 129.599609375 98.400390625 c 0,12,13
 149.599609375 68.7998046875 149.599609375 68.7998046875 182.400390625 52 c 0,14,15
 212.799804688 36 212.799804688 36 250.400390625 36 c 0,16,17
 284.799804688 36 284.799804688 36 318.400390625 52 c 0,18,19
 348.799804688 68.7998046875 348.799804688 68.7998046875 371.200195312 98.400390625 c 0,20,21
 392.799804688 128 392.799804688 128 404.799804688 169.599609375 c 0,22,23
 416.799804688 211.599609375 416.799804688 211.599609375 416.799804688 260.799804688 c 0,24,25
 416.799804688 310 416.799804688 310 404.799804688 352 c 0,26,27
 392.799804688 394 392.799804688 394 371.200195312 424 c 0,28,29
 348.799804688 453.599609375 348.799804688 453.599609375 318.400390625 470.400390625 c 0,30,31
 284.799804688 486.400390625 284.799804688 486.400390625 250.400390625 486.400390625 c 0,0,1
249.599609375 530.400390625 m 0,32,33
 272.799804688 530.400390625 272.799804688 530.400390625 289.599609375 528 c 0,34,35
 310.400390625 523.200195312 310.400390625 523.200195312 313.599609375 521.599609375 c 0,36,37
 320 519.200195312 320 519.200195312 339.200195312 509.599609375 c 0,38,39
 379.200195312 489.599609375 379.200195312 489.599609375 407.200195312 452.799804688 c 0,40,41
 435.200195312 415.200195312 435.200195312 415.200195312 451.200195312 368 c 0,42,43
 466.400390625 321.599609375 466.400390625 321.599609375 466.400390625 260.799804688 c 0,44,45
 466.400390625 200.799804688 466.400390625 200.799804688 451.200195312 154.400390625 c 0,46,47
 435.200195312 104.799804688 435.200195312 104.799804688 407.200195312 68.7998046875 c 0,48,49
 380.799804688 34.400390625 380.799804688 34.400390625 339.200195312 12.7998046875 c 0,50,51
 299.200195312 -8 299.200195312 -8 249.599609375 -8 c 0,52,53
 200 -8 200 -8 160 12.7998046875 c 0,54,55
 120 32.7998046875 120 32.7998046875 92 69.599609375 c 0,56,57
 64.7998046875 105.599609375 64.7998046875 105.599609375 48.7998046875 155.200195312 c 0,58,59
 32.7998046875 207.200195312 32.7998046875 207.200195312 32.7998046875 260.799804688 c 0,60,61
 32.7998046875 316 32.7998046875 316 48.7998046875 368 c 0,62,63
 64.7998046875 416.799804688 64.7998046875 416.799804688 92 453.599609375 c 0,64,65
 120 490.400390625 120 490.400390625 160 510.400390625 c 0,66,67
 199.200195312 530.400390625 199.200195312 530.400390625 249.599609375 530.400390625 c 0,32,33
EndSplineSet
Fore
SplineSet
250 530 m 0
 396 530 466 406 466 261 c 0
 466 115 395 -8 250 -8 c 0
 107 -8 33 117 33 261 c 0
 33 406 105 530 250 530 c 0
250 486 m 0
 135 486 83 379 83 261 c 0
 83 143 134 36 250 36 c 0
 365 36 417 144 417 261 c 0
 417 379 365 486 250 486 c 0
EndSplineSet
Layer: 2
Layer: 3
Layer: 4
Substitution2: "'sups' Superscript lookup 6 subtable" zerosuperior
Substitution2: "'subs' Subscript lookup 5 subtable" zeroinferior
AlternateSubs2: "'aalt' Access All Alternates lookup 1 subtable" zeroinferior zerosuperior
EndChar

StartChar: one
Encoding: 17 49 18
Width: 290
VWidth: 800
Flags: HMW
LayerCount: 5
Back
SplineSet
222.400390625 0 m 1,0,-1
 173.599609375 0 l 1,1,-1
 173.599609375 458.400390625 l 1,2,3
 145.599609375 435.200195312 145.599609375 435.200195312 116 420.799804688 c 0,4,5
 84.7998046875 407.200195312 84.7998046875 407.200195312 51.2001953125 407.200195312 c 1,6,-1
 40.7998046875 448.799804688 l 1,7,8
 63.2001953125 448.799804688 63.2001953125 448.799804688 82.400390625 456.799804688 c 0,9,10
 104.799804688 464 104.799804688 464 124.799804688 476 c 0,11,12
 144.799804688 486.400390625 144.799804688 486.400390625 169.599609375 504 c 2,13,-1
 216 535.200195312 l 1,14,-1
 222.400390625 535.200195312 l 1,15,-1
 222.400390625 0 l 1,0,-1
EndSplineSet
Fore
SplineSet
222 0 m 1
 222 0 174 0 174 0 c 1
 174 0 174 458 174 458 c 1
 140 429 105 407 51 407 c 1
 51 407 41 449 41 449 c 1
 73 449 103 462 125 476 c 0
 139 483 154 493 170 504 c 2
 170 504 216 535 216 535 c 1
 216 535 222 535 222 535 c 1
 222 535 222 0 222 0 c 1
EndSplineSet
Layer: 2
Layer: 3
Layer: 4
Substitution2: "'sups' Superscript lookup 6 subtable" onesuperior
Substitution2: "'subs' Subscript lookup 5 subtable" oneinferior
AlternateSubs2: "'aalt' Access All Alternates lookup 1 subtable" oneinferior onesuperior
EndChar

StartChar: two
Encoding: 18 50 19
Width: 430
VWidth: 800
Flags: HMW
LayerCount: 5
Back
SplineSet
36 413.599609375 m 1,0,-1
 55.2001953125 452 l 2,1,2
 61.2001953125 465.200195312 61.2001953125 465.200195312 74.400390625 480.799804688 c 0,3,4
 85.599609375 494.400390625 85.599609375 494.400390625 104.799804688 506.400390625 c 0,5,6
 123.200195312 519.200195312 123.200195312 519.200195312 147.200195312 524.799804688 c 0,7,8
 172 532 172 532 204 532 c 0,9,10
 248.799804688 532 248.799804688 532 279.200195312 519.200195312 c 0,11,12
 307.200195312 508 307.200195312 508 326.400390625 486.400390625 c 0,13,14
 343.200195312 467.200195312 343.200195312 467.200195312 350.400390625 439.200195312 c 0,15,16
 357.599609375 412.799804688 357.599609375 412.799804688 357.599609375 389.599609375 c 0,17,18
 357.599609375 346.400390625 357.599609375 346.400390625 340 314.400390625 c 0,19,20
 324.799804688 286.400390625 324.799804688 286.400390625 294.400390625 256 c 0,21,22
 271.200195312 232.799804688 271.200195312 232.799804688 234.400390625 206.400390625 c 0,23,24
 181.599609375 167.200195312 181.599609375 167.200195312 171.200195312 158.400390625 c 0,25,26
 134.400390625 127.200195312 134.400390625 127.200195312 117.599609375 106.400390625 c 0,27,28
 95.2001953125 79.2001953125 95.2001953125 79.2001953125 86.400390625 45.599609375 c 1,29,-1
 384 45.599609375 l 1,30,-1
 384 0 l 1,31,-1
 35.2001953125 0 l 1,32,-1
 35.2001953125 10.400390625 l 2,33,34
 35.2001953125 57.599609375 35.2001953125 57.599609375 55.2001953125 94.400390625 c 0,35,36
 74.400390625 128.799804688 74.400390625 128.799804688 107.200195312 161.599609375 c 0,37,38
 136 190.400390625 136 190.400390625 173.599609375 218.400390625 c 0,39,40
 227.200195312 258.400390625 227.200195312 258.400390625 241.599609375 270.400390625 c 0,41,42
 272.799804688 298 272.799804688 298 292 325.599609375 c 0,43,44
 312.799804688 356 312.799804688 356 312.799804688 390.400390625 c 0,45,46
 312.799804688 436 312.799804688 436 284 464.799804688 c 0,47,48
 254.400390625 494.400390625 254.400390625 494.400390625 206.400390625 494.400390625 c 0,49,50
 174 494.400390625 174 494.400390625 146.400390625 482.400390625 c 0,51,52
 124 472.799804688 124 472.799804688 108.799804688 456 c 0,53,54
 94.400390625 441.599609375 94.400390625 441.599609375 87.2001953125 424.799804688 c 2,55,-1
 76 399.200195312 l 1,56,-1
 73.599609375 394.400390625 l 1,57,-1
 36 413.599609375 l 1,0,-1
EndSplineSet
Fore
SplineSet
313 390 m 0
 313 452 268 494 206 494 c 0
 148 494 105 466 87 425 c 0
 83 415 78 404 74 394 c 1
 74 394 36 414 36 414 c 1
 36 414 55 452 55 452 c 2
 77 501 131 532 204 532 c 0
 300 532 358 484 358 390 c 0
 358 326 330 292 294 256 c 0
 280 242 260 224 234 206 c 0
 196 178 176 162 171 158 c 0
 133 125 99 96 86 46 c 1
 86 46 384 46 384 46 c 1
 384 46 384 0 384 0 c 1
 384 0 35 0 35 0 c 1
 35 0 35 10 35 10 c 2
 35 41 41 69 55 94 c 0
 81 140 129 184 174 218 c 0
 235 263 256 277 292 326 c 0
 306 346 313 367 313 390 c 0
EndSplineSet
Layer: 2
Layer: 3
Layer: 4
Substitution2: "'sups' Superscript lookup 6 subtable" twosuperior
Substitution2: "'subs' Subscript lookup 5 subtable" twoinferior
AlternateSubs2: "'aalt' Access All Alternates lookup 1 subtable" twoinferior twosuperior
EndChar

StartChar: three
Encoding: 19 51 20
Width: 447
VWidth: 800
Flags: HMW
LayerCount: 5
Back
SplineSet
71.2001953125 489.599609375 m 1,0,-1
 79.2001953125 494.400390625 l 2,1,2
 102.400390625 509.599609375 102.400390625 509.599609375 128 521.599609375 c 0,3,4
 166.400390625 537.599609375 166.400390625 537.599609375 209.599609375 537.599609375 c 0,5,6
 277.599609375 537.599609375 277.599609375 537.599609375 322.400390625 500 c 0,7,8
 363.200195312 465.200195312 363.200195312 465.200195312 363.200195312 413.599609375 c 0,9,10
 363.200195312 388 363.200195312 388 349.599609375 359.200195312 c 0,11,12
 338.400390625 338.400390625 338.400390625 338.400390625 324.799804688 325.599609375 c 0,13,14
 308.799804688 312 308.799804688 312 297.599609375 305.599609375 c 0,15,16
 290.400390625 301.599609375 290.400390625 301.599609375 280 297.599609375 c 1,17,18
 301.599609375 292.799804688 301.599609375 292.799804688 321.599609375 279.200195312 c 0,19,20
 343.200195312 263.200195312 343.200195312 263.200195312 357.599609375 244.799804688 c 0,21,22
 372 227.200195312 372 227.200195312 381.599609375 200 c 0,23,24
 392 173.599609375 392 173.599609375 392 140 c 0,25,26
 392 71.2001953125 392 71.2001953125 340.799804688 32 c 0,27,28
 287.200195312 -9.599609375 287.200195312 -9.599609375 202.400390625 -9.599609375 c 0,29,30
 152 -9.599609375 152 -9.599609375 101.599609375 9.599609375 c 0,31,32
 65.599609375 24 65.599609375 24 27.2001953125 46.400390625 c 1,33,-1
 47.2001953125 85.599609375 l 1,34,35
 81.599609375 66.400390625 81.599609375 66.400390625 111.200195312 53.599609375 c 0,36,37
 152 37.599609375 152 37.599609375 194.400390625 37.599609375 c 0,38,39
 263.200195312 37.599609375 263.200195312 37.599609375 302.400390625 67.2001953125 c 0,40,41
 340.799804688 94.7998046875 340.799804688 94.7998046875 340.799804688 144 c 0,42,43
 340.799804688 171.200195312 340.799804688 171.200195312 328.799804688 198.400390625 c 0,44,45
 319.200195312 220 319.200195312 220 300.799804688 236 c 0,46,47
 283.200195312 251.200195312 283.200195312 251.200195312 259.200195312 260 c 0,48,49
 235.200195312 268.799804688 235.200195312 268.799804688 210.400390625 268.799804688 c 2,50,-1
 122.400390625 268.799804688 l 1,51,-1
 122.400390625 313.599609375 l 1,52,-1
 209.599609375 313.599609375 l 2,53,54
 227.200195312 313.599609375 227.200195312 313.599609375 244.799804688 320.799804688 c 0,55,56
 265.599609375 329.599609375 265.599609375 329.599609375 277.599609375 340.799804688 c 0,57,58
 292.799804688 354.400390625 292.799804688 354.400390625 301.599609375 371.200195312 c 0,59,60
 311.200195312 390.400390625 311.200195312 390.400390625 311.200195312 409.599609375 c 0,61,62
 311.200195312 446.400390625 311.200195312 446.400390625 282.400390625 468 c 0,63,64
 252 491.200195312 252 491.200195312 206.400390625 491.200195312 c 0,65,66
 152.799804688 491.200195312 152.799804688 491.200195312 93.599609375 451.200195312 c 1,67,-1
 71.2001953125 489.599609375 l 1,0,-1
EndSplineSet
Fore
SplineSet
311 410 m 0
 311 464 260 491 206 491 c 0
 170 491 133 477 94 451 c 1
 94 451 71 490 71 490 c 1
 113 516 148 538 210 538 c 0
 290 538 363 492 363 414 c 0
 363 356 322 314 280 298 c 1
 314 291 340 267 358 245 c 0
 377 221 392 182 392 140 c 0
 392 41 304 -10 202 -10 c 0
 132 -10 78 16 27 46 c 1
 27 46 47 86 47 86 c 1
 95 60 131 38 194 38 c 0
 272 38 341 70 341 144 c 0
 341 204 305 243 259 260 c 0
 244 266 227 269 210 269 c 2
 210 269 122 269 122 269 c 1
 122 269 122 314 122 314 c 1
 122 314 210 314 210 314 c 2
 254 314 287 342 302 371 c 0
 308 384 311 397 311 410 c 0
EndSplineSet
Layer: 2
Layer: 3
Layer: 4
Substitution2: "'sups' Superscript lookup 6 subtable" threesuperior
Substitution2: "'subs' Subscript lookup 5 subtable" threeinferior
AlternateSubs2: "'aalt' Access All Alternates lookup 1 subtable" threeinferior threesuperior
EndChar

StartChar: four
Encoding: 20 52 21
Width: 429
VWidth: 800
Flags: HMW
LayerCount: 5
Back
SplineSet
72.7998046875 146.400390625 m 1,0,-1
 270.400390625 146.400390625 l 1,1,-1
 270.400390625 324 l 1,2,-1
 320 324 l 1,3,-1
 320 146.400390625 l 1,4,-1
 387.200195312 146.400390625 l 1,5,-1
 387.200195312 100.799804688 l 1,6,-1
 320 100.799804688 l 1,7,-1
 320 -2.400390625 l 1,8,-1
 270.400390625 -2.400390625 l 1,9,-1
 270.400390625 100.799804688 l 1,10,-1
 16 100.799804688 l 1,11,-1
 16 140.799804688 l 1,12,-1
 179.200195312 528 l 1,13,-1
 232.799804688 528 l 1,14,-1
 72.7998046875 146.400390625 l 1,0,-1
EndSplineSet
Fore
SplineSet
73 146 m 1
 73 146 270 146 270 146 c 1
 270 146 270 324 270 324 c 1
 270 324 320 324 320 324 c 1
 320 324 320 146 320 146 c 1
 320 146 387 146 387 146 c 1
 387 146 387 101 387 101 c 1
 387 101 320 101 320 101 c 1
 320 101 320 -2 320 -2 c 1
 320 -2 270 -2 270 -2 c 1
 270 -2 270 101 270 101 c 1
 270 101 16 101 16 101 c 1
 16 101 16 141 16 141 c 1
 16 141 179 528 179 528 c 1
 179 528 233 528 233 528 c 1
 233 528 73 146 73 146 c 1
EndSplineSet
Layer: 2
Layer: 3
Layer: 4
Substitution2: "'sups' Superscript lookup 6 subtable" foursuperior
Substitution2: "'subs' Subscript lookup 5 subtable" fourinferior
AlternateSubs2: "'aalt' Access All Alternates lookup 1 subtable" fourinferior foursuperior
EndChar

StartChar: five
Encoding: 21 53 22
Width: 416
VWidth: 800
Flags: HMW
LayerCount: 5
Back
SplineSet
317.599609375 476.799804688 m 1,0,-1
 224.799804688 473.599609375 l 1,1,-1
 99.2001953125 473.599609375 l 1,2,-1
 99.2001953125 345.599609375 l 1,3,-1
 146.400390625 352 l 1,4,-1
 168.799804688 352 l 2,5,6
 209.599609375 352 209.599609375 352 248 340.799804688 c 0,7,8
 282.400390625 331.200195312 282.400390625 331.200195312 309.599609375 308.799804688 c 0,9,10
 339.200195312 284 339.200195312 284 352 253.599609375 c 0,11,12
 367.200195312 220 367.200195312 220 367.200195312 180.799804688 c 0,13,14
 367.200195312 160 367.200195312 160 363.200195312 140 c 0,15,16
 360.799804688 127.200195312 360.799804688 127.200195312 351.200195312 103.200195312 c 0,17,18
 344 85.2001953125 344 85.2001953125 334.400390625 69.599609375 c 0,19,20
 325.599609375 55.2001953125 325.599609375 55.2001953125 312 41.599609375 c 0,21,22
 288 17.599609375 288 17.599609375 253.599609375 5.599609375 c 0,23,24
 223.200195312 -4.7998046875 223.200195312 -4.7998046875 181.599609375 -4.7998046875 c 0,25,26
 156.400390625 -4.7998046875 156.400390625 -4.7998046875 136 0 c 0,27,28
 120.799804688 3.2001953125 120.799804688 3.2001953125 98.400390625 13.599609375 c 0,29,30
 70.400390625 26.400390625 70.400390625 26.400390625 62.400390625 32 c 0,31,32
 42.400390625 44.7998046875 42.400390625 44.7998046875 34.400390625 52.7998046875 c 1,33,-1
 44 95.2001953125 l 1,34,35
 79.2001953125 69.599609375 79.2001953125 69.599609375 109.599609375 55.2001953125 c 0,36,37
 140 40 140 40 176.799804688 40 c 0,38,39
 213.599609375 40 213.599609375 40 237.599609375 48.7998046875 c 0,40,41
 260.799804688 56.7998046875 260.799804688 56.7998046875 284 81.599609375 c 0,42,43
 301.599609375 100 301.599609375 100 311.200195312 130.400390625 c 0,44,45
 320 159.200195312 320 159.200195312 320 188 c 0,46,47
 320 222.400390625 320 222.400390625 306.400390625 247.200195312 c 0,48,49
 296 267.200195312 296 267.200195312 271.200195312 283.200195312 c 0,50,51
 251.200195312 296 251.200195312 296 220 301.599609375 c 0,52,53
 192.799804688 307.200195312 192.799804688 307.200195312 160.799804688 307.200195312 c 0,54,55
 123.200195312 307.200195312 123.200195312 307.200195312 96.7998046875 302.400390625 c 0,56,57
 76 298.400390625 76 298.400390625 54.400390625 291.200195312 c 1,58,-1
 50.400390625 294.400390625 l 1,59,-1
 50.400390625 516.799804688 l 1,60,61
 78.400390625 516.799804688 78.400390625 516.799804688 136.400390625 518 c 0,62,63
 194.400390625 519.200195312 194.400390625 519.200195312 224 519.200195312 c 2,62,63
 229.599609375 519.599609375 l 2,64,65
 235.200195312 520 235.200195312 520 245.200195312 520 c 0,66,67
 255.200195312 520 255.200195312 520 266.400390625 520 c 0,64,65
 304.799804688 522.400390625 304.799804688 522.400390625 317.599609375 522.400390625 c 1,66,-1
 317.599609375 476.799804688 l 1,0,-1
EndSplineSet
Fore
SplineSet
161 307 m 0
 96 307 54 291 54 291 c 1
 54 291 50 294 50 294 c 1
 50 294 50 517 50 517 c 1
 50 517 224 519 224 519 c 1
 224 519 318 522 318 522 c 1
 318 522 318 477 318 477 c 1
 318 477 225 474 225 474 c 1
 225 474 99 474 99 474 c 1
 99 474 99 346 99 346 c 1
 99 346 139 352 161 352 c 0
 281 352 367 298 367 181 c 0
 367 92 313 -5 182 -5 c 0
 133 -5 92 13 62 32 c 0
 48 41 40 47 34 53 c 1
 34 53 44 95 44 95 c 1
 67 78 90 65 110 55 c 0
 131 45 153 40 177 40 c 0
 232 40 255 52 284 82 c 0
 306 105 320 145 320 188 c 0
 320 277 253 307 161 307 c 0
EndSplineSet
Layer: 2
Layer: 3
Layer: 4
Substitution2: "'sups' Superscript lookup 6 subtable" fivesuperior
Substitution2: "'subs' Subscript lookup 5 subtable" fiveinferior
AlternateSubs2: "'aalt' Access All Alternates lookup 1 subtable" fiveinferior fivesuperior
EndChar

StartChar: six
Encoding: 22 54 23
Width: 456
VWidth: 800
Flags: HMW
LayerCount: 5
Back
SplineSet
222.400390625 292.799804688 m 0,0,1
 192.799804688 292.799804688 192.799804688 292.799804688 168.799804688 282.400390625 c 0,2,3
 147.200195312 272.799804688 147.200195312 272.799804688 123.200195312 252 c 0,4,5
 103.200195312 233.599609375 103.200195312 233.599609375 91.2001953125 206.400390625 c 0,6,7
 79.2001953125 178.400390625 79.2001953125 178.400390625 79.2001953125 148 c 0,8,9
 79.2001953125 134.799804688 79.2001953125 134.799804688 81.599609375 121.599609375 c 0,10,11
 89.599609375 92 89.599609375 92 104.799804688 73.599609375 c 0,12,13
 124 48.7998046875 124 48.7998046875 138.400390625 39.2001953125 c 0,14,15
 155.200195312 27.2001953125 155.200195312 27.2001953125 178.400390625 20 c 0,16,17
 200 12.7998046875 200 12.7998046875 222.400390625 12.7998046875 c 0,18,19
 251.200195312 12.7998046875 251.200195312 12.7998046875 277.599609375 24 c 0,20,21
 304.799804688 36 304.799804688 36 322.400390625 54.400390625 c 0,22,23
 341.599609375 74.400390625 341.599609375 74.400390625 352.799804688 99.2001953125 c 0,24,25
 363.200195312 123.200195312 363.200195312 123.200195312 363.200195312 152.799804688 c 0,26,27
 363.200195312 180.799804688 363.200195312 180.799804688 352 208 c 0,28,29
 341.599609375 232 341.599609375 232 320.799804688 252.799804688 c 0,30,31
 300.799804688 272.799804688 300.799804688 272.799804688 276 282.400390625 c 0,32,33
 252 292.799804688 252 292.799804688 222.400390625 292.799804688 c 0,0,1
344 519.200195312 m 1,34,-1
 344 476.799804688 l 1,35,36
 253.599609375 476.799804688 253.599609375 476.799804688 186.400390625 426.400390625 c 0,37,38
 117.599609375 374.400390625 117.599609375 374.400390625 79.2001953125 264.799804688 c 1,39,40
 107.200195312 298.400390625 107.200195312 298.400390625 144.799804688 316.799804688 c 0,41,42
 183.200195312 335.200195312 183.200195312 335.200195312 221.599609375 335.200195312 c 0,43,44
 255.200195312 335.200195312 255.200195312 335.200195312 291.200195312 321.599609375 c 0,45,46
 324 308.799804688 324 308.799804688 351.200195312 281.599609375 c 0,47,48
 377.599609375 255.200195312 377.599609375 255.200195312 391.200195312 224 c 0,49,50
 405.599609375 188.799804688 405.599609375 188.799804688 405.599609375 151.200195312 c 0,51,52
 405.599609375 115.200195312 405.599609375 115.200195312 391.200195312 81.599609375 c 0,53,54
 378.400390625 50.400390625 378.400390625 50.400390625 352 24 c 0,55,56
 325.599609375 -2.400390625 325.599609375 -2.400390625 294.400390625 -15.2001953125 c 0,57,58
 260.799804688 -29.599609375 260.799804688 -29.599609375 222.400390625 -29.599609375 c 0,59,60
 184 -29.599609375 184 -29.599609375 149.599609375 -15.2001953125 c 0,61,62
 112.799804688 1.599609375 112.799804688 1.599609375 88 27.2001953125 c 0,63,64
 60.7998046875 54.400390625 60.7998046875 54.400390625 44.7998046875 96 c 0,65,66
 28 140.799804688 28 140.799804688 28 193.599609375 c 0,67,68
 28 252.400390625 28 252.400390625 52 313.599609375 c 0,69,70
 76 375.200195312 76 375.200195312 117.599609375 419.200195312 c 0,71,72
 160.799804688 465.599609375 160.799804688 465.599609375 216.799804688 492 c 0,73,74
 274.400390625 519.200195312 274.400390625 519.200195312 344 519.200195312 c 1,34,-1
EndSplineSet
Fore
SplineSet
79 265 m 1
 110 303 160 335 222 335 c 0
 328 335 406 256 406 151 c 0
 406 48 326 -30 222 -30 c 0
 98 -30 28 69 28 194 c 0
 28 284 71 369 118 419 c 0
 169 475 244 519 344 519 c 1
 344 519 344 477 344 477 c 1
 284 477 231 460 186 426 c 0
 140 392 105 339 79 265 c 1
222 293 m 0
 141 293 79 230 79 148 c 0
 79 68 144 13 222 13 c 0
 303 13 363 72 363 153 c 0
 363 233 302 293 222 293 c 0
EndSplineSet
Layer: 2
Layer: 3
Layer: 4
Substitution2: "'sups' Superscript lookup 6 subtable" sixsuperior
Substitution2: "'subs' Subscript lookup 5 subtable" sixinferior
AlternateSubs2: "'aalt' Access All Alternates lookup 1 subtable" sixinferior sixsuperior
EndChar

StartChar: seven
Encoding: 23 55 24
Width: 389
VWidth: 800
Flags: HMW
LayerCount: 5
Back
SplineSet
349.599609375 516 m 1,0,-1
 146.400390625 0 l 1,1,-1
 95.2001953125 0 l 1,2,-1
 286.400390625 476.799804688 l 2,3,4
 284.799804688 476.799804688 284.799804688 476.799804688 198.400390625 473.599609375 c 1,5,-1
 16 473.599609375 l 1,6,-1
 16 520 l 1,7,-1
 98.400390625 520 l 1,8,-1
 177.599609375 520 l 1,9,-1
 349.599609375 522.400390625 l 1,10,-1
 349.599609375 516 l 1,0,-1
EndSplineSet
Fore
SplineSet
350 516 m 1
 350 516 146 0 146 0 c 1
 146 0 95 0 95 0 c 1
 95 0 286 477 286 477 c 1
 286 477 198 474 198 474 c 1
 198 474 16 474 16 474 c 1
 16 474 16 520 16 520 c 1
 16 520 178 520 178 520 c 1
 178 520 350 522 350 522 c 1
 350 522 350 516 350 516 c 1
EndSplineSet
Layer: 2
Layer: 3
Layer: 4
Substitution2: "'sups' Superscript lookup 6 subtable" sevensuperior
Substitution2: "'subs' Subscript lookup 5 subtable" seveninferior
AlternateSubs2: "'aalt' Access All Alternates lookup 1 subtable" seveninferior sevensuperior
EndChar

StartChar: eight
Encoding: 24 56 25
Width: 444
VWidth: 800
Flags: HMW
LayerCount: 5
Back
SplineSet
210.400390625 30.400390625 m 0,0,1
 271.200195312 30.400390625 271.200195312 30.400390625 305.599609375 60.7998046875 c 0,2,3
 340 91.2001953125 340 91.2001953125 340 147.200195312 c 0,2,3
 340 198.400390625 340 198.400390625 291.200195312 233.599609375 c 0,4,5
 261.599609375 254.400390625 261.599609375 254.400390625 188 273.599609375 c 2,6,-1
 170.400390625 278.400390625 l 2,7,8
 169.599609375 277.599609375 169.599609375 277.599609375 159.599609375 269.200195312 c 0,9,10
 149.599609375 260.799804688 149.599609375 260.799804688 147.200195312 258.799804688 c 0,11,12
 144.799804688 256.799804688 144.799804688 256.799804688 135.599609375 248.400390625 c 0,13,14
 126.400390625 240 126.400390625 240 123.200195312 236.400390625 c 0,15,16
 120 232.799804688 120 232.799804688 112.799804688 224.400390625 c 0,17,18
 105.599609375 216 105.599609375 216 102.400390625 210.799804688 c 0,19,20
 99.2001953125 205.599609375 99.2001953125 205.599609375 94 196.799804688 c 0,21,22
 88.7998046875 188 88.7998046875 188 86.7998046875 180.799804688 c 0,23,24
 84.7998046875 173.599609375 84.7998046875 173.599609375 83.2001953125 164.400390625 c 0,25,26
 81.599609375 155.200195312 81.599609375 155.200195312 81.599609375 145.599609375 c 0,9,10
 81.599609375 91.2001953125 81.599609375 91.2001953125 116.799804688 60.7998046875 c 0,11,12
 152 30.400390625 152 30.400390625 210.400390625 30.400390625 c 0,0,1
210.400390625 488.799804688 m 0,11,12
 167.200195312 488.799804688 167.200195312 488.799804688 138.799804688 464.799804688 c 0,13,14
 110.400390625 440.799804688 110.400390625 440.799804688 110.400390625 400 c 0,13,14
 110.400390625 363.200195312 110.400390625 363.200195312 144.799804688 340.799804688 c 0,15,16
 156 333.599609375 156 333.599609375 171.599609375 328 c 0,17,18
 187.200195312 322.400390625 187.200195312 322.400390625 209.200195312 316 c 0,19,20
 231.200195312 309.599609375 231.200195312 309.599609375 242.400390625 305.599609375 c 1,17,18
 283.9921875 336.794921875 283.9921875 336.794921875 296.40625 355.133789062 c 0,19,20
 310.400390625 375.80859375 310.400390625 375.80859375 310.400390625 399.200195312 c 0,19,20
 310.400390625 440.799804688 310.400390625 440.799804688 282.400390625 464.799804688 c 0,21,22
 254.400390625 488.799804688 254.400390625 488.799804688 210.400390625 488.799804688 c 0,11,12
125.599609375 297.599609375 m 1,21,22
 60.7998046875 332 60.7998046875 332 60.7998046875 400 c 0,23,24
 60.7998046875 460.799804688 60.7998046875 460.799804688 103.599609375 496.799804688 c 0,25,26
 146.400390625 532.799804688 146.400390625 532.799804688 208.799804688 532.799804688 c 0,25,26
 278.400390625 532.799804688 278.400390625 532.799804688 319.200195312 493.200195312 c 0,27,28
 360 453.599609375 360 453.599609375 360 402.400390625 c 0,27,28
 360 336.799804688 360 336.799804688 286.400390625 288.799804688 c 1,29,30
 389.599609375 242.400390625 389.599609375 242.400390625 389.599609375 144 c 0,31,32
 389.599609375 77.599609375 389.599609375 77.599609375 344 32.400390625 c 0,33,34
 298.400390625 -12.7998046875 298.400390625 -12.7998046875 211.200195312 -12.7998046875 c 0,33,34
 127.200195312 -12.7998046875 127.200195312 -12.7998046875 76.7998046875 33.599609375 c 0,35,36
 32 76 32 76 32 145.599609375 c 0,37,38
 32 196.799804688 32 196.799804688 56.7998046875 230.400390625 c 0,39,40
 81.599609375 264 81.599609375 264 125.599609375 297.599609375 c 1,21,22
EndSplineSet
Fore
SplineSet
126 298 m 1
 92 316 61 350 61 400 c 0
 61 484 130 533 209 533 c 0
 307 533 360 465 360 402 c 0
 360 348 320 311 286 289 c 1
 337 266 390 226 390 144 c 0
 390 62 333 -13 211 -13 c 0
 106 -13 32 42 32 146 c 0
 32 222 81 264 126 298 c 1
210 489 m 0
 153 489 110 455 110 400 c 0
 110 331 188 325 242 306 c 1
 271 328 310 353 310 399 c 0
 310 455 268 489 210 489 c 0
210 30 m 0
 290 30 340 72 340 147 c 0
 340 231 259 256 188 274 c 2
 188 274 170 278 170 278 c 1
 134 248 82 209 82 146 c 0
 82 72 134 30 210 30 c 0
EndSplineSet
Layer: 2
Layer: 3
Layer: 4
Substitution2: "'sups' Superscript lookup 6 subtable" eightsuperior
Substitution2: "'subs' Subscript lookup 5 subtable" eightinferior
AlternateSubs2: "'aalt' Access All Alternates lookup 1 subtable" eightinferior eightsuperior
EndChar

StartChar: nine
Encoding: 25 57 26
Width: 456
VWidth: 800
Flags: HMW
LayerCount: 5
Back
SplineSet
209.599609375 476.799804688 m 0,0,1
 164 476.799804688 164 476.799804688 130.799804688 452.799804688 c 0,2,3
 97.599609375 428.799804688 97.599609375 428.799804688 80.7998046875 392 c 0,2,3
 69.599609375 365.599609375 69.599609375 365.599609375 69.599609375 336.799804688 c 0,4,5
 69.599609375 291.200195312 69.599609375 291.200195312 94 256.799804688 c 0,6,7
 118.400390625 222.400390625 118.400390625 222.400390625 155.200195312 208 c 0,6,7
 184 196.799804688 184 196.799804688 210.400390625 196.799804688 c 0,8,9
 256.799804688 196.799804688 256.799804688 196.799804688 292 222 c 0,10,11
 327.200195312 247.200195312 327.200195312 247.200195312 342.400390625 284.799804688 c 0,10,11
 353.599609375 312 353.599609375 312 353.599609375 341.599609375 c 0,12,13
 353.599609375 380.799804688 353.599609375 380.799804688 328 416 c 0,14,15
 284 476.799804688 284 476.799804688 209.599609375 476.799804688 c 0,0,1
89.599609375 -29.599609375 m 1,16,-1
 89.599609375 12.7998046875 l 1,17,18
 228 12.7998046875 228 12.7998046875 312 136.799804688 c 0,19,20
 340 178.400390625 340 178.400390625 356.799804688 229.599609375 c 1,21,22
 312 179.200195312 312 179.200195312 251.200195312 160.799804688 c 0,23,24
 229.599609375 154.400390625 229.599609375 154.400390625 208.799804688 154.400390625 c 0,25,26
 151.200195312 154.400390625 151.200195312 154.400390625 107.599609375 185.599609375 c 0,27,28
 64 216.799804688 64 216.799804688 42.400390625 264.799804688 c 0,27,28
 27.2001953125 298.400390625 27.2001953125 298.400390625 27.2001953125 336.799804688 c 0,29,30
 27.2001953125 396 27.2001953125 396 58.7998046875 440 c 0,31,32
 90.400390625 484 90.400390625 484 138.400390625 504.799804688 c 0,31,32
 172 519.200195312 172 519.200195312 209.599609375 519.200195312 c 0,33,34
 274.400390625 519.200195312 274.400390625 519.200195312 320 484.400390625 c 0,35,36
 365.599609375 449.599609375 365.599609375 449.599609375 388 394.400390625 c 0,35,36
 404 352.799804688 404 352.799804688 404 301.599609375 c 0,37,38
 404 168.799804688 404 168.799804688 316 71.2001953125 c 0,39,40
 224.799804688 -29.599609375 224.799804688 -29.599609375 92 -29.599609375 c 2,41,-1
 89.599609375 -29.599609375 l 1,16,-1
EndSplineSet
Fore
SplineSet
90 -30 m 1
 90 -30 90 13 90 13 c 1
 198 13 266 70 312 137 c 0
 330 163 345 194 357 230 c 1
 326 195 273 154 209 154 c 0
 107 154 27 234 27 337 c 0
 27 441 106 519 210 519 c 0
 332 519 404 424 404 302 c 0
 404 200 368 129 316 71 c 0
 265 14 192 -30 92 -30 c 2
 92 -30 90 -30 90 -30 c 1
210 477 m 0
 131 477 70 417 70 337 c 0
 70 256 130 197 210 197 c 0
 292 197 354 260 354 342 c 0
 354 422 288 477 210 477 c 0
EndSplineSet
Layer: 2
Layer: 3
Layer: 4
Substitution2: "'sups' Superscript lookup 6 subtable" ninesuperior
Substitution2: "'subs' Subscript lookup 5 subtable" nineinferior
AlternateSubs2: "'aalt' Access All Alternates lookup 1 subtable" nineinferior ninesuperior
EndChar

StartChar: colon
Encoding: 26 58 27
Width: 172
VWidth: 800
Flags: HMW
LayerCount: 5
Back
SplineSet
37.599609375 30.400390625 m 0,0,1
 37.599609375 44 37.599609375 44 47.599609375 54.400390625 c 0,2,3
 57.599609375 64.7998046875 57.599609375 64.7998046875 71.2001953125 64.7998046875 c 0,2,3
 85.599609375 64.7998046875 85.599609375 64.7998046875 95.599609375 54.7998046875 c 0,4,5
 105.599609375 44.7998046875 105.599609375 44.7998046875 105.599609375 30.400390625 c 0,4,5
 105.599609375 16.7998046875 105.599609375 16.7998046875 95.2001953125 6.7998046875 c 0,6,7
 84.7998046875 -3.2001953125 84.7998046875 -3.2001953125 71.2001953125 -3.2001953125 c 0,6,7
 57.599609375 -3.2001953125 57.599609375 -3.2001953125 47.599609375 7.2001953125 c 0,8,9
 37.599609375 17.599609375 37.599609375 17.599609375 37.599609375 30.400390625 c 0,0,1
37.599609375 345.599609375 m 0,8,9
 37.599609375 359.200195312 37.599609375 359.200195312 47.599609375 369.599609375 c 0,10,11
 57.599609375 380 57.599609375 380 71.2001953125 380 c 0,10,11
 85.599609375 380 85.599609375 380 95.599609375 370 c 0,12,13
 105.599609375 360 105.599609375 360 105.599609375 345.599609375 c 0,12,13
 105.599609375 332 105.599609375 332 95.2001953125 322 c 0,14,15
 84.7998046875 312 84.7998046875 312 71.2001953125 312 c 0,14,15
 57.599609375 312 57.599609375 312 47.599609375 322.400390625 c 0,16,17
 37.599609375 332.799804688 37.599609375 332.799804688 37.599609375 345.599609375 c 0,8,9
EndSplineSet
Fore
SplineSet
38 346 m 0
 38 364 53 380 71 380 c 0
 90 380 106 365 106 346 c 0
 106 328 89 312 71 312 c 0
 53 312 38 328 38 346 c 0
38 30 m 0
 38 48 53 65 71 65 c 0
 90 65 106 49 106 30 c 0
 106 12 89 -3 71 -3 c 0
 53 -3 38 12 38 30 c 0
EndSplineSet
Layer: 2
Layer: 3
Layer: 4
EndChar

StartChar: semicolon
Encoding: 27 59 28
Width: 159
VWidth: 800
Flags: HMW
LayerCount: 5
Back
SplineSet
19.2001953125 -53.599609375 m 1,0,1
 44.7998046875 -28 44.7998046875 -28 44.7998046875 8 c 0,2,3
 44.7998046875 19.2001953125 44.7998046875 19.2001953125 44 25.599609375 c 2,4,-1
 44 41.599609375 l 2,5,6
 45.599609375 53.599609375 45.599609375 53.599609375 52.400390625 60.7998046875 c 0,7,8
 59.2001953125 68 59.2001953125 68 70.400390625 68 c 0,7,8
 80.7998046875 68 80.7998046875 68 88.400390625 60.400390625 c 0,9,10
 96 52.7998046875 96 52.7998046875 96 41.599609375 c 2,9,-1
 96 25.599609375 l 2,10,11
 96 -14.400390625 96 -14.400390625 84.7998046875 -36.400390625 c 0,12,13
 73.599609375 -58.400390625 73.599609375 -58.400390625 46.400390625 -80 c 1,12,-1
 19.2001953125 -53.599609375 l 1,0,1
37.599609375 345.599609375 m 0,13,14
 37.599609375 359.200195312 37.599609375 359.200195312 47.599609375 369.599609375 c 0,15,16
 57.599609375 380 57.599609375 380 71.2001953125 380 c 0,15,16
 84.7998046875 380 84.7998046875 380 95.2001953125 370 c 0,17,18
 105.599609375 360 105.599609375 360 105.599609375 345.599609375 c 0,17,18
 105.599609375 332 105.599609375 332 95.599609375 322 c 0,19,20
 85.599609375 312 85.599609375 312 71.2001953125 312 c 0,19,20
 57.599609375 312 57.599609375 312 47.599609375 322 c 0,21,22
 37.599609375 332 37.599609375 332 37.599609375 345.599609375 c 0,13,14
EndSplineSet
Fore
SplineSet
38 346 m 0
 38 364 53 380 71 380 c 0
 89 380 106 365 106 346 c 0
 106 328 90 312 71 312 c 0
 53 312 38 328 38 346 c 0
19 -54 m 1
 36 -37 45 -23 45 8 c 0
 45 18 44 31 44 42 c 0
 46 57 55 68 70 68 c 0
 84 68 96 56 96 42 c 2
 96 42 96 26 96 26 c 2
 96 -29 81 -53 46 -80 c 1
 46 -80 19 -54 19 -54 c 1
EndSplineSet
Layer: 2
Layer: 3
Layer: 4
EndChar

StartChar: less
Encoding: 28 60 29
Width: 311
VWidth: 800
Flags: HMW
LayerCount: 5
Back
SplineSet
248 322.400390625 m 1,0,-1
 91.2001953125 213.599609375 l 1,1,-1
 249.599609375 103.200195312 l 1,2,-1
 222.400390625 64 l 1,3,-1
 9.599609375 212 l 1,4,-1
 222.400390625 360 l 1,5,-1
 248 322.400390625 l 1,0,-1
EndSplineSet
Fore
SplineSet
248 322 m 1
 248 322 91 214 91 214 c 1
 91 214 250 103 250 103 c 1
 250 103 222 64 222 64 c 1
 222 64 10 212 10 212 c 1
 10 212 222 360 222 360 c 1
 222 360 248 322 248 322 c 1
EndSplineSet
Layer: 2
Layer: 3
Layer: 4
EndChar

StartChar: equal
Encoding: 29 61 30
Width: 367
VWidth: 800
Flags: HMW
LayerCount: 5
Back
SplineSet
324.799804688 149.599609375 m 1,0,-1
 43.2001953125 149.599609375 l 1,1,-1
 43.2001953125 191.200195312 l 1,2,-1
 324.799804688 191.200195312 l 1,3,-1
 324.799804688 149.599609375 l 1,0,-1
324.799804688 277.599609375 m 1,4,-1
 43.2001953125 277.599609375 l 1,5,-1
 43.2001953125 319.200195312 l 1,6,-1
 324.799804688 319.200195312 l 1,7,-1
 324.799804688 277.599609375 l 1,4,-1
EndSplineSet
Fore
SplineSet
325 278 m 1
 325 278 43 278 43 278 c 1
 43 278 43 319 43 319 c 1
 43 319 325 319 325 319 c 1
 325 319 325 278 325 278 c 1
325 150 m 1
 325 150 43 150 43 150 c 1
 43 150 43 191 43 191 c 1
 43 191 325 191 325 191 c 1
 325 191 325 150 325 150 c 1
EndSplineSet
Layer: 2
Layer: 3
Layer: 4
EndChar

StartChar: greater
Encoding: 30 62 31
Width: 311
VWidth: 800
Flags: HMW
LayerCount: 5
Back
SplineSet
277.599609375 212 m 1,0,-1
 64.7998046875 64 l 1,1,-1
 39.2001953125 101.599609375 l 1,2,-1
 196 210.400390625 l 1,3,-1
 37.599609375 320.799804688 l 1,4,-1
 64.7998046875 360 l 1,5,-1
 277.599609375 212 l 1,0,-1
EndSplineSet
Fore
SplineSet
278 212 m 1
 278 212 65 64 65 64 c 1
 65 64 39 102 39 102 c 1
 39 102 196 210 196 210 c 1
 196 210 38 321 38 321 c 1
 38 321 65 360 65 360 c 1
 65 360 278 212 278 212 c 1
EndSplineSet
Layer: 2
Layer: 3
Layer: 4
EndChar

StartChar: question
Encoding: 31 63 32
Width: 370
VWidth: 800
Flags: HMW
LayerCount: 5
Back
SplineSet
96 41.599609375 m 0,0,1
 96 57.599609375 96 57.599609375 107.200195312 68.7998046875 c 0,2,3
 118.400390625 80 118.400390625 80 134.400390625 80 c 0,2,3
 149.599609375 80 149.599609375 80 160.799804688 68.7998046875 c 0,4,5
 172 57.599609375 172 57.599609375 172 41.599609375 c 0,4,5
 172 25.599609375 172 25.599609375 161.200195312 14.7998046875 c 0,6,7
 150.400390625 4 150.400390625 4 134.400390625 4 c 0,6,7
 118.400390625 4 118.400390625 4 107.200195312 15.2001953125 c 0,8,9
 96 26.400390625 96 26.400390625 96 41.599609375 c 0,0,1
64.7998046875 460.799804688 m 0,8,9
 64.7998046875 437.599609375 64.7998046875 437.599609375 88.7998046875 437.599609375 c 0,10,11
 92.7998046875 437.599609375 92.7998046875 437.599609375 93.599609375 438.400390625 c 2,12,-1
 104.799804688 396.799804688 l 1,13,-1
 94.400390625 395.200195312 l 1,14,-1
 88 395.200195312 l 2,15,16
 60 395.200195312 60 395.200195312 41.2001953125 414 c 0,17,18
 22.400390625 432.799804688 22.400390625 432.799804688 22.400390625 460.799804688 c 0,17,18
 22.400390625 506.400390625 22.400390625 506.400390625 71.2001953125 536 c 0,19,20
 112.799804688 562.400390625 112.799804688 562.400390625 168 562.400390625 c 0,21,22
 220.799804688 562.400390625 220.799804688 562.400390625 259.599609375 535.599609375 c 0,23,24
 298.400390625 508.799804688 298.400390625 508.799804688 316.799804688 468 c 0,23,24
 329.599609375 440 329.599609375 440 329.599609375 401.599609375 c 0,25,26
 329.599609375 348 329.599609375 348 304.400390625 313.599609375 c 0,27,28
 279.200195312 279.200195312 279.200195312 279.200195312 234.400390625 253.599609375 c 0,27,28
 230.400390625 251.200195312 230.400390625 251.200195312 213.200195312 241.200195312 c 0,29,30
 196 231.200195312 196 231.200195312 189.200195312 226.799804688 c 0,31,32
 182.400390625 222.400390625 182.400390625 222.400390625 171.200195312 213.200195312 c 0,33,34
 160 204 160 204 152.799804688 195.200195312 c 0,29,30
 138.400390625 177.200195312 138.400390625 177.200195312 138.400390625 154.400390625 c 0,31,32
 138.400390625 142.400390625 138.400390625 142.400390625 142.400390625 120 c 1,33,-1
 100.799804688 111.200195312 l 1,34,35
 96 132.799804688 96 132.799804688 96 153.599609375 c 0,36,37
 96 191.200195312 96 191.200195312 115.599609375 218 c 0,38,39
 135.200195312 244.799804688 135.200195312 244.799804688 163.200195312 261.200195312 c 0,40,41
 191.200195312 277.599609375 191.200195312 277.599609375 219.599609375 293.599609375 c 0,42,43
 248 309.599609375 248 309.599609375 267.599609375 336.799804688 c 0,44,45
 287.200195312 364 287.200195312 364 287.200195312 402.400390625 c 0,38,39
 287.200195312 442.400390625 287.200195312 442.400390625 266.799804688 470.400390625 c 0,40,41
 246.400390625 498.400390625 246.400390625 498.400390625 213.599609375 511.200195312 c 0,40,41
 189.599609375 520 189.599609375 520 168.799804688 520 c 0,42,43
 109.599609375 520 109.599609375 520 74.400390625 484.799804688 c 0,44,45
 64.7998046875 475.200195312 64.7998046875 475.200195312 64.7998046875 460.799804688 c 0,8,9
EndSplineSet
Fore
SplineSet
65 461 m 0
 65 449 75 438 90 438 c 0
 92 438 93 437 94 438 c 2
 94 438 105 397 105 397 c 1
 100 396 96 395 90 395 c 0
 52 395 22 422 22 461 c 0
 22 528 98 562 168 562 c 0
 262 562 330 496 330 402 c 0
 330 324 286 284 234 254 c 0
 204 236 174 221 153 195 c 0
 143 183 138 169 138 154 c 0
 138 144 140 134 142 120 c 1
 142 120 101 111 101 111 c 1
 98 125 96 140 96 154 c 0
 96 292 287 263 287 402 c 0
 287 471 237 520 169 520 c 0
 126 520 65 503 65 461 c 0
96 42 m 0
 96 63 113 80 134 80 c 0
 155 80 172 63 172 42 c 0
 172 21 155 4 134 4 c 0
 113 4 96 21 96 42 c 0
EndSplineSet
Layer: 2
Layer: 3
Layer: 4
EndChar

StartChar: at
Encoding: 32 64 33
Width: 562
VWidth: 800
Flags: HMW
LayerCount: 5
Back
SplineSet
247.200195312 120.799804688 m 0,0,1
 288.799804688 120.799804688 288.799804688 120.799804688 306.400390625 172.799804688 c 1,2,-1
 306.400390625 280.799804688 l 1,3,-1
 283.200195312 283.200195312 l 2,4,5
 278.400390625 283.200195312 278.400390625 283.200195312 273.200195312 283.599609375 c 0,6,7
 268 284 268 284 265.200195312 284.400390625 c 0,8,9
 262.400390625 284.799804688 262.400390625 284.799804688 260.799804688 284.799804688 c 0,6,7
 229.599609375 284.799804688 229.599609375 284.799804688 208.799804688 262.400390625 c 0,8,9
 188 240 188 240 188 208 c 0,8,9
 188 152.799804688 188 152.799804688 220 128 c 0,10,11
 230.400390625 120.799804688 230.400390625 120.799804688 247.200195312 120.799804688 c 0,0,1
271.200195312 -9.599609375 m 0,12,13
 369.599609375 -9.599609375 369.599609375 -9.599609375 427.200195312 20 c 1,14,-1
 438.400390625 -16 l 1,15,-1
 408 -25.599609375 l 2,16,17
 365.599609375 -39.2001953125 365.599609375 -39.2001953125 320 -44.7998046875 c 0,18,19
 300.799804688 -48 300.799804688 -48 271.200195312 -48 c 0,20,21
 107.200195312 -48 107.200195312 -48 49.599609375 90.400390625 c 0,22,23
 32.7998046875 132.799804688 32.7998046875 132.799804688 32.7998046875 185.599609375 c 0,24,25
 32.7998046875 272 32.7998046875 272 69.599609375 331.599609375 c 0,26,27
 106.400390625 391.200195312 106.400390625 391.200195312 172 420 c 0,26,27
 218.400390625 438.400390625 218.400390625 438.400390625 271.200195312 438.400390625 c 0,28,29
 377.599609375 438.400390625 377.599609375 438.400390625 443.200195312 372.799804688 c 0,30,31
 508 310.400390625 508 310.400390625 508 204 c 0,32,33
 508 157.599609375 508 157.599609375 489.599609375 124.799804688 c 0,34,35
 471.200195312 92 471.200195312 92 438.400390625 77.599609375 c 0,34,35
 420 69.599609375 420 69.599609375 398.400390625 69.599609375 c 0,36,37
 338.400390625 69.599609375 338.400390625 69.599609375 321.599609375 117.599609375 c 1,38,39
 292 80.7998046875 292 80.7998046875 247.200195312 80.7998046875 c 0,40,41
 184 80.7998046875 184 80.7998046875 155.200195312 157.599609375 c 0,42,43
 148 180.400390625 148 180.400390625 148 208 c 0,44,45
 148 244.799804688 148 244.799804688 167.200195312 273.200195312 c 0,46,47
 186.400390625 301.599609375 186.400390625 301.599609375 215.200195312 315.200195312 c 0,46,47
 235.599609375 324.799804688 235.599609375 324.799804688 258.400390625 324.799804688 c 0,48,49
 264.799804688 324.799804688 264.799804688 324.799804688 285.599609375 322.799804688 c 0,50,51
 306.400390625 320.799804688 306.400390625 320.799804688 311.200195312 320.799804688 c 2,50,-1
 346.400390625 320.799804688 l 1,51,-1
 346.400390625 155.200195312 l 1,52,53
 354.400390625 105.599609375 354.400390625 105.599609375 398.400390625 105.599609375 c 0,54,55
 420.799804688 105.599609375 420.799804688 105.599609375 436.400390625 121.599609375 c 0,56,57
 452 137.599609375 452 137.599609375 459.200195312 160 c 0,56,57
 465.599609375 181.599609375 465.599609375 181.599609375 465.599609375 205.599609375 c 0,58,59
 465.599609375 273.599609375 465.599609375 273.599609375 434.400390625 320.400390625 c 0,60,61
 403.200195312 367.200195312 403.200195312 367.200195312 349.599609375 387.200195312 c 0,60,61
 311.200195312 400.799804688 311.200195312 400.799804688 271.200195312 400.799804688 c 0,62,63
 203.200195312 400.799804688 203.200195312 400.799804688 156 365.599609375 c 0,64,65
 108.799804688 330.400390625 108.799804688 330.400390625 89.599609375 273.599609375 c 0,64,65
 76 231.200195312 76 231.200195312 76 188 c 0,66,67
 76 119.200195312 76 119.200195312 107.200195312 72.400390625 c 0,68,69
 138.400390625 25.599609375 138.400390625 25.599609375 192 4 c 0,68,69
 230.400390625 -9.599609375 230.400390625 -9.599609375 271.200195312 -9.599609375 c 0,12,13
EndSplineSet
Fore
SplineSet
271 -10 m 0
 331 -10 389 1 427 20 c 1
 427 20 438 -16 438 -16 c 1
 438 -16 408 -26 408 -26 c 2
 368 -39 320 -48 271 -48 c 0
 126 -48 33 41 33 186 c 0
 33 336 121 438 271 438 c 0
 414 438 508 348 508 204 c 0
 508 130 469 70 398 70 c 0
 358 70 333 86 322 118 c 1
 302 93 277 81 247 81 c 0
 181 81 148 141 148 208 c 0
 148 272 195 325 258 325 c 0
 271 325 301 321 311 321 c 2
 311 321 346 321 346 321 c 1
 346 321 346 155 346 155 c 1
 351 125 368 106 398 106 c 0
 445 106 466 157 466 206 c 0
 466 325 390 401 271 401 c 0
 147 401 76 312 76 188 c 0
 76 67 151 -10 271 -10 c 0
247 121 m 0
 281 121 297 147 306 173 c 1
 306 173 306 281 306 281 c 1
 306 281 283 283 283 283 c 2
 271 284 264 285 261 285 c 0
 219 285 188 250 188 208 c 0
 188 164 202 121 247 121 c 0
EndSplineSet
Layer: 2
Layer: 3
Layer: 4
EndChar

StartChar: bracketleft
Encoding: 59 91 34
Width: 268
VWidth: 800
Flags: HMW
LayerCount: 5
Back
SplineSet
233.599609375 554.400390625 m 1,0,-1
 92 554.400390625 l 1,1,-1
 92 -93.599609375 l 1,2,-1
 233.599609375 -93.599609375 l 1,3,-1
 233.599609375 -139.200195312 l 1,4,-1
 43.2001953125 -139.200195312 l 1,5,-1
 43.2001953125 600 l 1,6,-1
 233.599609375 600 l 1,7,-1
 233.599609375 554.400390625 l 1,0,-1
EndSplineSet
Fore
SplineSet
234 554 m 1
 234 554 92 554 92 554 c 1
 92 554 92 -94 92 -94 c 1
 92 -94 234 -94 234 -94 c 1
 234 -94 234 -139 234 -139 c 1
 234 -139 43 -139 43 -139 c 1
 43 -139 43 600 43 600 c 1
 43 600 234 600 234 600 c 1
 234 600 234 554 234 554 c 1
EndSplineSet
Layer: 2
Layer: 3
Layer: 4
EndChar

StartChar: backslash
Encoding: 60 92 35
Width: 273
VWidth: 800
Flags: HMW
LayerCount: 5
Back
SplineSet
237.599609375 -56 m 1,0,-1
 186.400390625 -56 l 1,1,-1
 12 600 l 1,2,-1
 62.400390625 600 l 1,3,-1
 237.599609375 -56 l 1,0,-1
EndSplineSet
Fore
SplineSet
238 -56 m 1
 238 -56 186 -56 186 -56 c 1
 186 -56 12 600 12 600 c 1
 12 600 62 600 62 600 c 1
 62 600 238 -56 238 -56 c 1
EndSplineSet
Layer: 2
Layer: 3
Layer: 4
EndChar

StartChar: bracketright
Encoding: 61 93 36
Width: 268
VWidth: 800
Flags: HMW
LayerCount: 5
Back
SplineSet
200.799804688 -139.200195312 m 1,0,-1
 10.400390625 -139.200195312 l 1,1,-1
 10.400390625 -93.599609375 l 1,2,-1
 152 -93.599609375 l 1,3,-1
 152 554.400390625 l 1,4,-1
 10.400390625 554.400390625 l 1,5,-1
 10.400390625 600 l 1,6,-1
 200.799804688 600 l 1,7,-1
 200.799804688 -139.200195312 l 1,0,-1
EndSplineSet
Fore
SplineSet
201 -139 m 1
 201 -139 10 -139 10 -139 c 1
 10 -139 10 -94 10 -94 c 1
 10 -94 152 -94 152 -94 c 1
 152 -94 152 554 152 554 c 1
 152 554 10 554 10 554 c 1
 10 554 10 600 10 600 c 1
 10 600 201 600 201 600 c 1
 201 600 201 -139 201 -139 c 1
EndSplineSet
Layer: 2
Layer: 3
Layer: 4
EndChar

StartChar: asciicircum
Encoding: 62 94 37
Width: 363
VWidth: 800
Flags: HMW
LayerCount: 5
Back
SplineSet
317.599609375 290.400390625 m 1,0,-1
 277.599609375 262.400390625 l 1,1,-1
 168 419.200195312 l 1,2,-1
 60 264 l 1,3,-1
 21.599609375 290.400390625 l 1,4,-1
 161.599609375 492 l 1,5,-1
 177.599609375 492 l 1,6,-1
 317.599609375 290.400390625 l 1,0,-1
EndSplineSet
Fore
SplineSet
318 290 m 1
 318 290 278 262 278 262 c 1
 278 262 168 419 168 419 c 1
 168 419 60 264 60 264 c 1
 60 264 22 290 22 290 c 1
 22 290 162 492 162 492 c 1
 162 492 178 492 178 492 c 1
 178 492 318 290 318 290 c 1
EndSplineSet
Layer: 2
Layer: 3
Layer: 4
EndChar

StartChar: underscore
Encoding: 63 95 38
Width: 463
VWidth: 800
Flags: HMW
LayerCount: 5
Back
SplineSet
395.200195312 -106.400390625 m 1,0,-1
 43.2001953125 -106.400390625 l 1,1,-1
 43.2001953125 -62.400390625 l 1,2,-1
 395.200195312 -62.400390625 l 1,3,-1
 395.200195312 -106.400390625 l 1,0,-1
EndSplineSet
Fore
SplineSet
395 -106 m 1
 395 -106 43 -106 43 -106 c 1
 43 -106 43 -62 43 -62 c 1
 43 -62 395 -62 395 -62 c 1
 395 -62 395 -106 395 -106 c 1
EndSplineSet
Layer: 2
Layer: 3
Layer: 4
EndChar

StartChar: grave
Encoding: 64 96 39
Width: 208
VWidth: 800
GlyphClass: 4
Flags: HMW
AnchorPoint: "Anchor-3" 142 400 mark 0
AnchorPoint: "Anchor-0" 142 400 mark 0
LayerCount: 5
Back
SplineSet
168.799804688 480.799804688 m 1,0,-1
 151.200195312 453.599609375 l 1,1,-1
 13.599609375 541.599609375 l 1,2,-1
 42.400390625 580.799804688 l 1,3,-1
 168.799804688 480.799804688 l 1,0,-1
EndSplineSet
Fore
SplineSet
169 481 m 1
 169 481 151 454 151 454 c 1
 151 454 14 542 14 542 c 1
 14 542 42 581 42 581 c 1
 42 581 169 481 169 481 c 1
EndSplineSet
Layer: 2
Layer: 3
Layer: 4
EndChar

StartChar: braceleft
Encoding: 91 123 40
Width: 258
VWidth: 800
Flags: HMW
LayerCount: 5
Back
SplineSet
204.799804688 600 m 1,0,-1
 216 563.200195312 l 1,1,2
 189.599609375 556.799804688 189.599609375 556.799804688 173.599609375 551.200195312 c 0,3,4
 153.599609375 544.799804688 153.599609375 544.799804688 141.599609375 536.799804688 c 0,5,6
 128 528 128 528 122.400390625 516 c 0,7,8
 116 501.599609375 116 501.599609375 116 485.599609375 c 0,9,10
 116 470.400390625 116 470.400390625 118.400390625 448 c 2,11,-1
 124 399.200195312 l 2,12,13
 124.799804688 392 124.799804688 392 129.599609375 347.200195312 c 0,14,15
 132 322 132 322 132 301.599609375 c 0,16,17
 132 281.599609375 132 281.599609375 126.400390625 271.200195312 c 0,18,19
 120 258.400390625 120 258.400390625 112 250.400390625 c 0,20,21
 102.400390625 240.799804688 102.400390625 240.799804688 94.400390625 237.599609375 c 2,22,-1
 79.2001953125 230.400390625 l 2,23,24
 80 230.400390625 80 230.400390625 81.599609375 229.599609375 c 0,25,26
 83.2001953125 228.799804688 83.2001953125 228.799804688 86.7998046875 227.599609375 c 0,27,28
 90.400390625 226.400390625 90.400390625 226.400390625 93.599609375 224.799804688 c 0,25,26
 104 218.400390625 104 218.400390625 111.200195312 211.200195312 c 0,27,28
 119.200195312 203.200195312 119.200195312 203.200195312 125.599609375 190.400390625 c 0,29,30
 132 175.200195312 132 175.200195312 132 160 c 0,31,32
 132 140 132 140 129.599609375 113.599609375 c 0,33,34
 125.599609375 71.2001953125 125.599609375 71.2001953125 124 62.400390625 c 2,35,-1
 118.400390625 13.599609375 l 2,36,37
 116 -9.599609375 116 -9.599609375 116 -24 c 0,38,39
 116 -40 116 -40 122.400390625 -54.400390625 c 0,40,41
 128 -66.400390625 128 -66.400390625 141.599609375 -75.2001953125 c 0,42,43
 153.599609375 -83.2001953125 153.599609375 -83.2001953125 173.599609375 -89.599609375 c 0,44,45
 189.599609375 -95.2001953125 189.599609375 -95.2001953125 216 -101.599609375 c 1,46,-1
 204.799804688 -138.400390625 l 1,47,48
 166.400390625 -127.200195312 166.400390625 -127.200195312 156.799804688 -124.799804688 c 0,49,50
 133.599609375 -118.400390625 133.599609375 -118.400390625 112.799804688 -107.200195312 c 0,51,52
 92.7998046875 -96 92.7998046875 -96 80 -76 c 0,53,54
 67.2001953125 -56 67.2001953125 -56 67.2001953125 -22.400390625 c 0,55,56
 67.2001953125 0.7998046875 67.2001953125 0.7998046875 69.599609375 27.2001953125 c 0,57,58
 70.400390625 35.2001953125 70.400390625 35.2001953125 71.599609375 46.400390625 c 0,59,60
 72.7998046875 57.599609375 72.7998046875 57.599609375 73.599609375 65.2001953125 c 0,61,62
 74.400390625 72.7998046875 74.400390625 72.7998046875 75.2001953125 78.400390625 c 2,59,-1
 80.7998046875 125.599609375 l 2,60,61
 83.2001953125 147.200195312 83.2001953125 147.200195312 83.2001953125 160 c 0,62,63
 83.2001953125 172.799804688 83.2001953125 172.799804688 76.7998046875 181.599609375 c 0,64,65
 70.400390625 190.400390625 70.400390625 190.400390625 60.7998046875 196 c 0,66,67
 52 201.599609375 52 201.599609375 39.2001953125 204 c 0,68,69
 27.2001953125 208 27.2001953125 208 16.7998046875 208.799804688 c 1,70,-1
 16.7998046875 252.799804688 l 1,71,72
 25.599609375 253.599609375 25.599609375 253.599609375 38.400390625 256 c 0,73,74
 50.400390625 260 50.400390625 260 60 264.799804688 c 0,75,76
 68.7998046875 269.599609375 68.7998046875 269.599609375 76.7998046875 280 c 0,77,78
 83.2001953125 288.799804688 83.2001953125 288.799804688 83.2001953125 301.599609375 c 0,79,80
 83.2001953125 314.400390625 83.2001953125 314.400390625 80.7998046875 336 c 2,81,-1
 75.2001953125 382.400390625 l 2,82,83
 74.400390625 388 74.400390625 388 69.599609375 434.400390625 c 0,84,85
 67.2001953125 460.799804688 67.2001953125 460.799804688 67.2001953125 484 c 0,86,87
 67.2001953125 517.599609375 67.2001953125 517.599609375 80 537.599609375 c 0,88,89
 92.7998046875 557.599609375 92.7998046875 557.599609375 112.799804688 568.799804688 c 0,90,91
 133.599609375 580 133.599609375 580 156.799804688 586.400390625 c 0,92,93
 166.400390625 588.799804688 166.400390625 588.799804688 204.799804688 600 c 1,0,-1
EndSplineSet
Fore
SplineSet
216 563 m 1
 169 552 116 543 116 486 c 0
 116 476 116 463 118 448 c 2
 118 448 124 399 124 399 c 2
 126 381 132 328 132 302 c 0
 132 277 124 262 112 250 c 0
 106 244 100 240 94 238 c 2
 94 238 79 230 79 230 c 2
 81 229 86 228 94 225 c 0
 114 212 132 192 132 160 c 0
 132 135 126 80 124 62 c 2
 124 62 118 14 118 14 c 2
 116 -1 116 -14 116 -24 c 0
 116 -65 142 -80 174 -90 c 0
 185 -94 199 -98 216 -102 c 1
 216 -102 205 -138 205 -138 c 1
 137 -118 67 -110 67 -22 c 0
 67 7 72 56 75 78 c 2
 75 78 81 126 81 126 c 2
 83 140 83 151 83 160 c 0
 83 194 47 206 17 209 c 1
 17 209 17 253 17 253 c 1
 47 255 63 262 77 280 c 0
 81 286 83 293 83 302 c 0
 83 311 83 322 81 336 c 2
 81 336 75 382 75 382 c 2
 72 403 67 456 67 484 c 0
 67 572 137 580 205 600 c 1
 205 600 216 563 216 563 c 1
EndSplineSet
Layer: 2
Layer: 3
Layer: 4
EndChar

StartChar: bar
Encoding: 92 124 41
Width: 163
VWidth: 800
Flags: HMW
LayerCount: 5
Back
SplineSet
92 -56 m 1,0,-1
 43.2001953125 -56 l 1,1,-1
 43.2001953125 600 l 1,2,-1
 92 600 l 1,3,-1
 92 -56 l 1,0,-1
EndSplineSet
Fore
SplineSet
92 -56 m 1
 92 -56 43 -56 43 -56 c 1
 43 -56 43 600 43 600 c 1
 43 600 92 600 92 600 c 1
 92 600 92 -56 92 -56 c 1
EndSplineSet
Layer: 2
Layer: 3
Layer: 4
EndChar

StartChar: braceright
Encoding: 93 125 42
Width: 257
VWidth: 800
Flags: HMW
LayerCount: 5
Back
SplineSet
18.400390625 563.200195312 m 1,0,-1
 29.599609375 600 l 1,1,2
 68 588.799804688 68 588.799804688 77.599609375 586.400390625 c 0,3,4
 100.799804688 580 100.799804688 580 121.599609375 568.799804688 c 0,5,6
 141.599609375 557.599609375 141.599609375 557.599609375 154.400390625 537.599609375 c 0,7,8
 167.200195312 517.599609375 167.200195312 517.599609375 167.200195312 484 c 0,9,10
 167.200195312 460.799804688 167.200195312 460.799804688 164.799804688 434.400390625 c 0,11,12
 160 388 160 388 159.200195312 382.400390625 c 2,13,-1
 153.599609375 336 l 2,14,15
 151.200195312 314.400390625 151.200195312 314.400390625 151.200195312 301.599609375 c 0,16,17
 151.200195312 288 151.200195312 288 157.599609375 279.200195312 c 0,18,19
 163.599609375 270.799804688 163.599609375 270.799804688 174.400390625 264.799804688 c 0,20,21
 182.400390625 259.200195312 182.400390625 259.200195312 196 256 c 0,22,23
 212.799804688 252.799804688 212.799804688 252.799804688 217.599609375 252.799804688 c 1,24,-1
 217.599609375 208.799804688 l 1,25,26
 206.400390625 208 206.400390625 208 195.200195312 204 c 0,27,28
 181.599609375 200.799804688 181.599609375 200.799804688 173.599609375 195.200195312 c 0,29,30
 164 189.599609375 164 189.599609375 157.599609375 180.799804688 c 0,31,32
 151.200195312 172 151.200195312 172 151.200195312 160 c 0,33,34
 151.200195312 147.200195312 151.200195312 147.200195312 153.599609375 125.599609375 c 2,35,-1
 159.200195312 78.400390625 l 2,36,37
 160 72.7998046875 160 72.7998046875 160.799804688 65.2001953125 c 0,38,39
 161.599609375 57.599609375 161.599609375 57.599609375 162.799804688 46.400390625 c 0,40,41
 164 35.2001953125 164 35.2001953125 164.799804688 27.2001953125 c 0,38,39
 167.200195312 0.7998046875 167.200195312 0.7998046875 167.200195312 -22.400390625 c 0,40,41
 167.200195312 -56 167.200195312 -56 154.400390625 -76 c 0,42,43
 141.599609375 -96 141.599609375 -96 121.599609375 -107.200195312 c 0,44,45
 100.799804688 -118.400390625 100.799804688 -118.400390625 77.599609375 -124.799804688 c 0,46,47
 68 -127.200195312 68 -127.200195312 29.599609375 -138.400390625 c 1,48,-1
 18.400390625 -101.599609375 l 1,49,50
 44.7998046875 -95.2001953125 44.7998046875 -95.2001953125 60.7998046875 -89.599609375 c 0,51,52
 80.7998046875 -83.2001953125 80.7998046875 -83.2001953125 92.7998046875 -75.2001953125 c 0,53,54
 106.400390625 -66.400390625 106.400390625 -66.400390625 112 -54.400390625 c 0,55,56
 118.400390625 -40 118.400390625 -40 118.400390625 -24 c 0,57,58
 118.400390625 -9.599609375 118.400390625 -9.599609375 116 13.599609375 c 2,59,-1
 110.400390625 62.400390625 l 2,60,61
 108.799804688 71.2001953125 108.799804688 71.2001953125 104.799804688 113.599609375 c 0,62,63
 102.400390625 140 102.400390625 140 102.400390625 160 c 0,64,65
 102.400390625 175.200195312 102.400390625 175.200195312 108.799804688 189.599609375 c 0,66,67
 115.200195312 202.400390625 115.200195312 202.400390625 123.200195312 210.400390625 c 0,68,69
 133.599609375 220.799804688 133.599609375 220.799804688 140 224 c 0,70,71
 148.799804688 228.799804688 148.799804688 228.799804688 155.200195312 230.400390625 c 1,72,73
 154.400390625 230.400390625 154.400390625 230.400390625 152.799804688 231.200195312 c 0,74,75
 151.200195312 232 151.200195312 232 147.599609375 233.200195312 c 0,76,77
 144 234.400390625 144 234.400390625 140.799804688 236 c 0,74,75
 134.400390625 239.200195312 134.400390625 239.200195312 124 249.599609375 c 0,76,77
 113.599609375 260 113.599609375 260 108.799804688 270.400390625 c 0,78,79
 102.400390625 285.599609375 102.400390625 285.599609375 102.400390625 301.599609375 c 0,80,81
 102.400390625 322 102.400390625 322 104.799804688 347.200195312 c 0,82,83
 109.599609375 392 109.599609375 392 110.400390625 399.200195312 c 2,84,-1
 116 448 l 2,85,86
 118.400390625 470.400390625 118.400390625 470.400390625 118.400390625 485.599609375 c 0,87,88
 118.400390625 501.599609375 118.400390625 501.599609375 112 516 c 0,89,90
 106.400390625 528 106.400390625 528 92.7998046875 536.799804688 c 0,91,92
 79.599609375 545.200195312 79.599609375 545.200195312 61.599609375 551.200195312 c 0,93,94
 42.400390625 557.200195312 42.400390625 557.200195312 18.400390625 563.200195312 c 1,0,-1
EndSplineSet
Fore
SplineSet
118 486 m 0
 118 543 65 551 18 563 c 1
 18 563 30 600 30 600 c 1
 98 580 167 572 167 484 c 0
 167 456 162 403 159 382 c 2
 159 382 154 336 154 336 c 2
 152 322 151 311 151 302 c 0
 151 268 184 256 218 253 c 1
 218 253 218 209 218 209 c 1
 187 206 151 193 151 160 c 0
 151 151 152 140 154 126 c 2
 154 126 159 78 159 78 c 2
 162 56 167 7 167 -22 c 0
 167 -110 98 -118 30 -138 c 1
 30 -138 18 -102 18 -102 c 1
 48 -95 72 -89 93 -75 c 0
 109 -65 118 -50 118 -24 c 0
 118 -14 118 -1 116 14 c 2
 116 14 110 62 110 62 c 2
 108 80 102 135 102 160 c 0
 102 195 127 224 155 230 c 1
 153 231 149 233 141 236 c 0
 121 248 102 271 102 302 c 0
 102 328 108 381 110 399 c 2
 110 399 116 448 116 448 c 2
 118 463 118 476 118 486 c 0
EndSplineSet
Layer: 2
Layer: 3
Layer: 4
EndChar

StartChar: asciitilde
Encoding: 94 126 43
Width: 423
VWidth: 800
Flags: HMW
LayerCount: 5
Back
SplineSet
124 269.599609375 m 1,0,-1
 133.599609375 269.599609375 l 2,1,2
 168.799804688 269.599609375 168.799804688 269.599609375 204.799804688 254.400390625 c 0,3,4
 234.400390625 242.400390625 234.400390625 242.400390625 259.200195312 242.400390625 c 0,5,6
 291.200195312 242.400390625 291.200195312 242.400390625 324 268 c 1,7,-1
 351.200195312 235.200195312 l 1,8,9
 312 203.200195312 312 203.200195312 270.400390625 200 c 1,10,-1
 259.200195312 200 l 2,11,12
 224.799804688 200 224.799804688 200 189.599609375 215.200195312 c 0,13,14
 158.400390625 227.200195312 158.400390625 227.200195312 135.200195312 227.200195312 c 0,15,16
 103.200195312 227.200195312 103.200195312 227.200195312 70.400390625 201.599609375 c 1,17,-1
 43.2001953125 234.400390625 l 1,18,19
 82.400390625 266.400390625 82.400390625 266.400390625 124 269.599609375 c 1,0,-1
EndSplineSet
Fore
SplineSet
124 270 m 2
 124 270 134 270 134 270 c 2
 156 270 180 264 205 254 c 0
 225 246 242 242 259 242 c 0
 281 242 302 251 324 268 c 1
 324 268 351 235 351 235 c 1
 325 214 298 202 270 200 c 2
 270 200 259 200 259 200 c 2
 237 200 214 205 190 215 c 0
 169 223 150 227 135 227 c 0
 113 227 92 219 70 202 c 1
 70 202 43 234 43 234 c 1
 69 255 96 268 124 270 c 2
EndSplineSet
Layer: 2
Layer: 3
Layer: 4
EndChar

StartChar: cent
Encoding: 101 162 44
Width: 404
VWidth: 800
GlyphClass: 2
Flags: HMW
LayerCount: 5
Back
SplineSet
168 96 m 1,0,-1
 168 423.200195312 l 1,1,2
 140.799804688 416.799804688 140.799804688 416.799804688 123.200195312 399.200195312 c 0,3,4
 106.400390625 384 106.400390625 384 91.2001953125 356.799804688 c 0,5,6
 78.400390625 332 78.400390625 332 72 303.200195312 c 0,7,8
 65.599609375 268.799804688 65.599609375 268.799804688 65.599609375 244.799804688 c 0,9,10
 65.599609375 180 65.599609375 180 94.400390625 143.200195312 c 0,11,12
 120.799804688 107.200195312 120.799804688 107.200195312 168 96 c 1,0,-1
216.799804688 546.400390625 m 1,13,-1
 216.799804688 464 l 1,14,15
 240 460.799804688 240 460.799804688 264.799804688 451.200195312 c 0,16,17
 289.599609375 440.799804688 289.599609375 440.799804688 304 426.400390625 c 0,18,19
 320 410.400390625 320 410.400390625 329.599609375 390.400390625 c 0,20,21
 339.200195312 369.599609375 339.200195312 369.599609375 339.200195312 344 c 1,22,-1
 327.200195312 344 l 1,23,-1
 304.799804688 344.799804688 l 2,24,25
 293.599609375 344.799804688 293.599609375 344.799804688 293.599609375 344 c 1,26,27
 293.599609375 377.599609375 293.599609375 377.599609375 272.799804688 398.400390625 c 0,28,29
 251.200195312 419.200195312 251.200195312 419.200195312 216.799804688 424.799804688 c 1,30,-1
 216.799804688 92.7998046875 l 1,31,32
 243.200195312 95.2001953125 243.200195312 95.2001953125 273.599609375 106.400390625 c 0,33,34
 305.599609375 119.200195312 305.599609375 119.200195312 328 131.200195312 c 1,35,-1
 348.799804688 97.599609375 l 1,36,37
 322.400390625 79.2001953125 322.400390625 79.2001953125 289.599609375 66.400390625 c 0,38,39
 258.400390625 53.599609375 258.400390625 53.599609375 216.799804688 51.2001953125 c 1,40,-1
 216.799804688 -0.7998046875 l 1,41,-1
 168 -0.7998046875 l 1,42,-1
 168 52.7998046875 l 1,43,44
 93.599609375 63.599609375 93.599609375 63.599609375 57.599609375 115.200195312 c 0,45,46
 20.7998046875 166.400390625 20.7998046875 166.400390625 20.7998046875 256.799804688 c 0,47,48
 20.7998046875 297.599609375 20.7998046875 297.599609375 31.2001953125 329.599609375 c 0,49,50
 41.599609375 363.200195312 41.599609375 363.200195312 60.7998046875 392 c 0,51,52
 82.400390625 422.400390625 82.400390625 422.400390625 107.200195312 439.200195312 c 0,53,54
 134.400390625 456.799804688 134.400390625 456.799804688 168 463.200195312 c 1,55,-1
 168 546.400390625 l 1,56,-1
 216.799804688 546.400390625 l 1,13,-1
EndSplineSet
Fore
SplineSet
168 53 m 1
 67 67 21 140 21 257 c 0
 21 314 38 358 61 392 c 0
 87 428 118 454 168 463 c 1
 168 463 168 546 168 546 c 1
 168 546 217 546 217 546 c 1
 217 546 217 464 217 464 c 1
 270 458 312 431 330 390 c 0
 336 376 339 361 339 344 c 1
 339 344 327 344 327 344 c 1
 327 344 305 345 305 345 c 2
 298 345 294 345 294 344 c 1
 294 392 259 418 217 425 c 1
 217 425 217 93 217 93 c 1
 235 95 255 99 274 106 c 0
 296 115 313 123 328 131 c 1
 328 131 349 98 349 98 c 1
 332 86 313 75 290 66 c 0
 268 57 243 53 217 51 c 1
 217 51 217 -1 217 -1 c 1
 217 -1 168 -1 168 -1 c 1
 168 -1 168 53 168 53 c 1
168 96 m 1
 168 96 168 423 168 423 c 1
 100 408 66 328 66 245 c 0
 66 163 102 111 168 96 c 1
EndSplineSet
Layer: 2
Layer: 3
Layer: 4
EndChar

StartChar: multiply
Encoding: 154 215 45
Width: 412
VWidth: 800
Flags: HMW
LayerCount: 5
Back
SplineSet
341.599609375 328 m 1,0,-1
 228 214.400390625 l 1,1,-1
 347.200195312 95.2001953125 l 1,2,-1
 312.799804688 60.7998046875 l 1,3,-1
 193.599609375 180 l 1,4,-1
 74.400390625 60 l 1,5,-1
 41.599609375 92.7998046875 l 1,6,-1
 160.799804688 212 l 1,7,-1
 47.2001953125 326.400390625 l 1,8,-1
 81.599609375 360.799804688 l 1,9,-1
 195.200195312 246.400390625 l 1,10,-1
 308.799804688 360.799804688 l 1,11,-1
 341.599609375 328 l 1,0,-1
EndSplineSet
Fore
SplineSet
342 328 m 1
 342 328 228 214 228 214 c 1
 228 214 347 95 347 95 c 1
 347 95 313 61 313 61 c 1
 313 61 194 180 194 180 c 1
 194 180 74 60 74 60 c 1
 74 60 42 93 42 93 c 1
 42 93 161 212 161 212 c 1
 161 212 47 326 47 326 c 1
 47 326 82 361 82 361 c 1
 82 361 195 246 195 246 c 1
 195 246 309 361 309 361 c 1
 309 361 342 328 342 328 c 1
EndSplineSet
Layer: 2
Layer: 3
Layer: 4
EndChar

StartChar: divide
Encoding: 186 247 46
Width: 392
VWidth: 800
Flags: HMW
LayerCount: 5
Back
SplineSet
183.200195312 152 m 0,0,1
 200 152 200 152 210.400390625 141.599609375 c 0,2,3
 220.799804688 131.200195312 220.799804688 131.200195312 220.799804688 114.400390625 c 0,4,5
 220.799804688 99.2001953125 220.799804688 99.2001953125 210.400390625 88.7998046875 c 0,6,7
 199.200195312 77.599609375 199.200195312 77.599609375 183.200195312 77.599609375 c 0,8,9
 168.799804688 77.599609375 168.799804688 77.599609375 157.599609375 88.7998046875 c 0,10,11
 146.400390625 100 146.400390625 100 146.400390625 114.400390625 c 0,12,13
 146.400390625 130.400390625 146.400390625 130.400390625 157.599609375 141.599609375 c 0,14,15
 168 152 168 152 183.200195312 152 c 0,0,1
332.799804688 214.400390625 m 1,16,-1
 35.2001953125 214.400390625 l 1,17,-1
 35.2001953125 255.200195312 l 1,18,-1
 332.799804688 255.200195312 l 1,19,-1
 332.799804688 214.400390625 l 1,16,-1
183.200195312 391.200195312 m 0,20,21
 200 391.200195312 200 391.200195312 210.400390625 380.799804688 c 0,22,23
 220.799804688 370.400390625 220.799804688 370.400390625 220.799804688 353.599609375 c 0,24,25
 220.799804688 338.400390625 220.799804688 338.400390625 210.400390625 328 c 0,26,27
 199.200195312 316.799804688 199.200195312 316.799804688 183.200195312 316.799804688 c 0,28,29
 168.799804688 316.799804688 168.799804688 316.799804688 157.599609375 328 c 0,30,31
 146.400390625 339.200195312 146.400390625 339.200195312 146.400390625 353.599609375 c 0,32,33
 146.400390625 369.599609375 146.400390625 369.599609375 157.599609375 380.799804688 c 0,34,35
 168 391.200195312 168 391.200195312 183.200195312 391.200195312 c 0,20,21
EndSplineSet
Fore
SplineSet
146 354 m 0
 146 374 163 391 183 391 c 0
 205 391 221 376 221 354 c 0
 221 334 203 317 183 317 c 0
 164 317 146 335 146 354 c 0
333 214 m 1
 333 214 35 214 35 214 c 1
 35 214 35 255 35 255 c 1
 35 255 333 255 333 255 c 1
 333 255 333 214 333 214 c 1
146 114 m 0
 146 134 162 152 183 152 c 0
 206 152 221 136 221 114 c 0
 221 94 203 78 183 78 c 0
 164 78 146 96 146 114 c 0
EndSplineSet
Layer: 2
Layer: 3
Layer: 4
EndChar

StartChar: uni02BC
Encoding: 196 700 47
Width: 168
VWidth: 800
Flags: HMW
LayerCount: 5
Back
SplineSet
60.7998046875 481.599609375 m 2,0,-1
 60.7998046875 529.599609375 l 2,1,2
 60.7998046875 540.400390625 60.7998046875 540.400390625 68 548.799804688 c 0,3,4
 75.2001953125 556 75.2001953125 556 86.400390625 556 c 0,5,6
 97.599609375 556 97.599609375 556 104.799804688 548.799804688 c 0,7,8
 112 540.400390625 112 540.400390625 112 529.599609375 c 2,9,-1
 112 481.599609375 l 2,10,11
 112 445.599609375 112 445.599609375 99.2001953125 415.200195312 c 0,12,13
 86 381.599609375 86 381.599609375 56 360 c 1,14,-1
 28.7998046875 386.400390625 l 1,15,16
 60.7998046875 418.400390625 60.7998046875 418.400390625 60.7998046875 481.599609375 c 2,0,-1
EndSplineSet
Fore
SplineSet
61 482 m 2
 61 482 61 530 61 530 c 2
 61 537 63 543 68 549 c 0
 73 554 79 556 86 556 c 0
 93 556 100 554 105 549 c 0
 110 543 112 537 112 530 c 2
 112 530 112 482 112 482 c 2
 112 459 108 436 99 415 c 0
 90 393 76 374 56 360 c 1
 56 360 29 386 29 386 c 1
 51 408 61 440 61 482 c 2
EndSplineSet
Layer: 2
Layer: 3
Layer: 4
EndChar

StartChar: candrabinduinverteddeva
Encoding: 197 2304 48
Width: 0
VWidth: 800
GlyphClass: 4
Flags: HMW
AnchorPoint: "DVAnchor3" -161 463 mark 0
LayerCount: 5
Back
SplineSet
-139.0625 660.9375 m 1,0,-1
 -71.875 660.9375 l 1,1,-1
 -71.875 592.96875 l 1,2,-1
 -139.0625 592.96875 l 1,3,-1
 -139.0625 660.9375 l 1,0,-1
-103.125 775 m 0,4,5
 -41.40625 775 -41.40625 775 5.46875 733.984375 c 128,-1,6
 52.34375 692.96875 52.34375 692.96875 63.28125 629.6875 c 1,7,-1
 6.25 629.6875 l 1,8,9
 -0.78125 671.875 -0.78125 671.875 -32.03125 700 c 128,-1,10
 -63.28125 728.125 -63.28125 728.125 -103.125 728.125 c 0,11,12
 -142.1875 728.125 -142.1875 728.125 -173.4375 700 c 128,-1,13
 -204.6875 671.875 -204.6875 671.875 -212.5 629.6875 c 1,14,-1
 -269.53125 629.6875 l 1,15,16
 -257.8125 692.96875 -257.8125 692.96875 -210.9375 733.984375 c 128,-1,17
 -164.0625 775 -164.0625 775 -103.125 775 c 0,4,5
EndSplineSet
Fore
SplineSet
-162 510 m 1
 -162 510 -206 554 -206 554 c 1
 -206 554 -162 597 -162 597 c 1
 -162 597 -118 554 -118 554 c 1
 -118 554 -162 510 -162 510 c 1
-77 547 m 1
 -77 589 -117 618 -162 618 c 0
 -207 618 -247 589 -247 547 c 1
 -247 547 -291 547 -291 547 c 1
 -291 614 -226 658 -162 658 c 0
 -98 658 -33 614 -33 547 c 1
 -33 547 -77 547 -77 547 c 1
EndSplineSet
Layer: 2
Layer: 3
Layer: 4
EndChar

StartChar: candrabindudeva
Encoding: 198 2305 49
Width: 0
VWidth: 800
GlyphClass: 4
Flags: HMW
AnchorPoint: "DVAnchor3" -160 463 mark 0
LayerCount: 5
Back
SplineSet
-139.0625 707.03125 m 1,0,-1
 -139.0625 775 l 1,1,-1
 -71.875 775 l 1,2,-1
 -71.875 707.03125 l 1,3,-1
 -139.0625 707.03125 l 1,0,-1
-103.125 592.96875 m 0,4,5
 -164.0625 592.96875 -164.0625 592.96875 -210.9375 633.984375 c 128,-1,6
 -257.8125 675 -257.8125 675 -269.53125 738.28125 c 1,7,-1
 -212.5 738.28125 l 1,8,9
 -204.6875 696.09375 -204.6875 696.09375 -173.4375 667.96875 c 128,-1,10
 -142.1875 639.84375 -142.1875 639.84375 -103.125 639.84375 c 0,11,12
 -63.28125 639.84375 -63.28125 639.84375 -32.03125 667.96875 c 128,-1,13
 -0.78125 696.09375 -0.78125 696.09375 6.25 738.28125 c 1,14,-1
 63.28125 738.28125 l 1,15,16
 52.34375 675 52.34375 675 5.46875 633.984375 c 128,-1,17
 -41.40625 592.96875 -41.40625 592.96875 -103.125 592.96875 c 0,4,5
EndSplineSet
Fore
SplineSet
-75 618 m 1
 -75 618 -31 618 -31 618 c 1
 -31 551 -96 507 -160 507 c 0
 -225 507 -290 551 -290 618 c 1
 -290 618 -246 618 -246 618 c 1
 -246 576 -205 547 -160 547 c 0
 -116 547 -75 576 -75 618 c 1
-160 571 m 1
 -160 571 -204 615 -204 615 c 1
 -204 615 -160 658 -160 658 c 1
 -160 658 -117 615 -117 615 c 1
 -117 615 -160 571 -160 571 c 1
EndSplineSet
Layer: 2
Layer: 3
Layer: 4
EndChar

StartChar: anusvaradeva
Encoding: 199 2306 50
Width: 0
VWidth: 800
GlyphClass: 4
Flags: HMW
AnchorPoint: "DVAnchor3" -144 463 mark 0
LayerCount: 5
Back
SplineSet
-138.28125 650 m 5,0,-1
 -138.28125 722.65625 l 5,1,-1
 -60.15625 722.65625 l 5,2,-1
 -60.15625 650 l 5,3,-1
 -138.28125 650 l 5,0,-1
EndSplineSet
Fore
SplineSet
-144 569 m 1
 -144 569 -187 613 -187 613 c 1
 -187 613 -144 656 -144 656 c 1
 -144 656 -101 613 -101 613 c 1
 -101 613 -144 569 -144 569 c 1
EndSplineSet
Layer: 2
Layer: 3
Layer: 4
EndChar

StartChar: visargadeva
Encoding: 200 2307 51
Width: 158
VWidth: 800
GlyphClass: 2
Flags: HMW
LayerCount: 5
Back
SplineSet
86.8876953125 311.71875 m 0,0,1
 65.0126953125 311.71875 65.0126953125 311.71875 50.1689453125 328.515625 c 128,-1,2
 35.3251953125 345.3125 35.3251953125 345.3125 35.3251953125 369.53125 c 0,3,4
 35.3251953125 392.96875 35.3251953125 392.96875 50.1689453125 409.765625 c 128,-1,5
 65.0126953125 426.5625 65.0126953125 426.5625 86.8876953125 426.5625 c 0,6,7
 111.106445312 426.5625 111.106445312 426.5625 127.903320312 409.765625 c 128,-1,8
 144.700195312 392.96875 144.700195312 392.96875 144.700195312 369.53125 c 0,9,10
 144.700195312 345.3125 144.700195312 345.3125 127.903320312 328.515625 c 128,-1,11
 111.106445312 311.71875 111.106445312 311.71875 86.8876953125 311.71875 c 0,0,1
86.8876953125 83.59375 m 0,12,13
 65.0126953125 83.59375 65.0126953125 83.59375 50.1689453125 100 c 128,-1,14
 35.3251953125 116.40625 35.3251953125 116.40625 35.3251953125 140.625 c 0,15,16
 35.3251953125 164.0625 35.3251953125 164.0625 50.1689453125 180.859375 c 128,-1,17
 65.0126953125 197.65625 65.0126953125 197.65625 86.8876953125 197.65625 c 0,18,19
 111.106445312 197.65625 111.106445312 197.65625 127.903320312 180.859375 c 128,-1,20
 144.700195312 164.0625 144.700195312 164.0625 144.700195312 140.625 c 0,21,22
 144.700195312 116.40625 144.700195312 116.40625 127.903320312 100 c 128,-1,23
 111.106445312 83.59375 111.106445312 83.59375 86.8876953125 83.59375 c 0,12,13
EndSplineSet
Fore
SplineSet
79 285 m 1
 79 285 36 329 36 329 c 1
 36 329 79 372 79 372 c 1
 79 372 122 329 122 329 c 1
 122 329 79 285 79 285 c 1
79 92 m 1
 79 92 36 136 36 136 c 1
 36 136 79 179 79 179 c 1
 79 179 122 136 122 136 c 1
 122 136 79 92 79 92 c 1
EndSplineSet
Layer: 2
Layer: 3
Layer: 4
EndChar

StartChar: ashortdeva
Encoding: 201 2308 52
Width: 648
VWidth: 800
GlyphClass: 2
Flags: HMW
AnchorPoint: "DVAnchor3" 585 518 basechar 0
LayerCount: 5
Back
SplineSet
295.005859375 36.71875 m 0,0,1
 232.505859375 36.71875 232.505859375 36.71875 173.912109375 88.671875 c 128,-1,2
 115.318359375 140.625 115.318359375 140.625 71.568359375 234.375 c 1,3,-1
 109.849609375 256.25 l 1,4,5
 147.349609375 176.5625 147.349609375 176.5625 195.787109375 132.421875 c 128,-1,6
 244.224609375 88.28125 244.224609375 88.28125 295.005859375 88.28125 c 0,7,8
 327.037109375 88.28125 327.037109375 88.28125 350.083984375 112.109375 c 128,-1,9
 373.130859375 135.9375 373.130859375 135.9375 373.130859375 170.3125 c 0,10,11
 373.130859375 212.5 373.130859375 212.5 346.958984375 241.40625 c 128,-1,12
 320.787109375 270.3125 320.787109375 270.3125 284.849609375 270.3125 c 0,13,14
 273.130859375 270.3125 273.130859375 270.3125 260.240234375 267.96875 c 128,-1,15
 247.349609375 265.625 247.349609375 265.625 232.505859375 260.15625 c 1,16,-1
 211.412109375 307.03125 l 1,17,18
 258.287109375 310.9375 258.287109375 310.9375 294.224609375 339.453125 c 128,-1,19
 330.162109375 367.96875 330.162109375 367.96875 330.162109375 400.78125 c 0,20,21
 330.162109375 430.46875 330.162109375 430.46875 312.193359375 451.953125 c 128,-1,22
 294.224609375 473.4375 294.224609375 473.4375 269.224609375 473.4375 c 0,23,24
 238.755859375 473.4375 238.755859375 473.4375 205.943359375 454.296875 c 128,-1,25
 173.130859375 435.15625 173.130859375 435.15625 144.224609375 400.78125 c 1,26,-1
 107.505859375 436.71875 l 1,27,28
 134.849609375 476.5625 134.849609375 476.5625 177.427734375 498.4375 c 128,-1,29
 220.005859375 520.3125 220.005859375 520.3125 269.224609375 520.3125 c 0,30,31
 316.880859375 520.3125 316.880859375 520.3125 350.083984375 485.546875 c 128,-1,32
 383.287109375 450.78125 383.287109375 450.78125 383.287109375 400.78125 c 0,33,34
 383.287109375 374.21875 383.287109375 374.21875 370.787109375 350 c 128,-1,35
 358.287109375 325.78125 358.287109375 325.78125 336.412109375 307.03125 c 1,36,37
 376.255859375 284.375 376.255859375 284.375 406.724609375 272.265625 c 128,-1,38
 437.193359375 260.15625 437.193359375 260.15625 455.943359375 260.15625 c 0,39,40
 467.662109375 260.15625 467.662109375 260.15625 484.849609375 266.796875 c 128,-1,41
 502.037109375 273.4375 502.037109375 273.4375 523.912109375 285.9375 c 1,42,-1
 523.912109375 473.4375 l 1,43,-1
 430.162109375 473.4375 l 1,44,-1
 430.162109375 520.3125 l 1,45,-1
 527.037109375 520.3125 l 1,46,47
 527.037109375 564.84375 527.037109375 564.84375 496.568359375 597.265625 c 128,-1,48
 466.099609375 629.6875 466.099609375 629.6875 423.130859375 629.6875 c 0,49,50
 366.099609375 629.6875 366.099609375 629.6875 321.958984375 669.140625 c 128,-1,51
 277.818359375 708.59375 277.818359375 708.59375 266.880859375 770.3125 c 1,52,-1
 319.224609375 770.3125 l 1,53,54
 326.255859375 727.34375 326.255859375 727.34375 355.943359375 699.21875 c 128,-1,55
 385.630859375 671.09375 385.630859375 671.09375 423.130859375 671.09375 c 0,56,57
 487.974609375 671.09375 487.974609375 671.09375 533.677734375 626.953125 c 128,-1,58
 579.380859375 582.8125 579.380859375 582.8125 579.380859375 520.3125 c 1,59,-1
 664.537109375 520.3125 l 1,60,-1
 664.537109375 473.4375 l 1,61,-1
 575.474609375 473.4375 l 1,62,-1
 575.474609375 0 l 1,63,-1
 523.912109375 0 l 1,64,-1
 523.912109375 234.375 l 1,65,66
 511.412109375 223.4375 511.412109375 223.4375 498.521484375 218.359375 c 128,-1,67
 485.630859375 213.28125 485.630859375 213.28125 471.568359375 213.28125 c 0,68,69
 449.693359375 213.28125 449.693359375 213.28125 432.115234375 217.578125 c 128,-1,70
 414.537109375 221.875 414.537109375 221.875 404.380859375 228.90625 c 1,71,72
 414.537109375 220.3125 414.537109375 220.3125 419.615234375 205.46875 c 128,-1,73
 424.693359375 190.625 424.693359375 190.625 424.693359375 171.875 c 0,74,75
 424.693359375 115.625 424.693359375 115.625 386.802734375 76.171875 c 128,-1,76
 348.912109375 36.71875 348.912109375 36.71875 295.005859375 36.71875 c 0,0,1
EndSplineSet
Fore
SplineSet
375 182 m 0
 375 108 311 59 237 59 c 0
 139 59 57 134 24 212 c 1
 24 212 64 230 64 230 c 1
 91 168 157 103 237 103 c 0
 286 103 331 133 331 182 c 0
 331 260 263 266 193 266 c 2
 193 266 185 266 185 266 c 1
 185 266 185 309 185 309 c 1
 185 309 193 309 193 309 c 2
 262 309 286 346 286 378 c 0
 286 416 250 443 210 443 c 0
 169 443 136 419 118 393 c 1
 118 393 82 417 82 417 c 1
 107 454 153 487 210 487 c 0
 273 487 330 441 330 378 c 0
 330 348 315 319 297 301 c 1
 310 295 324 284 334 274 c 0
 353 256 380 245 406 245 c 0
 448 245 477 269 493 290 c 1
 493 290 493 419 493 419 c 1
 493 419 402 419 402 419 c 1
 402 419 402 463 402 463 c 1
 402 463 493 463 493 463 c 1
 493 509 481 518 434 518 c 2
 434 518 347 518 347 518 c 2
 281 518 244 553 244 618 c 1
 244 618 288 618 288 618 c 1
 288 572 301 563 347 563 c 2
 347 563 434 563 434 563 c 2
 500 563 537 528 537 463 c 1
 537 463 665 463 665 463 c 1
 665 463 665 419 665 419 c 1
 665 419 537 419 537 419 c 1
 537 419 537 66 537 66 c 2
 537 51 549 38 564 38 c 0
 574 38 582 42 587 50 c 1
 587 50 624 26 624 26 c 1
 610 5 590 -6 564 -6 c 0
 523 -6 493 28 493 66 c 2
 493 66 493 233 493 233 c 1
 468 215 437 205 406 205 c 0
 395 205 383 207 373 209 c 1
 375 202 375 193 375 182 c 0
EndSplineSet
Layer: 2
Layer: 3
Layer: 4
SplineSet
492.799804688 277.599609375 m 5
 492.799804688 277.599609375 492.799804688 419.200195312 492.799804688 419.200195312 c 5
 492.799804688 419.200195312 401.599609375 419.200195312 401.599609375 419.200195312 c 5
 401.599609375 419.200195312 401.599609375 463.200195312 401.599609375 463.200195312 c 5
 401.599609375 463.200195312 664.799804688 463.200195312 664.799804688 463.200195312 c 5
 664.799804688 463.200195312 664.799804688 419.200195312 664.799804688 419.200195312 c 5
 664.799804688 419.200195312 536.799804688 419.200195312 536.799804688 419.200195312 c 5
 536.799804688 419.200195312 536.799804688 65.599609375 536.799804688 65.599609375 c 6
 536.799804688 50.400390625 548.799804688 38.400390625 564 38.400390625 c 4
 574.400390625 38.400390625 582.400390625 42.400390625 587.200195312 50.400390625 c 5
 587.200195312 50.400390625 624 25.599609375 624 25.599609375 c 5
 609.599609375 4.7998046875 589.599609375 -5.599609375 564 -5.599609375 c 4
 523.200195312 -5.599609375 492.799804688 27.2001953125 492.799804688 65.599609375 c 6
 492.799804688 65.599609375 492.799804688 277.599609375 492.799804688 277.599609375 c 5
375.200195312 182.400390625 m 4
 375.200195312 108.799804688 310.400390625 59.2001953125 236.799804688 59.2001953125 c 4
 138.400390625 59.2001953125 56.7998046875 134.400390625 24 212 c 5
 24 212 64 229.599609375 64 229.599609375 c 5
 91.2001953125 167.200195312 156.799804688 103.200195312 236.799804688 103.200195312 c 4
 285.599609375 103.200195312 331.200195312 133.599609375 331.200195312 182.400390625 c 4
 331.200195312 260.799804688 262.400390625 265.599609375 192.799804688 265.599609375 c 6
 192.799804688 265.599609375 184.799804688 265.599609375 184.799804688 265.599609375 c 5
 184.799804688 265.599609375 184.799804688 308.799804688 184.799804688 308.799804688 c 5
 184.799804688 308.799804688 192.799804688 308.799804688 192.799804688 308.799804688 c 6
 261.599609375 308.799804688 285.599609375 345.599609375 285.599609375 377.599609375 c 4
 285.599609375 416 249.599609375 443.200195312 209.599609375 443.200195312 c 4
 168.799804688 443.200195312 136 419.200195312 118.400390625 392.799804688 c 5
 118.400390625 392.799804688 81.599609375 416.799804688 81.599609375 416.799804688 c 5
 106.400390625 453.599609375 152.799804688 487.200195312 209.599609375 487.200195312 c 4
 272.799804688 487.200195312 329.599609375 440.799804688 329.599609375 377.599609375 c 4
 329.599609375 348 315.200195312 319.200195312 296.799804688 300.799804688 c 5
 309.772460938 295.124023438 324.134765625 284.665039062 334.400390625 274.400390625 c 4
 353.599609375 256 380 244.799804688 405.599609375 244.799804688 c 4
 448.799804688 244.799804688 478.400390625 272 494.400390625 292.799804688 c 5
 494.400390625 292.799804688 513.599609375 251.200195312 513.599609375 251.200195312 c 5
 486.400390625 222.400390625 446.400390625 204.799804688 405.599609375 204.799804688 c 4
 394.39453125 204.799804688 383.3046875 206.134765625 372.549804688 208.665039062 c 5
 374.217773438 201.4921875 375.200195312 193.255859375 375.200195312 182.400390625 c 4
492.799804688 463.200195312 m 6
 492.799804688 509.104492188 481.052734375 518.400390625 433.599609375 518.400390625 c 6
 433.599609375 518.400390625 347.200195312 518.400390625 347.200195312 518.400390625 c 6
 281.029296875 518.400390625 244 553.561523438 244 618.400390625 c 5
 244 618.400390625 288 618.400390625 288 618.400390625 c 5
 288 572.876953125 300.470703125 563.200195312 347.200195312 563.200195312 c 6
 347.200195312 563.200195312 433.599609375 563.200195312 433.599609375 563.200195312 c 6
 499.770507812 563.200195312 536.799804688 528.038085938 536.799804688 463.200195312 c 6
 536.799804688 463.200195312 536.799804688 451.200195312 536.799804688 451.200195312 c 5
 536.799804688 451.200195312 492.799804688 451.200195312 492.799804688 451.200195312 c 5
 492.799804688 451.200195312 492.799804688 463.200195312 492.799804688 463.200195312 c 6
EndSplineSet
EndChar

StartChar: adeva
Encoding: 202 2309 53
Width: 648
VWidth: 800
GlyphClass: 2
Flags: HMW
AnchorPoint: "DVAnchor3" 513 460 basechar 0
LayerCount: 5
Back
SplineSet
329.017578125 36.71875 m 4,0,1
 266.517578125 36.71875 266.517578125 36.71875 207.923828125 88.671875 c 132,-1,2
 149.330078125 140.625 149.330078125 140.625 105.580078125 234.375 c 5,3,-1
 143.861328125 256.25 l 5,4,5
 181.361328125 176.5625 181.361328125 176.5625 229.798828125 132.421875 c 132,-1,6
 278.236328125 88.28125 278.236328125 88.28125 329.017578125 88.28125 c 4,7,8
 361.048828125 88.28125 361.048828125 88.28125 384.095703125 112.109375 c 132,-1,9
 407.142578125 135.9375 407.142578125 135.9375 407.142578125 170.3125 c 4,10,11
 407.142578125 212.5 407.142578125 212.5 380.970703125 241.40625 c 132,-1,12
 354.798828125 270.3125 354.798828125 270.3125 318.861328125 270.3125 c 4,13,14
 307.142578125 270.3125 307.142578125 270.3125 294.251953125 267.96875 c 132,-1,15
 281.361328125 265.625 281.361328125 265.625 266.517578125 260.15625 c 5,16,-1
 245.423828125 307.03125 l 5,17,18
 292.298828125 310.9375 292.298828125 310.9375 328.236328125 339.453125 c 132,-1,19
 364.173828125 367.96875 364.173828125 367.96875 364.173828125 400.78125 c 4,20,21
 364.173828125 430.46875 364.173828125 430.46875 346.205078125 451.953125 c 132,-1,22
 328.236328125 473.4375 328.236328125 473.4375 303.236328125 473.4375 c 4,23,24
 272.767578125 473.4375 272.767578125 473.4375 239.955078125 454.296875 c 132,-1,25
 207.142578125 435.15625 207.142578125 435.15625 178.236328125 400.78125 c 5,26,-1
 141.517578125 436.71875 l 5,27,28
 168.861328125 476.5625 168.861328125 476.5625 211.439453125 498.4375 c 132,-1,29
 254.017578125 520.3125 254.017578125 520.3125 303.236328125 520.3125 c 4,30,31
 350.892578125 520.3125 350.892578125 520.3125 384.095703125 485.546875 c 132,-1,32
 417.298828125 450.78125 417.298828125 450.78125 417.298828125 400.78125 c 4,33,34
 417.298828125 374.21875 417.298828125 374.21875 404.798828125 350 c 132,-1,35
 392.298828125 325.78125 392.298828125 325.78125 370.423828125 307.03125 c 5,36,37
 410.267578125 284.375 410.267578125 284.375 440.736328125 272.265625 c 132,-1,38
 471.205078125 260.15625 471.205078125 260.15625 489.955078125 260.15625 c 4,39,40
 501.673828125 260.15625 501.673828125 260.15625 518.861328125 266.796875 c 132,-1,41
 536.048828125 273.4375 536.048828125 273.4375 557.923828125 285.9375 c 5,42,-1
 557.923828125 473.4375 l 5,43,-1
 464.173828125 473.4375 l 5,44,-1
 464.173828125 520.3125 l 5,45,-1
 698.548828125 520.3125 l 5,46,-1
 698.548828125 473.4375 l 5,47,-1
 609.486328125 473.4375 l 5,48,-1
 609.486328125 0 l 5,49,-1
 557.923828125 0 l 5,50,-1
 557.923828125 234.375 l 5,51,52
 545.423828125 223.4375 545.423828125 223.4375 532.533203125 218.359375 c 132,-1,53
 519.642578125 213.28125 519.642578125 213.28125 505.580078125 213.28125 c 4,54,55
 483.705078125 213.28125 483.705078125 213.28125 466.126953125 217.578125 c 132,-1,56
 448.548828125 221.875 448.548828125 221.875 438.392578125 228.90625 c 5,57,58
 448.548828125 220.3125 448.548828125 220.3125 453.626953125 205.46875 c 132,-1,59
 458.705078125 190.625 458.705078125 190.625 458.705078125 171.875 c 4,60,61
 458.705078125 115.625 458.705078125 115.625 420.814453125 76.171875 c 132,-1,62
 382.923828125 36.71875 382.923828125 36.71875 329.017578125 36.71875 c 4,0,1
EndSplineSet
Fore
SplineSet
375 182 m 0
 375 108 311 59 237 59 c 0
 139 59 57 134 24 212 c 1
 24 212 64 230 64 230 c 1
 91 168 157 103 237 103 c 0
 286 103 331 133 331 182 c 0
 331 260 263 266 193 266 c 2
 193 266 185 266 185 266 c 1
 185 266 185 309 185 309 c 1
 185 309 193 309 193 309 c 2
 262 309 286 346 286 378 c 0
 286 416 250 443 210 443 c 0
 169 443 136 419 118 393 c 1
 118 393 82 417 82 417 c 1
 107 454 153 487 210 487 c 0
 273 487 330 441 330 378 c 0
 330 348 315 319 297 301 c 1
 310 295 324 284 334 274 c 0
 353 256 380 245 406 245 c 0
 448 245 477 269 493 290 c 1
 493 290 493 419 493 419 c 1
 493 419 402 419 402 419 c 1
 402 419 402 463 402 463 c 1
 402 463 665 463 665 463 c 1
 665 463 665 419 665 419 c 1
 665 419 537 419 537 419 c 1
 537 419 537 66 537 66 c 2
 537 51 549 38 564 38 c 0
 574 38 582 42 587 50 c 1
 587 50 624 26 624 26 c 1
 610 5 590 -6 564 -6 c 0
 523 -6 493 28 493 66 c 2
 493 66 493 233 493 233 c 1
 468 215 437 205 406 205 c 0
 395 205 383 207 373 209 c 1
 375 202 375 193 375 182 c 0
EndSplineSet
Layer: 2
SplineSet
333.599609375 265.599609375 m 4
 356.849609375 240.072265625 391.072265625 224.895507812 425.599609375 224.799804688 c 4
 459.629882812 224.706054688 493.455078125 239.244140625 516.803710938 264 c 1028
263.204101562 293.599609375 m 0
 282.291015625 292.0390625 301.016601562 286.118164062 317.500976562 276.369140625 c 0
 333.985351562 266.62109375 348.250976562 253.038085938 358.404296875 236.799804688 c 0
 369.411132812 219.197265625 375.430664062 198.334960938 374.404296875 177.599609375 c 0
 373.700195312 163.3828125 369.70703125 149.342773438 362.84375 136.873046875 c 0
 355.98046875 124.401367188 346.294921875 113.53515625 334.881835938 105.028320312 c 0
 312.056640625 88.013671875 282.861328125 80.787109375 254.404296875 81.599609375 c 0
 206.383789062 82.970703125 160.314453125 105.244140625 124.803710938 137.599609375 c 0
 99.455078125 160.697265625 79.17578125 189.306640625 65.603515625 220.799804688 c 1024
121.603515625 404.799804688 m 0
 134.037109375 423.184570312 150.934570312 438.543945312 170.467773438 449.079101562 c 0
 189.138671875 459.1484375 210.256835938 464.836914062 231.459960938 464.836914062 c 0
 232.44140625 464.836914062 233.422851562 464.82421875 234.404296875 464.799804688 c 0
 257.759765625 464.216796875 281.197265625 456.357421875 298.953125 441.170898438 c 0
 317.215820312 425.549804688 328.841796875 402.572265625 328.841796875 377.549804688 c 0
 328.841796875 358.955078125 322.373046875 340.482421875 311.204101562 325.599609375 c 0
 300.337890625 311.120117188 285.041015625 300.08203125 267.986328125 294.009765625 c 0
 250.931640625 287.935546875 232.506835938 287.200195312 214.404296875 287.200195312 c 2
 214.404296875 287.200195312 197.603515625 287.200195312 197.603515625 287.200195312 c 1025
EndSplineSet
Layer: 3
SplineSet
488.103515625 277.018554688 m 5
 488.103515625 277.018554688 521.504882812 250.981445312 521.504882812 250.981445312 c 5
 494.245117188 222.080078125 454.728515625 204.799804688 413.926757812 204.799804688 c 4
 372.129882812 204.799804688 331.920898438 222.90625 304.654296875 252.845703125 c 5
 304.654296875 252.845703125 336 276.799804688 336 276.799804688 c 5
 336 276.799804688 341.028320312 275.553710938 342.400390625 274.21484375 c 5
 361.5546875 255.517578125 388.081054688 244.799804688 413.926757812 244.799804688 c 4
 440.962890625 244.799804688 468.8125 256.567382812 488.103515625 277.018554688 c 5
EndSplineSet
Layer: 4
SplineSet
492.799804688 277.599609375 m 1
 492.799804688 277.599609375 492.799804688 419.200195312 492.799804688 419.200195312 c 1
 492.799804688 419.200195312 401.599609375 419.200195312 401.599609375 419.200195312 c 1
 401.599609375 419.200195312 401.599609375 463.200195312 401.599609375 463.200195312 c 1
 401.599609375 463.200195312 664.799804688 463.200195312 664.799804688 463.200195312 c 1
 664.799804688 463.200195312 664.799804688 419.200195312 664.799804688 419.200195312 c 1
 664.799804688 419.200195312 536.799804688 419.200195312 536.799804688 419.200195312 c 1
 536.799804688 419.200195312 536.799804688 65.599609375 536.799804688 65.599609375 c 2
 536.799804688 50.400390625 548.799804688 38.400390625 564 38.400390625 c 0
 574.400390625 38.400390625 582.400390625 42.400390625 587.200195312 50.400390625 c 1
 587.200195312 50.400390625 624 25.599609375 624 25.599609375 c 1
 609.599609375 4.7998046875 589.599609375 -5.599609375 564 -5.599609375 c 0
 523.200195312 -5.599609375 492.799804688 27.2001953125 492.799804688 65.599609375 c 2
 492.799804688 65.599609375 492.799804688 277.599609375 492.799804688 277.599609375 c 1
375.200195312 182.400390625 m 0
 375.200195312 108.799804688 310.400390625 59.2001953125 236.799804688 59.2001953125 c 0
 138.400390625 59.2001953125 56.7998046875 134.400390625 24 212 c 1
 24 212 64 229.599609375 64 229.599609375 c 1
 91.2001953125 167.200195312 156.799804688 103.200195312 236.799804688 103.200195312 c 0
 285.599609375 103.200195312 331.200195312 133.599609375 331.200195312 182.400390625 c 0
 331.200195312 260.799804688 262.400390625 265.599609375 192.799804688 265.599609375 c 2
 192.799804688 265.599609375 184.799804688 265.599609375 184.799804688 265.599609375 c 1
 184.799804688 265.599609375 184.799804688 308.799804688 184.799804688 308.799804688 c 1
 184.799804688 308.799804688 192.799804688 308.799804688 192.799804688 308.799804688 c 2
 261.599609375 308.799804688 285.599609375 345.599609375 285.599609375 377.599609375 c 0
 285.599609375 416 249.599609375 443.200195312 209.599609375 443.200195312 c 0
 168.799804688 443.200195312 136 419.200195312 118.400390625 392.799804688 c 1
 118.400390625 392.799804688 81.599609375 416.799804688 81.599609375 416.799804688 c 1
 106.400390625 453.599609375 152.799804688 487.200195312 209.599609375 487.200195312 c 0
 272.799804688 487.200195312 329.599609375 440.799804688 329.599609375 377.599609375 c 0
 329.599609375 348 315.200195312 319.200195312 296.799804688 300.799804688 c 1
 309.772460938 295.125 324.134765625 284.665039062 334.400390625 274.400390625 c 0
 353.599609375 256 380 244.799804688 405.599609375 244.799804688 c 0
 448.799804688 244.799804688 478.400390625 272 494.400390625 292.799804688 c 1
 494.400390625 292.799804688 513.599609375 251.200195312 513.599609375 251.200195312 c 1
 486.400390625 222.400390625 446.400390625 204.799804688 405.599609375 204.799804688 c 0
 394.39453125 204.799804688 383.3046875 206.134765625 372.549804688 208.6640625 c 1
 374.217773438 201.4921875 375.200195312 193.254882812 375.200195312 182.400390625 c 0
EndSplineSet
EndChar

StartChar: aadeva
Encoding: 203 2310 54
Width: 834
VWidth: 800
GlyphClass: 2
Flags: HMW
LayerCount: 5
Back
SplineSet
329.798828125 36.71875 m 0,0,1
 267.298828125 36.71875 267.298828125 36.71875 208.705078125 88.671875 c 128,-1,2
 150.111328125 140.625 150.111328125 140.625 106.361328125 234.375 c 1,3,-1
 143.080078125 265.625 l 1,4,5
 182.142578125 181.25 182.142578125 181.25 230.970703125 134.765625 c 128,-1,6
 279.798828125 88.28125 279.798828125 88.28125 329.798828125 88.28125 c 0,7,8
 362.611328125 88.28125 362.611328125 88.28125 385.267578125 116.015625 c 128,-1,9
 407.923828125 143.75 407.923828125 143.75 407.923828125 182.03125 c 0,10,11
 407.923828125 218.75 407.923828125 218.75 382.142578125 244.53125 c 128,-1,12
 356.361328125 270.3125 356.361328125 270.3125 319.642578125 270.3125 c 0,13,14
 307.923828125 270.3125 307.923828125 270.3125 295.033203125 267.96875 c 128,-1,15
 282.142578125 265.625 282.142578125 265.625 267.298828125 260.15625 c 1,16,-1
 246.986328125 307.03125 l 1,17,18
 293.861328125 310.9375 293.861328125 310.9375 330.189453125 341.015625 c 128,-1,19
 366.517578125 371.09375 366.517578125 371.09375 366.517578125 405.46875 c 0,20,21
 366.517578125 433.59375 366.517578125 433.59375 345.033203125 453.515625 c 128,-1,22
 323.548828125 473.4375 323.548828125 473.4375 293.861328125 473.4375 c 0,23,24
 268.861328125 473.4375 268.861328125 473.4375 238.392578125 454.296875 c 128,-1,25
 207.923828125 435.15625 207.923828125 435.15625 179.017578125 400.78125 c 1,26,-1
 143.080078125 436.71875 l 1,27,28
 169.642578125 476.5625 169.642578125 476.5625 209.876953125 498.4375 c 128,-1,29
 250.111328125 520.3125 250.111328125 520.3125 293.861328125 520.3125 c 0,30,31
 345.423828125 520.3125 345.423828125 520.3125 381.751953125 487.109375 c 128,-1,32
 418.080078125 453.90625 418.080078125 453.90625 418.080078125 405.46875 c 0,33,34
 418.080078125 377.34375 418.080078125 377.34375 405.580078125 351.5625 c 128,-1,35
 393.080078125 325.78125 393.080078125 325.78125 371.986328125 307.03125 c 1,36,37
 407.142578125 285.9375 407.142578125 285.9375 441.517578125 275.78125 c 128,-1,38
 475.892578125 265.625 475.892578125 265.625 507.142578125 265.625 c 0,39,40
 514.955078125 265.625 514.955078125 265.625 528.236328125 270.703125 c 128,-1,41
 541.517578125 275.78125 541.517578125 275.78125 558.705078125 285.9375 c 1,42,-1
 558.705078125 473.4375 l 1,43,-1
 464.955078125 473.4375 l 1,44,-1
 464.955078125 520.3125 l 1,45,-1
 912.611328125 520.3125 l 1,46,-1
 912.611328125 473.4375 l 1,47,-1
 824.330078125 473.4375 l 1,48,-1
 824.330078125 0 l 1,49,-1
 771.986328125 0 l 1,50,-1
 771.986328125 473.4375 l 1,51,-1
 611.048828125 473.4375 l 1,52,-1
 611.048828125 0 l 1,53,-1
 558.705078125 0 l 1,54,-1
 558.705078125 234.375 l 1,55,56
 546.205078125 223.4375 546.205078125 223.4375 533.314453125 218.359375 c 128,-1,57
 520.423828125 213.28125 520.423828125 213.28125 507.142578125 213.28125 c 0,58,59
 485.267578125 213.28125 485.267578125 213.28125 467.298828125 217.578125 c 128,-1,60
 449.330078125 221.875 449.330078125 221.875 439.173828125 228.90625 c 1,61,62
 449.330078125 220.3125 449.330078125 220.3125 454.798828125 205.46875 c 128,-1,63
 460.267578125 190.625 460.267578125 190.625 460.267578125 171.875 c 0,64,65
 460.267578125 115.625 460.267578125 115.625 422.376953125 76.171875 c 128,-1,66
 384.486328125 36.71875 384.486328125 36.71875 329.798828125 36.71875 c 0,0,1
EndSplineSet
Fore
SplineSet
750 -6 m 0
 711 -6 678 27 678 66 c 2
 678 66 678 419 678 419 c 1
 678 419 665 419 665 419 c 1
 665 419 595 419 595 419 c 1
 595 419 537 419 537 419 c 1
 537 419 537 66 537 66 c 2
 537 51 549 38 564 38 c 0
 574 38 582 42 587 50 c 1
 587 50 624 26 624 26 c 1
 610 5 590 -6 564 -6 c 0
 523 -6 493 28 493 66 c 2
 493 66 493 233 493 233 c 1
 468 215 437 205 406 205 c 0
 395 205 383 207 373 209 c 1
 375 202 375 193 375 182 c 0
 375 108 311 59 237 59 c 0
 139 59 57 134 24 212 c 1
 24 212 64 230 64 230 c 1
 91 168 157 103 237 103 c 0
 286 103 331 133 331 182 c 0
 331 260 263 266 193 266 c 2
 193 266 185 266 185 266 c 1
 185 266 185 309 185 309 c 1
 185 309 193 309 193 309 c 2
 262 309 286 346 286 378 c 0
 286 416 250 443 210 443 c 0
 169 443 136 419 118 393 c 1
 118 393 82 417 82 417 c 1
 107 454 153 487 210 487 c 0
 273 487 330 441 330 378 c 0
 330 348 315 319 297 301 c 1
 310 295 324 284 334 274 c 0
 353 256 380 245 406 245 c 0
 448 245 477 269 493 290 c 1
 493 290 493 419 493 419 c 1
 493 419 402 419 402 419 c 1
 402 419 402 463 402 463 c 1
 402 463 595 463 595 463 c 1
 595 463 665 463 665 463 c 1
 665 463 850 463 850 463 c 1
 850 463 850 419 850 419 c 1
 850 419 722 419 722 419 c 1
 722 419 722 66 722 66 c 2
 722 51 735 38 750 38 c 0
 760 38 768 42 773 50 c 1
 773 50 810 26 810 26 c 1
 796 5 776 -6 750 -6 c 0
EndSplineSet
Layer: 2
SplineSet
728.799804688 598.400390625 m 4
 728.799804688 544 676 507.200195312 621.599609375 507.200195312 c 4
 567.200195312 507.200195312 514.400390625 544 514.400390625 598.400390625 c 1028
EndSplineSet
Layer: 3
Layer: 4
SplineSet
492.799804688 277.599609375 m 5
 492.799804688 277.599609375 492.799804688 419.200195312 492.799804688 419.200195312 c 5
 492.799804688 419.200195312 401.599609375 419.200195312 401.599609375 419.200195312 c 5
 401.599609375 419.200195312 401.599609375 463.200195312 401.599609375 463.200195312 c 5
 401.599609375 463.200195312 664.799804688 463.200195312 664.799804688 463.200195312 c 5
 664.799804688 463.200195312 664.799804688 419.200195312 664.799804688 419.200195312 c 5
 664.799804688 419.200195312 536.799804688 419.200195312 536.799804688 419.200195312 c 5
 536.799804688 419.200195312 536.799804688 65.599609375 536.799804688 65.599609375 c 6
 536.799804688 50.400390625 548.799804688 38.400390625 564 38.400390625 c 4
 574.400390625 38.400390625 582.400390625 42.400390625 587.200195312 50.400390625 c 5
 587.200195312 50.400390625 624 25.599609375 624 25.599609375 c 5
 609.599609375 4.7998046875 589.599609375 -5.599609375 564 -5.599609375 c 4
 523.200195312 -5.599609375 492.799804688 27.2001953125 492.799804688 65.599609375 c 6
 492.799804688 65.599609375 492.799804688 277.599609375 492.799804688 277.599609375 c 5
375.200195312 182.400390625 m 4
 375.200195312 108.799804688 310.400390625 59.2001953125 236.799804688 59.2001953125 c 4
 138.400390625 59.2001953125 56.7998046875 134.400390625 24 212 c 5
 24 212 64 229.599609375 64 229.599609375 c 5
 91.2001953125 167.200195312 156.799804688 103.200195312 236.799804688 103.200195312 c 4
 285.599609375 103.200195312 331.200195312 133.599609375 331.200195312 182.400390625 c 4
 331.200195312 260.799804688 262.400390625 265.599609375 192.799804688 265.599609375 c 6
 192.799804688 265.599609375 184.799804688 265.599609375 184.799804688 265.599609375 c 5
 184.799804688 265.599609375 184.799804688 308.799804688 184.799804688 308.799804688 c 5
 184.799804688 308.799804688 192.799804688 308.799804688 192.799804688 308.799804688 c 6
 261.599609375 308.799804688 285.599609375 345.599609375 285.599609375 377.599609375 c 4
 285.599609375 416 249.599609375 443.200195312 209.599609375 443.200195312 c 4
 168.799804688 443.200195312 136 419.200195312 118.400390625 392.799804688 c 5
 118.400390625 392.799804688 81.599609375 416.799804688 81.599609375 416.799804688 c 5
 106.400390625 453.599609375 152.799804688 487.200195312 209.599609375 487.200195312 c 4
 272.799804688 487.200195312 329.599609375 440.799804688 329.599609375 377.599609375 c 4
 329.599609375 348 315.200195312 319.200195312 296.799804688 300.799804688 c 5
 309.772460938 295.124023438 324.134765625 284.665039062 334.400390625 274.400390625 c 4
 353.599609375 256 380 244.799804688 405.599609375 244.799804688 c 4
 448.799804688 244.799804688 478.400390625 272 494.400390625 292.799804688 c 5
 494.400390625 292.799804688 513.599609375 251.200195312 513.599609375 251.200195312 c 5
 486.400390625 222.400390625 446.400390625 204.799804688 405.599609375 204.799804688 c 4
 394.39453125 204.799804688 383.3046875 206.134765625 372.549804688 208.665039062 c 5
 374.217773438 201.4921875 375.200195312 193.255859375 375.200195312 182.400390625 c 4
749.599609375 -5.599609375 m 4
 710.400390625 -5.599609375 678.400390625 26.400390625 678.400390625 65.599609375 c 6
 678.400390625 65.599609375 678.400390625 419.200195312 678.400390625 419.200195312 c 5
 678.400390625 419.200195312 595.200195312 419.200195312 595.200195312 419.200195312 c 5
 595.200195312 419.200195312 595.200195312 463.200195312 595.200195312 463.200195312 c 5
 595.200195312 463.200195312 850.400390625 463.200195312 850.400390625 463.200195312 c 5
 850.400390625 463.200195312 850.400390625 419.200195312 850.400390625 419.200195312 c 5
 850.400390625 419.200195312 722.400390625 419.200195312 722.400390625 419.200195312 c 5
 722.400390625 419.200195312 722.400390625 65.599609375 722.400390625 65.599609375 c 6
 722.400390625 50.400390625 734.400390625 38.400390625 749.599609375 38.400390625 c 4
 760 38.400390625 768 42.400390625 772.799804688 50.400390625 c 5
 772.799804688 50.400390625 809.599609375 25.599609375 809.599609375 25.599609375 c 5
 795.200195312 4.7998046875 775.200195312 -5.599609375 749.599609375 -5.599609375 c 4
EndSplineSet
EndChar

StartChar: ideva
Encoding: 204 2311 55
Width: 428
VWidth: 800
GlyphClass: 2
Flags: HMW
LayerCount: 5
Back
SplineSet
162.325195312 182.973632812 m 5,0,-1
 162.325195312 226.973632812 l 5,1,-1
 248.724609375 226.973632812 l 6,2,3
 278.51953125 226.973632812 278.51953125 226.973632812 294.583984375 224.649414062 c 4,4,5
 321.67578125 220.729492188 321.67578125 220.729492188 342.674804688 208.967773438 c 4,6,7
 371.462890625 192.845703125 371.462890625 192.845703125 386.653320312 164.521484375 c 4,8,9
 399.768554688 140.068359375 399.768554688 140.068359375 399.768554688 111.657226562 c 4,10,11
 399.768554688 107.508789062 399.768554688 107.508789062 399.466796875 103.369140625 c 4,12,13
 395.64453125 51.087890625 395.64453125 51.087890625 353.287109375 16.671875 c 4,14,15
 315.091796875 -14.3623046875 315.091796875 -14.3623046875 262.026367188 -14.6279296875 c 4,16,17
 210.474609375 -14.6279296875 210.474609375 -14.6279296875 154.615234375 17.0537109375 c 4,18,19
 82.73046875 57.8251953125 82.73046875 57.8251953125 6.701171875 143.135742188 c 5,20,-1
 39.548828125 172.411132812 l 5,21,22
 110.752929688 92.515625 110.752929688 92.515625 176.322265625 55.326171875 c 4,23,24
 222.083984375 29.3720703125 222.083984375 29.3720703125 261.916015625 29.3720703125 c 4,25,26
 299.372070312 29.55859375 299.372070312 29.55859375 325.541015625 50.8212890625 c 4,27,28
 353.147460938 73.2509765625 353.147460938 73.2509765625 355.583984375 106.577148438 c 4,29,30
 355.744140625 109.510742188 355.744140625 109.510742188 355.768554688 111.657226562 c 4,31,32
 355.768554688 129.012695312 355.768554688 129.012695312 347.877929688 143.725585938 c 4,33,34
 338.7578125 160.731445312 338.7578125 160.731445312 321.174804688 170.579101562 c 4,35,36
 307.295898438 178.352539062 307.295898438 178.352539062 288.284179688 181.102539062 c 4,37,38
 275.352539062 182.973632812 275.352539062 182.973632812 248.724609375 182.973632812 c 6,39,-1
 162.325195312 182.973632812 l 5,0,-1
350.969726562 384 m 5,40,-1
 350.969726562 340 l 5,41,-1
 242.969726562 340 l 6,42,43
 239.21484375 340 239.21484375 340 231.96875 340.048828125 c 132,-1,44
 224.72265625 340.098632812 224.72265625 340.098632812 221.240234375 340.098632812 c 4,44,45
 188.254882812 340.098632812 188.254882812 340.098632812 170.107421875 335.125976562 c 4,46,47
 154.241210938 330.778320312 154.241210938 330.778320312 144.428710938 321.836914062 c 4,48,49
 134.330078125 312.633789062 134.330078125 312.633789062 131.716796875 299.956054688 c 4,50,51
 130.904296875 296.025390625 130.904296875 296.025390625 130.904296875 291.778320312 c 4,52,53
 130.904296875 283.596679688 130.904296875 283.596679688 133.814453125 275.302734375 c 4,54,55
 138.1484375 262.947265625 138.1484375 262.947265625 148.579101562 250.592773438 c 4,56,57
 163.092773438 233.40234375 163.092773438 233.40234375 184.4140625 221.026367188 c 5,58,-1
 162.325195312 182.973632812 l 5,59,60
 134.399414062 199.18359375 134.399414062 199.18359375 114.959960938 222.20703125 c 4,61,62
 99.306640625 240.748046875 99.306640625 240.748046875 92.294921875 260.737304688 c 4,63,64
 86.904296875 276.102539062 86.904296875 276.102539062 86.904296875 291.778320312 c 4,65,66
 86.904296875 300.509765625 86.904296875 300.509765625 88.623046875 308.84375 c 4,67,68
 94.1259765625 335.525390625 94.1259765625 335.525390625 114.791015625 354.357421875 c 4,69,70
 132.415039062 370.418945312 132.415039062 370.418945312 158.478515625 377.561523438 c 4,71,72
 182.334960938 384.098632812 182.334960938 384.098632812 221.240234375 384.098632812 c 4,73,74
 225.020507812 384.098632812 225.020507812 384.098632812 232.266601562 384.048828125 c 132,-1,75
 239.513671875 384 239.513671875 384 242.969726562 384 c 6,75,-1
 350.969726562 384 l 5,40,-1
306.969726562 449.599609375 m 5,76,-1
 350.969726562 449.599609375 l 5,77,-1
 350.969726562 340 l 5,78,-1
 306.969726562 340 l 5,79,-1
 306.969726562 449.599609375 l 5,76,-1
335.200195312 108.799804688 m 4,0,1
 335.200195312 150.400390625 335.200195312 150.400390625 301.200195312 174.799804688 c 132,-1,2
 267.200195312 199.200195312 267.200195312 199.200195312 220.799804688 199.200195312 c 4,2,3
 196.799804688 199.200195312 196.799804688 199.200195312 168 188.799804688 c 5,4,-1
 148 188.799804688 l 5,5,-1
 96.7998046875 240 l 6,6,7
 76.7998046875 257.600585938 76.7998046875 257.600585938 76.7998046875 283.200195312 c 4,8,9
 76.7998046875 306.399414062 76.7998046875 306.399414062 93.599609375 323.200195312 c 132,-1,10
 110.400390625 340 110.400390625 340 133.599609375 340 c 6,11,-1
 351.200195312 340 l 5,12,-1
 351.200195312 296 l 5,13,-1
 133.599609375 296 l 6,14,15
 128 296 128 296 124.400390625 292 c 132,-1,16
 120.799804688 288 120.799804688 288 120.799804688 283.200195312 c 132,-1,17
 120.799804688 278.400390625 120.799804688 278.400390625 127.200195312 272 c 6,18,-1
 164 235.200195312 l 5,19,20
 194.399414062 243.200195312 194.399414062 243.200195312 220.799804688 243.200195312 c 4,21,22
 282.399414062 243.200195312 282.399414062 243.200195312 330.799804688 207.200195312 c 132,-1,23
 379.19921875 171.200195312 379.19921875 171.200195312 379.200195312 108.799804688 c 4,24,25
 379.200195312 58.923828125 379.200195312 58.923828125 336.99609375 20.6796875 c 132,-1,26
 294.791992188 -17.564453125 294.791992188 -17.564453125 224.521484375 -11.861328125 c 5,26,27
 226.293945312 -29.06640625 226.293945312 -29.06640625 227.91015625 -49.66015625 c 5,28,-1
 184.044921875 -53.103515625 l 5,29,30
 181.87890625 -25.5234375 181.87890625 -25.5234375 179.388671875 -3.8935546875 c 5,31,32
 165.311523438 -0.173828125 165.311523438 -0.173828125 150.513671875 5.123046875 c 4,33,34
 112.436523438 18.7587890625 112.436523438 18.7587890625 90.12109375 36.013671875 c 4,35,36
 74.158203125 48.3564453125 74.158203125 48.3564453125 65.16796875 63.2763671875 c 4,37,38
 53.7119140625 82.287109375 53.7119140625 82.287109375 54.3896484375 102.939453125 c 4,39,40
 55.263671875 129.607421875 55.263671875 129.607421875 74.517578125 147.583007812 c 4,41,42
 93.2236328125 165.049804688 93.2236328125 165.049804688 119.604492188 165.017578125 c 4,43,44
 145.14453125 164.987304688 145.14453125 164.987304688 166.989257812 147.98046875 c 4,45,46
 184.092773438 134.666015625 184.092773438 134.666015625 195.821289062 112.510742188 c 4,47,48
 211.071289062 83.703125 211.071289062 83.703125 218.845703125 32.986328125 c 4,49,50
 219.6015625 32.88671875 219.6015625 32.88671875 219.958984375 32.841796875 c 4,51,52
 246.603515625 29.4443359375 246.603515625 29.4443359375 268.536132812 34.5048828125 c 4,53,54
 286.399414062 38.6259765625 286.399414062 38.6259765625 301.365234375 48.8076171875 c 132,-1,55
 316.331054688 58.9892578125 316.331054688 58.9892578125 325.765625 74.8271484375 c 132,-1,56
 335.200195312 90.6650390625 335.200195312 90.6650390625 335.200195312 108.799804688 c 4,0,1
172.330078125 44.130859375 m 5,55,56
 166.619140625 73.6298828125 166.619140625 73.6298828125 156.934570312 91.9248046875 c 4,57,58
 149.620117188 105.741210938 149.620117188 105.741210938 139.959960938 113.260742188 c 4,59,60
 130.013671875 121.004882812 130.013671875 121.004882812 119.551757812 121.017578125 c 4,61,62
 110.548828125 121.029296875 110.548828125 121.029296875 104.544921875 115.421875 c 132,-1,64
 98.6416015625 109.911132812 98.6416015625 109.911132812 98.3662109375 101.497070312 c 4,65,66
 98.1162109375 93.8515625 98.1162109375 93.8515625 102.85546875 85.9853515625 c 132,-1,68
 107.59375 78.123046875 107.59375 78.123046875 117.03515625 70.822265625 c 4,69,70
 133.837890625 57.830078125 133.837890625 57.830078125 165.345703125 46.548828125 c 4,71,72
 168.619140625 45.376953125 168.619140625 45.376953125 172.330078125 44.130859375 c 5,55,56
-12 463.200195312 m 5,73,-1
 440.799804688 463.200195312 l 5,74,-1
 440.799804688 419.200195312 l 5,75,-1
 -12 419.200195312 l 5,76,-1
 -12 463.200195312 l 5,73,-1
306.969726562 449.599609375 m 5,77,-1
 350.969726562 449.599609375 l 5,78,-1
 350.969726562 296 l 5,79,-1
 306.969726562 296 l 5,80,-1
 306.969726562 449.599609375 l 5,77,-1
370.400390625 112.799804688 m 25,0,0
 379.15625 106.834960938 l 1,1,2
 376.879882812 55.9189453125 376.879882812 55.9189453125 338.135742188 21.7236328125 c 0,3,4
 313.104492188 -0.369140625 313.104492188 -0.369140625 278.427734375 -8.369140625 c 0,5,6
 253.484375 -14.1240234375 253.484375 -14.1240234375 224.521484375 -11.861328125 c 1,7,8
 226.293945312 -29.06640625 226.293945312 -29.06640625 227.91015625 -49.66015625 c 1,9,-1
 184.044921875 -53.103515625 l 1,10,11
 181.87890625 -25.5234375 181.87890625 -25.5234375 179.388671875 -3.8935546875 c 1,12,13
 165.311523438 -0.173828125 165.311523438 -0.173828125 150.513671875 5.123046875 c 0,14,15
 112.436523438 18.7587890625 112.436523438 18.7587890625 90.12109375 36.013671875 c 0,16,17
 74.158203125 48.3564453125 74.158203125 48.3564453125 65.16796875 63.2763671875 c 0,18,19
 53.7119140625 82.287109375 53.7119140625 82.287109375 54.3896484375 102.939453125 c 0,20,21
 55.263671875 129.607421875 55.263671875 129.607421875 74.517578125 147.583007812 c 0,22,23
 93.2236328125 165.049804688 93.2236328125 165.049804688 119.604492188 165.017578125 c 0,24,25
 145.14453125 164.987304688 145.14453125 164.987304688 166.989257812 147.98046875 c 0,26,27
 184.092773438 134.666015625 184.092773438 134.666015625 195.821289062 112.510742188 c 0,28,29
 211.071289062 83.703125 211.071289062 83.703125 218.845703125 32.986328125 c 0,30,31
 219.6015625 32.88671875 219.6015625 32.88671875 219.958984375 32.841796875 c 0,32,33
 246.603515625 29.4443359375 246.603515625 29.4443359375 268.536132812 34.5048828125 c 0,34,35
 292.348632812 39.9990234375 292.348632812 39.9990234375 309.01953125 54.7119140625 c 0,36,37
 333.7578125 76.5458984375 333.7578125 76.5458984375 335.200195312 108.799804688 c 1024
172.330078125 44.130859375 m 1,39,40
 166.619140625 73.6298828125 166.619140625 73.6298828125 156.934570312 91.9248046875 c 0,41,42
 149.620117188 105.741210938 149.620117188 105.741210938 139.959960938 113.260742188 c 0,43,44
 130.013671875 121.004882812 130.013671875 121.004882812 119.551757812 121.017578125 c 0,45,46
 110.548828125 121.029296875 110.548828125 121.029296875 104.544921875 115.421875 c 128,-1,48
 98.6416015625 109.911132812 98.6416015625 109.911132812 98.3662109375 101.497070312 c 0,49,50
 98.1162109375 93.8515625 98.1162109375 93.8515625 102.85546875 85.9853515625 c 128,-1,52
 107.59375 78.123046875 107.59375 78.123046875 117.03515625 70.822265625 c 0,53,54
 133.837890625 57.830078125 133.837890625 57.830078125 165.345703125 46.548828125 c 0,55,56
 168.619140625 45.376953125 168.619140625 45.376953125 172.330078125 44.130859375 c 1,39,40
-12 463.200195312 m 1,0,-1
 440.799804688 463.200195312 l 1,1,-1
 440.799804688 419.200195312 l 1,2,-1
 -12 419.200195312 l 1,3,-1
 -12 463.200195312 l 1,0,-1
306.969726562 449.599609375 m 1,4,-1
 350.969726562 449.599609375 l 1,5,-1
 350.969726562 296 l 1,6,-1
 306.969726562 296 l 1,7,-1
 306.969726562 449.599609375 l 1,4,-1
335.200195312 108.799804688 m 0,16,17
 335.200195312 148.799804688 335.200195312 148.799804688 302 174 c 128,-1,18
 268.799804688 199.200195312 268.799804688 199.200195312 220.799804688 199.200195312 c 0,19,20
 196.799804688 199.200195312 196.799804688 199.200195312 168 188.799804688 c 1,21,-1
 148 188.799804688 l 1,22,-1
 96.7998046875 240 l 2,23,24
 76.7998046875 257.600585938 76.7998046875 257.600585938 76.7998046875 283.200195312 c 0,25,26
 76.7998046875 306.399414062 76.7998046875 306.399414062 93.599609375 323.200195312 c 128,-1,27
 110.400390625 340 110.400390625 340 133.599609375 340 c 2,28,-1
 351.200195312 340 l 1,29,-1
 351.200195312 296 l 1,30,-1
 133.599609375 296 l 2,31,32
 128 296 128 296 124.400390625 292 c 128,-1,33
 120.799804688 288 120.799804688 288 120.799804688 283.200195312 c 128,-1,34
 120.799804688 278.400390625 120.799804688 278.400390625 127.200195312 272 c 2,35,-1
 164 235.200195312 l 1,36,37
 194.399414062 243.200195312 194.399414062 243.200195312 220.799804688 243.200195312 c 0,38,39
 282.399414062 243.200195312 282.399414062 243.200195312 330.799804688 207.200195312 c 128,-1,40
 379.19921875 171.200195312 379.19921875 171.200195312 379.200195312 108.799804688 c 1024,41,42
-10.15625 473.4375 m 1,0,-1
 -10.15625 520.3125 l 1,1,-1
 403.90625 520.3125 l 1,2,-1
 403.90625 473.4375 l 1,3,-1
 313.28125 473.4375 l 1,4,-1
 313.28125 338.28125 l 1,5,-1
 125.78125 338.28125 l 2,6,7
 113.28125 338.28125 113.28125 338.28125 103.90625 332.03125 c 128,-1,8
 94.53125 325.78125 94.53125 325.78125 94.53125 317.1875 c 0,9,10
 94.53125 300.78125 94.53125 300.78125 127.734375 267.578125 c 128,-1,11
 160.9375 234.375 160.9375 234.375 178.125 234.375 c 128,-1,12
 195.3125 234.375 195.3125 234.375 229.6875 247.265625 c 128,-1,13
 264.0625 260.15625 264.0625 260.15625 282.03125 260.15625 c 0,14,15
 311.71875 260.15625 311.71875 260.15625 333.203125 233.984375 c 128,-1,16
 354.6875 207.8125 354.6875 207.8125 354.6875 171.875 c 0,17,18
 354.6875 107.03125 354.6875 107.03125 315.234375 61.328125 c 128,-1,19
 275.78125 15.625 275.78125 15.625 219.53125 15.625 c 1,20,21
 239.0625 -12.5 239.0625 -12.5 271.875 -37.5 c 128,-1,22
 304.6875 -62.5 304.6875 -62.5 349.21875 -83.59375 c 1,23,-1
 323.4375 -125 l 1,24,25
 267.1875 -92.96875 267.1875 -92.96875 225 -57.03125 c 128,-1,26
 182.8125 -21.09375 182.8125 -21.09375 157.03125 15.625 c 1,27,28
 104.6875 15.625 104.6875 15.625 68.359375 35.546875 c 128,-1,29
 32.03125 55.46875 32.03125 55.46875 32.03125 83.59375 c 0,30,31
 32.03125 104.6875 32.03125 104.6875 47.265625 119.921875 c 128,-1,32
 62.5 135.15625 62.5 135.15625 84.375 135.15625 c 0,33,34
 114.0625 135.15625 114.0625 135.15625 143.359375 114.453125 c 128,-1,35
 172.65625 93.75 172.65625 93.75 193.75 57.03125 c 1,36,37
 238.28125 57.03125 238.28125 57.03125 270.3125 91.015625 c 128,-1,38
 302.34375 125 302.34375 125 302.34375 171.875 c 0,39,40
 302.34375 185.9375 302.34375 185.9375 296.484375 196.875 c 128,-1,41
 290.625 207.8125 290.625 207.8125 282.03125 207.8125 c 0,42,43
 264.0625 207.8125 264.0625 207.8125 229.6875 194.921875 c 128,-1,44
 195.3125 182.03125 195.3125 182.03125 178.125 182.03125 c 0,45,46
 144.53125 182.03125 144.53125 182.03125 92.96875 233.203125 c 128,-1,47
 41.40625 284.375 41.40625 284.375 41.40625 317.1875 c 0,48,49
 41.40625 347.65625 41.40625 347.65625 66.40625 368.75 c 128,-1,50
 91.40625 389.84375 91.40625 389.84375 126.5625 389.84375 c 2,51,-1
 256.25 389.84375 l 1,52,-1
 256.25 473.4375 l 1,53,-1
 -10.15625 473.4375 l 1,0,-1
EndSplineSet
Fore
SplineSet
132 119 m 0
 117 119 105 108 105 93 c 0
 105 60 144 46 172 40 c 1
 174 47 174 55 174 62 c 0
 174 91 159 119 132 119 c 0
-12 463 m 1
 -12 463 441 463 441 463 c 1
 441 463 441 419 441 419 c 1
 441 419 350 419 350 419 c 1
 350 419 350 361 350 361 c 1
 350 361 350 321 350 321 c 1
 350 321 306 321 306 321 c 1
 306 321 194 321 194 321 c 2
 148 321 132 312 132 284 c 0
 132 266 155 245 175 227 c 1
 175 227 254 227 254 227 c 2
 337 227 400 187 400 112 c 0
 400 27 320 -12 238 -12 c 0
 226 -12 213 -12 201 -10 c 1
 181 -52 147 -84 108 -106 c 1
 108 -106 86 -68 86 -68 c 1
 114 -52 139 -30 156 -2 c 1
 112 10 61 37 61 93 c 0
 61 132 93 163 132 163 c 0
 186 163 218 116 218 62 c 0
 218 52 217 43 215 33 c 1
 222 32 231 32 238 32 c 0
 293 32 342 52 354 95 c 0
 356 101 356 106 356 112 c 0
 356 154 325 175 288 181 c 0
 276 183 263 183 249 183 c 2
 249 183 162 183 162 183 c 1
 137 204 87 232 87 286 c 0
 87 352 149 361 194 361 c 2
 194 361 306 361 306 361 c 1
 306 361 306 419 306 419 c 1
 306 419 -12 419 -12 419 c 1
 -12 419 -12 463 -12 463 c 1
EndSplineSet
Layer: 2
SplineSet
100 -88 m 0
 124.953125 -74.2060546875 147.125976562 -55.3193359375 164.4140625 -32.6455078125 c 0
 176.858398438 -16.32421875 186.809570312 1.994140625 192.856445312 21.607421875 c 0
 198.904296875 41.2197265625 201.025390625 62.3154296875 196.799804688 82.400390625 c 0
 193.732421875 96.98046875 187.170898438 110.998046875 176.897460938 121.790039062 c 0
 166.624023438 132.58203125 152.473632812 139.920898438 137.599609375 140.799804688 c 0
 124.91015625 141.549804688 111.9140625 137.456054688 102.247070312 129.200195312 c 0
 92.5810546875 120.9453125 86.5146484375 108.678710938 85.599609375 96 c 0
 84.6123046875 82.3046875 89.4912109375 68.5361328125 97.751953125 57.5693359375 c 0
 106.012695312 46.6015625 117.379882812 38.2607421875 129.599609375 32 c 0
 150.013671875 21.541015625 172.6953125 16.1943359375 195.387695312 12.8515625 c 0
 218.080078125 9.5087890625 241.159179688 8.2978515625 264 10.400390625 c 0
 288.409179688 12.646484375 312.80078125 19.041015625 333.58203125 32.041015625 c 0
 354.362304688 45.0419921875 371.14453125 65.1533203125 377.599609375 88.7998046875 c 0
 381.671875 103.71484375 381.591796875 119.774414062 377.123046875 134.576171875 c 0
 372.655273438 149.376953125 363.822265625 162.836914062 352 172.799804688 c 1024
-36.7998046875 105.599609375 m 0
 -37.982421875 79.154296875 -50.552734375 53.517578125 -70.400390625 36 c 0
 -84.5546875 23.5068359375 -102.099609375 15.0947265625 -120.49609375 10.849609375 c 0
 -131.279296875 8.361328125 -142.333007812 7.2666015625 -153.40625 7.2666015625 c 0
 -161.223632812 7.2666015625 -169.049804688 7.8125 -176.799804688 8.7998046875 c 0
 -197.033203125 11.37890625 -216.845703125 16.7431640625 -236.047851562 23.619140625 c 0
 -255.25 30.494140625 -274.264648438 38.724609375 -290.400390625 51.2001953125 c 0
 -298.053710938 57.1181640625 -304.97265625 64.126953125 -309.966796875 72.4130859375 c 0
 -314.715820312 80.294921875 -317.623046875 89.392578125 -317.623046875 98.5830078125 c 0
 -317.623046875 110.512695312 -312.775390625 121.509765625 -304.447265625 129.284179688 c 0
 -296.431640625 136.768554688 -285.419921875 140.799804688 -274.454101562 140.799804688 c 0
 -262.162109375 140.799804688 -250.188476562 135.943359375 -240.502929688 128.403320312 c 0
 -230.833984375 120.875976562 -223.333007812 110.830078125 -217.599609375 100 c 0
 -205.330078125 76.8232421875 -200.328125 50.5380859375 -196.450195312 24.6025390625 c 0
 -192.572265625 -1.3330078125 -190.052734375 -27.4560546875 -188 -53.599609375 c 1024
EndSplineSet
Layer: 3
Layer: 4
SplineSet
193.388671875 211.301757812 m 5
 193.388671875 211.301757812 162.325195312 182.973632812 162.325195312 182.973632812 c 5
 137.828125 203.57421875 87.376953125 231.791015625 87.376953125 285.862304688 c 4
 87.376953125 351.900390625 149.077148438 361.137695312 193.599609375 361.137695312 c 6
 193.599609375 361.137695312 350.657226562 361.137695312 350.657226562 361.137695312 c 5
 350.657226562 361.137695312 350.657226562 321.137695312 350.657226562 321.137695312 c 5
 350.657226562 321.137695312 228.69140625 321.137695312 193.599609375 321.137695312 c 4
 147.501953125 321.137695312 132.177734375 312.198242188 132.177734375 284.262695312 c 4
 132.177734375 259.991210938 174.294921875 228.60546875 193.388671875 211.301757812 c 5
131.834960938 163.571289062 m 4
 185.490234375 163.571289062 218.209960938 114.637695312 218.209960938 61.287109375 c 4
 218.209960938 51.9990234375 217.154296875 42.2333984375 215.413085938 33.015625 c 5
 222.978515625 32.3916015625 230.666015625 32.041015625 238.010742188 32.041015625 c 4
 293.30859375 32.041015625 341.801757812 52.1494140625 353.578125 95.27734375 c 4
 355.02734375 100.5859375 355.768554688 106.135742188 355.768554688 111.657226562 c 5
 355.768554688 111.657226562 399.768554688 111.657226562 399.768554688 111.657226562 c 5
 399.768554688 27.0400390625 320.493164062 -11.958984375 238.010742188 -11.958984375 c 4
 225.62109375 -11.958984375 213.208984375 -11.1591796875 201.015625 -9.759765625 c 5
 180.654296875 -51.6943359375 147.3125 -84.7529296875 107.844726562 -106.5703125 c 5
 107.844726562 -106.5703125 86.5576171875 -68.0625 86.5576171875 -68.0625 c 5
 114.915039062 -52.38671875 139.165039062 -29.619140625 155.620117188 -1.478515625 c 5
 111.663085938 10.166015625 60.6748046875 37.3310546875 60.6748046875 93.1591796875 c 4
 60.6748046875 132.139648438 92.5341796875 163.571289062 131.834960938 163.571289062 c 4
131.834960938 119.571289062 m 4
 116.5703125 119.571289062 104.674804688 108.19140625 104.674804688 93.1591796875 c 4
 104.674804688 60.7119140625 144.263671875 46.3974609375 171.892578125 39.7978515625 c 5
 173.388671875 47.013671875 174.209960938 54.333984375 174.209960938 61.287109375 c 4
 174.209960938 90.291015625 159.188476562 119.571289062 131.834960938 119.571289062 c 4
355.583984375 106.577148438 m 6
 355.70703125 108.264648438 355.768554688 109.959960938 355.768554688 111.657226562 c 4
 355.768554688 153.100585938 325.270507812 175.752929688 288.284179688 181.102539062 c 4
 276.1953125 182.8515625 262.944335938 182.973632812 248.724609375 182.973632812 c 6
 248.724609375 182.973632812 162.325195312 182.973632812 162.325195312 182.973632812 c 5
 162.325195312 182.973632812 162.325195312 226.973632812 162.325195312 226.973632812 c 5
 162.325195312 226.973632812 248.724609375 226.973632812 248.724609375 226.973632812 c 5
 248.724609375 226.973632812 249.1796875 226.973632812 249.1796875 226.973632812 c 6
 316.23046875 226.973632812 362.598632812 209.374023438 386.653320312 164.521484375 c 4
 395.426757812 148.1640625 399.768554688 129.896484375 399.768554688 111.657226562 c 4
 399.768554688 108.893554688 399.66796875 106.12890625 399.466796875 103.369140625 c 6
 399.466796875 103.369140625 355.583984375 106.577148438 355.583984375 106.577148438 c 6
-12 463.200195312 m 5
 -12 463.200195312 440.799804688 463.200195312 440.799804688 463.200195312 c 5
 440.799804688 463.200195312 440.799804688 419.200195312 440.799804688 419.200195312 c 5
 440.799804688 419.200195312 -12 419.200195312 -12 419.200195312 c 5
 -12 419.200195312 -12 463.200195312 -12 463.200195312 c 5
306.657226562 430.737304688 m 5
 306.657226562 430.737304688 350.657226562 430.737304688 350.657226562 430.737304688 c 5
 350.657226562 430.737304688 350.657226562 321.137695312 350.657226562 321.137695312 c 5
 350.657226562 321.137695312 306.657226562 321.137695312 306.657226562 321.137695312 c 5
 306.657226562 321.137695312 306.657226562 430.737304688 306.657226562 430.737304688 c 5
EndSplineSet
EndChar

StartChar: iideva
Encoding: 205 2312 56
Width: 428
VWidth: 800
GlyphClass: 2
Flags: HMW
AnchorPoint: "DVAnchor3" 328 466 basechar 0
LayerCount: 5
Back
SplineSet
324.21875 -125 m 1,0,1
 268.75 -92.96875 268.75 -92.96875 226.5625 -57.03125 c 128,-1,2
 184.375 -21.09375 184.375 -21.09375 157.8125 15.625 c 1,3,4
 106.25 15.625 106.25 15.625 69.921875 35.546875 c 128,-1,5
 33.59375 55.46875 33.59375 55.46875 33.59375 83.59375 c 0,6,7
 33.59375 104.6875 33.59375 104.6875 48.4375 119.921875 c 128,-1,8
 63.28125 135.15625 63.28125 135.15625 85.15625 135.15625 c 0,9,10
 115.625 135.15625 115.625 135.15625 144.53125 114.453125 c 128,-1,11
 173.4375 93.75 173.4375 93.75 194.53125 57.03125 c 1,12,13
 241.40625 57.03125 241.40625 57.03125 275 91.015625 c 128,-1,14
 308.59375 125 308.59375 125 308.59375 171.875 c 0,15,16
 308.59375 185.9375 308.59375 185.9375 301.171875 196.875 c 128,-1,17
 293.75 207.8125 293.75 207.8125 282.8125 207.8125 c 0,18,19
 270.3125 207.8125 270.3125 207.8125 258.984375 205.46875 c 128,-1,20
 247.65625 203.125 247.65625 203.125 235.9375 197.65625 c 0,21,22
 219.53125 190.625 219.53125 190.625 205.078125 186.328125 c 128,-1,23
 190.625 182.03125 190.625 182.03125 178.90625 182.03125 c 0,24,25
 144.53125 182.03125 144.53125 182.03125 91.40625 233.203125 c 128,-1,26
 38.28125 284.375 38.28125 284.375 38.28125 317.1875 c 0,27,28
 38.28125 347.65625 38.28125 347.65625 64.453125 368.75 c 128,-1,29
 90.625 389.84375 90.625 389.84375 126.5625 389.84375 c 2,30,-1
 262.5 389.84375 l 1,31,-1
 262.5 473.4375 l 1,32,-1
 -10.15625 473.4375 l 1,33,-1
 -10.15625 520.3125 l 1,34,-1
 250.78125 520.3125 l 1,35,36
 223.4375 543.75 223.4375 543.75 208.984375 571.09375 c 128,-1,37
 194.53125 598.4375 194.53125 598.4375 194.53125 624.21875 c 0,38,39
 194.53125 671.875 194.53125 671.875 230.859375 705.078125 c 128,-1,40
 267.1875 738.28125 267.1875 738.28125 319.53125 738.28125 c 0,41,42
 333.59375 738.28125 333.59375 738.28125 347.65625 735.9375 c 128,-1,43
 361.71875 733.59375 361.71875 733.59375 376.5625 728.125 c 1,44,-1
 376.5625 681.25 l 1,45,46
 354.6875 689.84375 354.6875 689.84375 340.625 693.359375 c 128,-1,47
 326.5625 696.875 326.5625 696.875 319.53125 696.875 c 0,48,49
 289.0625 696.875 289.0625 696.875 267.96875 675.78125 c 128,-1,50
 246.875 654.6875 246.875 654.6875 246.875 624.21875 c 0,51,52
 246.875 595.3125 246.875 595.3125 264.0625 567.578125 c 128,-1,53
 281.25 539.84375 281.25 539.84375 310.9375 520.3125 c 1,54,-1
 408.59375 520.3125 l 1,55,-1
 408.59375 473.4375 l 1,56,-1
 314.0625 473.4375 l 1,57,-1
 314.0625 338.28125 l 1,58,-1
 126.5625 338.28125 l 2,59,60
 114.0625 338.28125 114.0625 338.28125 105.078125 332.03125 c 128,-1,61
 96.09375 325.78125 96.09375 325.78125 96.09375 317.1875 c 0,62,63
 96.09375 300.78125 96.09375 300.78125 129.296875 267.578125 c 128,-1,64
 162.5 234.375 162.5 234.375 178.90625 234.375 c 0,65,66
 187.5 234.375 187.5 234.375 200.390625 237.890625 c 128,-1,67
 213.28125 241.40625 213.28125 241.40625 231.25 247.65625 c 0,68,69
 246.875 253.90625 246.875 253.90625 260.15625 257.03125 c 128,-1,70
 273.4375 260.15625 273.4375 260.15625 282.8125 260.15625 c 0,71,72
 314.84375 260.15625 314.84375 260.15625 337.890625 233.984375 c 128,-1,73
 360.9375 207.8125 360.9375 207.8125 360.9375 171.875 c 0,74,75
 360.9375 107.03125 360.9375 107.03125 323.046875 61.328125 c 128,-1,76
 285.15625 15.625 285.15625 15.625 231.25 15.625 c 1,77,78
 243.75 -12.5 243.75 -12.5 276.171875 -37.109375 c 128,-1,79
 308.59375 -61.71875 308.59375 -61.71875 355.46875 -78.125 c 1,80,-1
 324.21875 -125 l 1,0,1
EndSplineSet
Fore
SplineSet
132 119 m 0
 117 119 105 108 105 93 c 0
 105 60 144 46 172 40 c 1
 174 47 174 55 174 62 c 0
 174 91 159 119 132 119 c 0
408 592 m 1
 408 592 376 562 376 562 c 1
 366 573 352 580 336 580 c 0
 310 580 293 563 293 538 c 0
 293 510 315 481 342 463 c 1
 342 463 441 463 441 463 c 1
 441 463 441 419 441 419 c 1
 441 419 350 419 350 419 c 1
 350 419 350 321 350 321 c 1
 350 321 194 321 194 321 c 2
 148 321 132 312 132 284 c 0
 132 266 155 245 175 227 c 1
 175 227 250 227 250 227 c 2
 338 227 400 187 400 112 c 0
 400 27 320 -12 238 -12 c 0
 226 -12 213 -12 201 -10 c 1
 181 -52 147 -84 108 -106 c 1
 108 -106 86 -68 86 -68 c 1
 114 -52 139 -30 156 -2 c 1
 112 10 61 37 61 93 c 0
 61 132 93 163 132 163 c 0
 186 163 218 116 218 62 c 0
 218 52 217 43 215 33 c 1
 222 32 231 32 238 32 c 0
 293 32 342 52 354 95 c 0
 356 101 356 106 356 112 c 0
 356 154 325 175 288 181 c 0
 276 183 263 183 249 183 c 2
 249 183 162 183 162 183 c 1
 137 204 87 232 87 286 c 0
 87 352 149 361 194 361 c 2
 194 361 307 361 307 361 c 1
 307 361 307 419 307 419 c 1
 307 419 -12 419 -12 419 c 1
 -12 419 -12 463 -12 463 c 1
 -12 463 278 463 278 463 c 1
 261 483 249 508 249 538 c 0
 249 587 287 624 336 624 c 0
 365 624 390 611 408 592 c 1
EndSplineSet
Layer: 2
SplineSet
236 592 m 0
 221.752929688 607.291992188 201.931640625 616.88671875 179.666992188 616.88671875 c 0
 142.185546875 616.88671875 115.017578125 590.169921875 115.017578125 553.0234375 c 0
 115.017578125 504.26953125 161.219726562 465.427734375 197.599609375 448 c 1024
377.599609375 592 m 0
 364.012695312 606.583984375 344.708007812 615.822265625 324.799804688 616.799804688 c 0
 313.4375 617.358398438 301.90625 615.227539062 291.655273438 610.295898438 c 0
 281.403320312 605.365234375 272.51171875 597.594726562 266.400390625 588 c 0
 258.155273438 575.056640625 255.239257812 559.060546875 257.208984375 543.840820312 c 0
 259.178710938 528.622070312 265.676757812 514.225585938 274.400390625 501.599609375 c 0
 290.506835938 478.28515625 313.643554688 460.243164062 339.200195312 448 c 1024
EndSplineSet
Layer: 3
Layer: 4
SplineSet
193.388671875 211.301757812 m 5
 193.388671875 211.301757812 162.325195312 182.973632812 162.325195312 182.973632812 c 5
 137.828125 203.57421875 87.376953125 231.791015625 87.376953125 285.862304688 c 4
 87.376953125 351.900390625 149.077148438 361.137695312 193.599609375 361.137695312 c 6
 193.599609375 361.137695312 350.657226562 361.137695312 350.657226562 361.137695312 c 5
 350.657226562 361.137695312 350.657226562 321.137695312 350.657226562 321.137695312 c 5
 350.657226562 321.137695312 228.69140625 321.137695312 193.599609375 321.137695312 c 4
 147.501953125 321.137695312 132.177734375 312.198242188 132.177734375 284.262695312 c 4
 132.177734375 259.991210938 174.294921875 228.60546875 193.388671875 211.301757812 c 5
306.969726562 449.599609375 m 5
 306.969726562 449.599609375 350.969726562 449.599609375 350.969726562 449.599609375 c 5
 350.969726562 449.599609375 350.969726562 340 350.969726562 340 c 5
 350.969726562 340 306.969726562 340 306.969726562 340 c 5
 306.969726562 340 306.969726562 449.599609375 306.969726562 449.599609375 c 5
131.834960938 163.571289062 m 4
 185.490234375 163.571289062 218.209960938 114.637695312 218.209960938 61.287109375 c 4
 218.209960938 51.9990234375 217.154296875 42.2333984375 215.413085938 33.015625 c 5
 222.978515625 32.3916015625 230.666015625 32.041015625 238.010742188 32.041015625 c 4
 293.30859375 32.041015625 341.801757812 52.1494140625 353.578125 95.27734375 c 4
 355.02734375 100.5859375 355.768554688 106.135742188 355.768554688 111.657226562 c 5
 355.768554688 111.657226562 399.768554688 111.657226562 399.768554688 111.657226562 c 5
 399.768554688 27.0400390625 320.493164062 -11.958984375 238.010742188 -11.958984375 c 4
 225.62109375 -11.958984375 213.208984375 -11.1591796875 201.015625 -9.759765625 c 5
 180.654296875 -51.6943359375 147.3125 -84.7529296875 107.844726562 -106.5703125 c 5
 107.844726562 -106.5703125 86.5576171875 -68.0625 86.5576171875 -68.0625 c 5
 114.915039062 -52.38671875 139.165039062 -29.619140625 155.620117188 -1.478515625 c 5
 111.663085938 10.166015625 60.6748046875 37.3310546875 60.6748046875 93.1591796875 c 4
 60.6748046875 132.139648438 92.5341796875 163.571289062 131.834960938 163.571289062 c 4
131.834960938 119.571289062 m 4
 116.5703125 119.571289062 104.674804688 108.19140625 104.674804688 93.1591796875 c 4
 104.674804688 60.7119140625 144.263671875 46.3974609375 171.892578125 39.7978515625 c 5
 173.388671875 47.013671875 174.209960938 54.333984375 174.209960938 61.287109375 c 4
 174.209960938 90.291015625 159.188476562 119.571289062 131.834960938 119.571289062 c 4
355.583984375 106.577148438 m 6
 355.70703125 108.264648438 355.768554688 109.959960938 355.768554688 111.657226562 c 4
 355.768554688 153.100585938 325.270507812 175.752929688 288.284179688 181.102539062 c 4
 276.1953125 182.8515625 262.944335938 182.973632812 248.724609375 182.973632812 c 6
 248.724609375 182.973632812 162.325195312 182.973632812 162.325195312 182.973632812 c 5
 162.325195312 182.973632812 162.325195312 226.973632812 162.325195312 226.973632812 c 5
 162.325195312 226.973632812 248.724609375 226.973632812 248.724609375 226.973632812 c 5
 248.724609375 226.973632812 249.1796875 226.973632812 249.1796875 226.973632812 c 6
 316.23046875 226.973632812 362.598632812 209.374023438 386.653320312 164.521484375 c 4
 395.426757812 148.1640625 399.768554688 129.896484375 399.768554688 111.657226562 c 4
 399.768554688 108.893554688 399.66796875 106.12890625 399.466796875 103.369140625 c 6
 399.466796875 103.369140625 355.583984375 106.577148438 355.583984375 106.577148438 c 6
-12 463.200195312 m 5
 -12 463.200195312 440.799804688 463.200195312 440.799804688 463.200195312 c 5
 440.799804688 463.200195312 440.799804688 419.200195312 440.799804688 419.200195312 c 5
 440.799804688 419.200195312 -12 419.200195312 -12 419.200195312 c 5
 -12 419.200195312 -12 463.200195312 -12 463.200195312 c 5
408.192382812 591.955078125 m 5
 408.192382812 591.955078125 375.998046875 561.962890625 375.998046875 561.962890625 c 5
 365.546875 573.181640625 351.548828125 579.845703125 335.762695312 579.845703125 c 4
 309.733398438 579.845703125 293.111328125 563.174804688 293.111328125 537.982421875 c 4
 293.111328125 503.44140625 329.606445312 468.893554688 363.200195312 452.799804688 c 5
 363.200195312 452.799804688 344.189453125 413.119140625 344.189453125 413.119140625 c 5
 305.022460938 431.881835938 249.111328125 475.015625 249.111328125 537.982421875 c 4
 249.111328125 587.083984375 286.826171875 623.845703125 335.762695312 623.845703125 c 4
 364.504882812 623.845703125 390.150390625 611.321289062 408.192382812 591.955078125 c 5
EndSplineSet
EndChar

StartChar: udeva
Encoding: 206 2313 57
Width: 396
VWidth: 800
GlyphClass: 2
Flags: HMW
AnchorPoint: "DVAnchor3" 250 463 basechar 0
LayerCount: 5
Back
SplineSet
169.750976562 263.364257812 m 1,0,-1
 159.848632812 306.235351562 l 1,1,2
 181.41015625 311.215820312 181.41015625 311.215820312 203.655273438 311.215820312 c 0,3,4
 209.166992188 311.215820312 209.166992188 311.215820312 214.665039062 310.905273438 c 0,5,6
 220.162109375 310.594726562 220.162109375 310.594726562 225.635742188 309.973632812 c 0,7,8
 231.109375 309.352539062 231.109375 309.352539062 236.557617188 308.415039062 c 0,9,10
 242.006835938 307.477539062 242.006835938 307.477539062 247.377929688 306.229492188 c 0,11,12
 301.423828125 293.67578125 301.423828125 293.67578125 338.509765625 254.915039062 c 0,13,14
 357.31640625 235.259765625 357.31640625 235.259765625 369.048828125 210.54296875 c 0,15,16
 380.782226562 185.827148438 380.782226562 185.827148438 383.489257812 159.008789062 c 0,17,18
 383.674804688 157.169921875 383.674804688 157.169921875 383.813476562 155.32421875 c 0,19,20
 383.952148438 153.477539062 383.952148438 153.477539062 384.044921875 151.6328125 c 0,21,22
 384.13671875 149.788085938 384.13671875 149.788085938 384.182617188 147.9453125 c 0,23,24
 384.228515625 146.1015625 384.228515625 146.1015625 384.228515625 144.255859375 c 0,25,26
 384.228515625 85.435546875 384.228515625 85.435546875 345.348632812 43.453125 c 0,27,28
 324.42578125 20.861328125 324.42578125 20.861328125 295.520507812 8.6220703125 c 0,29,30
 266.614257812 -3.6162109375 266.614257812 -3.6162109375 235.637695312 -3.6162109375 c 0,31,32
 234.442382812 -3.6162109375 234.442382812 -3.6162109375 233.24609375 -3.5966796875 c 0,33,34
 191.239257812 -2.9208984375 191.239257812 -2.9208984375 151.579101562 18.869140625 c 0,35,36
 116.797851562 37.978515625 116.797851562 37.978515625 88.1376953125 71.2392578125 c 0,37,38
 40.298828125 126.7578125 40.298828125 126.7578125 22.5869140625 202.169921875 c 1,39,-1
 65.4208984375 212.23046875 l 1,40,41
 80.66796875 147.3125 80.66796875 147.3125 121.469726562 99.9609375 c 0,42,43
 144.9453125 72.716796875 144.9453125 72.716796875 172.766601562 57.431640625 c 0,44,45
 202.860351562 40.8974609375 202.860351562 40.8974609375 233.954101562 40.3974609375 c 0,46,47
 234.795898438 40.3837890625 234.795898438 40.3837890625 235.637695312 40.3837890625 c 0,48,49
 282.53515625 40.3837890625 282.53515625 40.3837890625 313.06640625 73.3505859375 c 0,50,51
 321.649414062 82.6181640625 321.649414062 82.6181640625 327.771484375 94.1884765625 c 0,52,53
 333.893554688 105.758789062 333.893554688 105.758789062 337.060546875 118.515625 c 0,54,55
 340.228515625 131.2734375 340.228515625 131.2734375 340.228515625 144.255859375 c 0,56,57
 340.228515625 145.553710938 340.228515625 145.553710938 340.196289062 146.849609375 c 0,58,59
 340.1640625 148.14453125 340.1640625 148.14453125 340.099609375 149.436523438 c 0,60,61
 340.03515625 150.729492188 340.03515625 150.729492188 339.9375 152.018554688 c 0,62,63
 339.840820312 153.307617188 339.840820312 153.307617188 339.7109375 154.590820312 c 0,64,65
 335.71484375 194.19140625 335.71484375 194.19140625 306.717773438 224.497070312 c 0,66,67
 278.696289062 253.783203125 278.696289062 253.783203125 237.421875 263.370117188 c 0,68,69
 229.168945312 265.288085938 229.168945312 265.288085938 220.686523438 266.251953125 c 0,70,71
 212.204101562 267.215820312 212.204101562 267.215820312 203.655273438 267.215820312 c 0,72,73
 186.42578125 267.215820312 186.42578125 267.215820312 169.750976562 263.364257812 c 1,0,-1
206.591796875 267.314453125 m 5,74,-1
 203.655273438 311.215820312 l 1,75,76
 221.646484375 312.418945312 221.646484375 312.418945312 235.600585938 323.836914062 c 0,77,78
 249.556640625 335.25390625 249.556640625 335.25390625 254.297851562 352.650390625 c 0,79,80
 256.245117188 359.79296875 256.245117188 359.79296875 256.245117188 367.380859375 c 0,81,82
 256.245117188 379.140625 256.245117188 379.140625 251.723632812 389.693359375 c 0,83,84
 243.977539062 407.766601562 243.977539062 407.766601562 226.674804688 417.104492188 c 1,85,-1
 247.572265625 455.825195312 l 1,86,87
 278.377929688 439.200195312 278.377929688 439.200195312 292.166015625 407.025390625 c 0,88,89
 300.245117188 388.174804688 300.245117188 388.174804688 300.245117188 367.380859375 c 0,90,91
 300.245117188 353.905273438 300.245117188 353.905273438 296.749023438 341.079101562 c 0,92,93
 288.307617188 310.110351562 288.307617188 310.110351562 263.462890625 289.783203125 c 0,94,95
 238.619140625 269.456054688 238.619140625 269.456054688 206.591796875 267.314453125 c 5,74,-1
-12 419.200195312 m 1,0,-1
 -12 463.200195312 l 1,1,-1
 422.400390625 463.200195312 l 1,2,-1
 422.400390625 419.200195312 l 1,3,-1
 -12 419.200195312 l 1,0,-1
37.599609375 194.400390625 m 5,8,-1
 78.400390625 211.200195312 l 5,9,10
 120 105.599609375 120 105.599609375 188 59.2001953125 c 4,11,12
 220 36.7998046875 220 36.7998046875 255.200195312 36.7998046875 c 4,13,14
 288.799804688 36.7998046875 288.799804688 36.7998046875 312 57.599609375 c 132,-1,15
 335.19921875 78.3994140625 335.19921875 78.3994140625 335.200195312 108.799804688 c 4,16,17
 335.200195312 148.799804688 335.200195312 148.799804688 302 174 c 132,-1,18
 268.799804688 199.200195312 268.799804688 199.200195312 220.799804688 199.200195312 c 4,19,20
 196.799804688 199.200195312 196.799804688 199.200195312 168 188.799804688 c 5,21,-1
 148 188.799804688 l 5,22,-1
 96.7998046875 240 l 6,23,24
 76.7998046875 257.600585938 76.7998046875 257.600585938 76.7998046875 283.200195312 c 4,25,26
 76.7998046875 306.399414062 76.7998046875 306.399414062 93.599609375 323.200195312 c 132,-1,27
 110.400390625 340 110.400390625 340 133.599609375 340 c 6,28,-1
 351.200195312 340 l 5,29,-1
 351.200195312 296 l 5,30,-1
 133.599609375 296 l 6,31,32
 128 296 128 296 124.400390625 292 c 132,-1,33
 120.799804688 288 120.799804688 288 120.799804688 283.200195312 c 132,-1,34
 120.799804688 278.400390625 120.799804688 278.400390625 127.200195312 272 c 6,35,-1
 164 235.200195312 l 5,36,37
 194.399414062 243.200195312 194.399414062 243.200195312 220.799804688 243.200195312 c 4,38,39
 282.399414062 243.200195312 282.399414062 243.200195312 330.799804688 207.200195312 c 132,-1,40
 379.19921875 171.200195312 379.19921875 171.200195312 379.200195312 108.799804688 c 4,41,42
 379.200195312 59.2001953125 379.200195312 59.2001953125 342.400390625 26 c 132,-1,43
 305.599609375 -7.2001953125 305.599609375 -7.2001953125 255.200195312 -7.2001953125 c 4,44,45
 206.399414062 -7.2001953125 206.399414062 -7.2001953125 163.200195312 22.400390625 c 4,46,47
 84 75.2001953125 84 75.2001953125 37.599609375 194.400390625 c 5,8,-1
-10.15625 473.4375 m 1,0,-1
 -10.15625 520.3125 l 1,1,-1
 503.125 520.3125 l 1,2,-1
 503.125 473.4375 l 1,3,-1
 392.1875 473.4375 l 1,4,5
 407.8125 455.46875 407.8125 455.46875 415.625 433.59375 c 128,-1,6
 423.4375 411.71875 423.4375 411.71875 423.4375 389.84375 c 0,7,8
 423.4375 355.46875 423.4375 355.46875 409.375 327.734375 c 128,-1,9
 395.3125 300 395.3125 300 371.09375 285.9375 c 1,10,11
 404.6875 275 404.6875 275 424.609375 240.625 c 128,-1,12
 444.53125 206.25 444.53125 206.25 444.53125 160.9375 c 0,13,14
 444.53125 100.78125 444.53125 100.78125 403.125 58.203125 c 128,-1,15
 361.71875 15.625 361.71875 15.625 303.90625 15.625 c 0,16,17
 223.4375 15.625 223.4375 15.625 148.828125 100.390625 c 128,-1,18
 74.21875 185.15625 74.21875 185.15625 17.96875 338.28125 c 1,19,-1
 60.15625 357.03125 l 1,20,21
 110.15625 219.53125 110.15625 219.53125 174.21875 143.75 c 128,-1,22
 238.28125 67.96875 238.28125 67.96875 303.90625 67.96875 c 0,23,24
 339.84375 67.96875 339.84375 67.96875 366.015625 95.3125 c 128,-1,25
 392.1875 122.65625 392.1875 122.65625 392.1875 160.9375 c 0,26,27
 392.1875 203.90625 392.1875 203.90625 367.578125 234.765625 c 128,-1,28
 342.96875 265.625 342.96875 265.625 308.59375 265.625 c 2,29,-1
 204.6875 265.625 l 1,30,-1
 184.375 311.71875 l 1,31,-1
 298.4375 311.71875 l 2,32,33
 328.90625 311.71875 328.90625 311.71875 350 334.765625 c 128,-1,34
 371.09375 357.8125 371.09375 357.8125 371.09375 389.84375 c 0,35,36
 371.09375 411.71875 371.09375 411.71875 358.59375 433.59375 c 128,-1,37
 346.09375 455.46875 346.09375 455.46875 324.21875 473.4375 c 1,38,-1
 -10.15625 473.4375 l 1,0,-1
EndSplineSet
Fore
SplineSet
-12 419 m 1
 -12 419 -12 463 -12 463 c 1
 -12 463 413 463 413 463 c 1
 413 463 413 419 413 419 c 1
 413 419 287 419 287 419 c 1
 298 401 306 381 306 358 c 0
 306 324 291 295 268 274 c 1
 326 252 366 200 366 134 c 0
 366 59 306 -2 230 -2 c 0
 114 -2 53 107 28 182 c 1
 28 182 70 194 70 194 c 1
 94 120 148 38 230 38 c 0
 279 38 322 78 322 134 c 0
 322 200 270 246 204 246 c 2
 204 246 166 246 166 246 c 1
 166 246 166 286 166 286 c 1
 166 286 202 286 202 286 c 1
 233 292 262 319 262 358 c 0
 262 386 248 407 230 419 c 1
 230 419 -12 419 -12 419 c 1
EndSplineSet
Layer: 2
SplineSet
164.799804688 260.799804688 m 0
 190.0625 267.634765625 217.14453125 267.661132812 242.400390625 260.799804688 c 0
 266.837890625 254.161132812 289.548828125 241.069335938 307.23828125 222.94921875 c 0
 324.928710938 204.829101562 337.513671875 181.647460938 342.400390625 156.799804688 c 0
 348.862304688 123.940429688 341.151367188 88.2783203125 320.573242188 61.857421875 c 0
 299.99609375 35.4365234375 267.06640625 19.3779296875 233.591796875 18.400390625 c 0
 208.540039062 17.66796875 183.590820312 24.86328125 161.720703125 37.103515625 c 0
 139.850585938 49.34375 120.8984375 66.388671875 104.803710938 85.599609375 c 0
 79.6728515625 115.598632812 61.01953125 150.822265625 48.7998046875 188 c 1024
204.799804688 265.599609375 m 0
 224.815429688 268.728515625 243.720703125 278.575195312 257.755859375 293.18359375 c 0
 271.791015625 307.791992188 280.875 327.076171875 283.200195312 347.200195312 c 0
 285.5390625 367.444335938 281.022460938 388.419921875 270.55859375 405.908203125 c 0
 260.094726562 423.395507812 243.74609375 437.291015625 224.799804688 444.799804688 c 1024
EndSplineSet
Layer: 3
Layer: 4
SplineSet
166.400390625 245.599609375 m 5
 166.400390625 245.599609375 166.400390625 285.599609375 166.400390625 285.599609375 c 5
 166.400390625 285.599609375 188.799804688 285.599609375 204 285.599609375 c 5
 293.599609375 285.599609375 366.625976562 221.517578125 366.625976562 133.786132812 c 4
 366.625976562 58.744140625 306.1796875 -1.6513671875 230.102539062 -1.6513671875 c 4
 113.869140625 -1.6513671875 52.5400390625 106.76171875 27.720703125 182.274414062 c 5
 27.720703125 182.274414062 69.87890625 193.725585938 69.87890625 193.725585938 c 5
 94.1259765625 119.954101562 148.810546875 38.3486328125 230.102539062 38.3486328125 c 4
 278.6953125 38.3486328125 322.625976562 77.69921875 322.625976562 133.786132812 c 4
 322.625976562 200.216796875 269.599609375 245.599609375 204 245.599609375 c 5
 204 245.599609375 166.400390625 245.599609375 166.400390625 245.599609375 c 5
208.52734375 245.888671875 m 5
 208.52734375 245.888671875 201.072265625 285.310546875 201.072265625 285.310546875 c 5
 232.5625 290.232421875 261.802734375 318.091796875 261.802734375 357.724609375 c 4
 261.802734375 392.431640625 239.704101562 417.076171875 216.008789062 426.466796875 c 5
 216.008789062 426.466796875 233.591796875 463.133789062 233.591796875 463.133789062 c 5
 273.201171875 447.435546875 305.802734375 408.486328125 305.802734375 357.724609375 c 4
 305.802734375 299.817382812 262.494140625 254.323242188 208.52734375 245.888671875 c 5
-12 419.200195312 m 5
 -12 419.200195312 -12 463.200195312 -12 463.200195312 c 5
 129.599609375 463.200195312 271.200195312 463.200195312 412.799804688 463.200195312 c 5
 412.799804688 463.200195312 412.799804688 419.200195312 412.799804688 419.200195312 c 5
 412.799804688 419.200195312 -12 419.200195312 -12 419.200195312 c 5
EndSplineSet
EndChar

StartChar: uudeva
Encoding: 207 2314 58
Width: 583
VWidth: 800
GlyphClass: 2
Flags: HMW
AnchorPoint: "DVAnchor3" 256 462 basechar 0
LayerCount: 5
Back
SplineSet
-10.15625 473.4375 m 1,0,-1
 -10.15625 520.3125 l 1,1,-1
 730.46875 520.3125 l 1,2,-1
 730.46875 473.4375 l 1,3,-1
 386.71875 473.4375 l 1,4,5
 403.90625 453.90625 403.90625 453.90625 412.5 432.421875 c 128,-1,6
 421.09375 410.9375 421.09375 410.9375 421.09375 389.84375 c 0,7,8
 421.09375 354.6875 421.09375 354.6875 405.46875 327.734375 c 128,-1,9
 389.84375 300.78125 389.84375 300.78125 364.0625 291.40625 c 1,10,11
 389.0625 279.6875 389.0625 279.6875 404.6875 264.0625 c 128,-1,12
 420.3125 248.4375 420.3125 248.4375 423.4375 232.8125 c 1,13,14
 441.40625 275.78125 441.40625 275.78125 476.171875 301.5625 c 128,-1,15
 510.9375 327.34375 510.9375 327.34375 551.5625 327.34375 c 0,16,17
 607.8125 327.34375 607.8125 327.34375 647.265625 291.015625 c 128,-1,18
 686.71875 254.6875 686.71875 254.6875 686.71875 203.125 c 0,19,20
 686.71875 150.78125 686.71875 150.78125 663.28125 105.46875 c 128,-1,21
 639.84375 60.15625 639.84375 60.15625 598.4375 31.25 c 1,22,-1
 564.0625 69.53125 l 1,23,24
 596.875 88.28125 596.875 88.28125 615.625 124.21875 c 128,-1,25
 634.375 160.15625 634.375 160.15625 634.375 203.125 c 0,26,27
 634.375 235.15625 634.375 235.15625 610.15625 258.203125 c 128,-1,28
 585.9375 281.25 585.9375 281.25 551.5625 281.25 c 0,29,30
 512.5 281.25 512.5 281.25 480.46875 238.28125 c 128,-1,31
 448.4375 195.3125 448.4375 195.3125 436.71875 129.6875 c 1,32,33
 428.90625 80.46875 428.90625 80.46875 388.671875 48.046875 c 128,-1,34
 348.4375 15.625 348.4375 15.625 296.875 15.625 c 0,35,36
 214.0625 15.625 214.0625 15.625 137.109375 108.203125 c 128,-1,37
 60.15625 200.78125 60.15625 200.78125 21.09375 348.4375 c 1,38,-1
 67.96875 369.53125 l 1,39,40
 103.125 235.9375 103.125 235.9375 167.1875 151.953125 c 128,-1,41
 231.25 67.96875 231.25 67.96875 296.875 67.96875 c 0,42,43
 335.15625 67.96875 335.15625 67.96875 362.5 98.4375 c 128,-1,44
 389.84375 128.90625 389.84375 128.90625 389.84375 171.875 c 0,45,46
 389.84375 210.15625 389.84375 210.15625 362.5 237.890625 c 128,-1,47
 335.15625 265.625 335.15625 265.625 296.875 265.625 c 2,48,-1
 203.125 265.625 l 1,49,-1
 182.03125 311.71875 l 1,50,-1
 285.9375 311.71875 l 2,51,52
 320.3125 311.71875 320.3125 311.71875 344.140625 334.765625 c 128,-1,53
 367.96875 357.8125 367.96875 357.8125 367.96875 389.84375 c 0,54,55
 367.96875 408.59375 367.96875 408.59375 354.6875 430.46875 c 128,-1,56
 341.40625 452.34375 341.40625 452.34375 317.1875 473.4375 c 1,57,-1
 -10.15625 473.4375 l 1,0,-1
EndSplineSet
Fore
SplineSet
166 246 m 1
 166 246 166 286 166 286 c 1
 166 286 202 286 202 286 c 1
 233 292 262 319 262 358 c 0
 262 386 248 407 230 419 c 1
 230 419 -12 419 -12 419 c 1
 -12 419 -12 463 -12 463 c 1
 -12 463 599 463 599 463 c 1
 599 463 599 419 599 419 c 1
 599 419 287 419 287 419 c 1
 298 401 306 381 306 358 c 0
 306 324 291 295 268 274 c 1
 302 261 329 238 347 208 c 1
 366 235 397 258 440 258 c 0
 511 258 559 197 559 134 c 0
 559 64 504 7 438 -2 c 2
 438 -2 431 -3 431 -3 c 1
 431 -3 431 38 431 38 c 1
 474 44 515 83 515 134 c 0
 515 181 480 218 440 218 c 0
 406 218 380 192 370 159 c 0
 368 151 367 143 366 134 c 0
 366 59 306 -2 230 -2 c 0
 114 -2 53 107 28 182 c 1
 28 182 70 194 70 194 c 1
 94 120 148 38 230 38 c 0
 279 38 322 78 322 134 c 0
 322 200 270 246 204 246 c 2
 204 246 166 246 166 246 c 1
EndSplineSet
Layer: 2
SplineSet
228 18.400390625 m 0
 250.366210938 14.5302734375 274.150390625 20.4404296875 292.391601562 33.947265625 c 0
 310.633789062 47.455078125 322.7890625 67.947265625 329.599609375 89.599609375 c 0
 337.408203125 114.422851562 339.133789062 140.859375 347.200195312 165.599609375 c 0
 354.032226562 186.555664062 365.986328125 206.262695312 383.524414062 219.61328125 c 0
 401.0625 232.963867188 423.639648438 239.493164062 445.599609375 237.599609375 c 0
 471.190429688 235.393554688 495.42578125 221.956054688 511.641601562 202.036132812 c 0
 527.857421875 182.1171875 536.10546875 156.069335938 535.200195312 130.400390625 c 0
 534.227539062 102.833007812 522.8203125 75.8330078125 504.073242188 55.59765625 c 0
 485.326171875 35.36328125 459.350585938 21.98046875 432 18.400390625 c 1024
EndSplineSet
Layer: 3
SplineSet
464.799804688 97.599609375 m 5
 464.799804688 97.599609375 464.799804688 141.599609375 464.799804688 141.599609375 c 5
 509.876953125 141.599609375 538.400390625 174.848632812 538.400390625 218.400390625 c 4
 538.400390625 265.505859375 501.765625 304.799804688 455.200195312 304.799804688 c 4
 407.017578125 304.799804688 369.411132812 266.338867188 348 233.599609375 c 4
 346.587890625 231.440429688 316.927734375 236.881835938 316.799804688 256 c 5
 316.723632812 267.465820312 346.46484375 297.169921875 345.599609375 295.84765625 c 5
 370.85546875 322.861328125 409.131835938 348.799804688 454.400390625 348.799804688 c 4
 525.490234375 348.799804688 582.400390625 289.440429688 582.400390625 218.400390625 c 4
 582.400390625 150.924804688 535.080078125 97.599609375 464.799804688 97.599609375 c 5
EndSplineSet
Layer: 4
SplineSet
431.009765625 37.58203125 m 5
 431.009765625 37.58203125 437.279296875 37.58203125 437.279296875 37.58203125 c 5
 437.279296875 37.58203125 437.279296875 -2.009765625 437.279296875 -2.009765625 c 5
 437.279296875 -2.009765625 431.009765625 -2.828125 431.009765625 -2.828125 c 5
 431.009765625 -2.828125 431.009765625 37.58203125 431.009765625 37.58203125 c 5
322.745117188 133.786132812 m 5
 323.197265625 145.620117188 324.126953125 158.021484375 328.251953125 170.669921875 c 4
 341.798828125 212.224609375 378.665039062 257.306640625 440.244140625 257.306640625 c 4
 511.044921875 257.306640625 559.412109375 197.005859375 559.412109375 133.607421875 c 4
 559.412109375 62.927734375 503.842773438 6.703125 437.279296875 -2.009765625 c 5
 437.279296875 -2.009765625 431.009765625 37.58203125 431.009765625 37.58203125 c 5
 474.591796875 43.287109375 515.412109375 82.04296875 515.412109375 133.607421875 c 4
 515.412109375 181.171875 479.995117188 217.306640625 440.244140625 217.306640625 c 4
 406.083984375 217.306640625 381.12109375 192.072265625 370.4375 159.302734375 c 4
 367.845703125 151.353515625 367.034179688 142.794921875 366.625976562 133.786132812 c 5
 366.625976562 133.786132812 322.745117188 133.786132812 322.745117188 133.786132812 c 5
-12 419.200195312 m 5
 -12 419.200195312 -12 463.200195312 -12 463.200195312 c 5
 -12 463.200195312 599.200195312 463.200195312 599.200195312 463.200195312 c 5
 599.200195312 463.200195312 599.200195312 419.200195312 599.200195312 419.200195312 c 5
 599.200195312 419.200195312 -12 419.200195312 -12 419.200195312 c 5
208.52734375 245.888671875 m 5
 208.52734375 245.888671875 201.072265625 285.310546875 201.072265625 285.310546875 c 5
 232.5625 290.232421875 261.802734375 318.091796875 261.802734375 357.724609375 c 4
 261.802734375 392.431640625 239.704101562 417.076171875 216.008789062 426.466796875 c 5
 216.008789062 426.466796875 233.591796875 463.133789062 233.591796875 463.133789062 c 5
 273.201171875 447.435546875 305.802734375 408.486328125 305.802734375 357.724609375 c 4
 305.802734375 299.817382812 262.494140625 254.323242188 208.52734375 245.888671875 c 5
166.400390625 245.599609375 m 5
 166.400390625 245.599609375 166.400390625 285.599609375 166.400390625 285.599609375 c 5
 166.400390625 285.599609375 188.799804688 285.599609375 204 285.599609375 c 4
 293.599609375 285.599609375 366.625976562 221.517578125 366.625976562 133.786132812 c 4
 366.625976562 58.744140625 306.1796875 -1.6513671875 230.102539062 -1.6513671875 c 4
 113.869140625 -1.6513671875 52.5400390625 106.76171875 27.720703125 182.274414062 c 5
 27.720703125 182.274414062 69.87890625 193.725585938 69.87890625 193.725585938 c 5
 94.1259765625 119.954101562 148.810546875 38.3486328125 230.102539062 38.3486328125 c 4
 278.6953125 38.3486328125 322.625976562 77.69921875 322.625976562 133.786132812 c 4
 322.625976562 200.216796875 269.599609375 245.599609375 204 245.599609375 c 4
 204 245.599609375 166.400390625 245.599609375 166.400390625 245.599609375 c 5
EndSplineSet
EndChar

